<svg width="328" height="164" viewBox="0 0 328 164" fill="none" xmlns="http://www.w3.org/2000/svg">
<path d="M21.9999 2.5C10.9999 28 34.9999 17.5 28.4999 36" stroke="#0028BF" stroke-width="2"/>
<path d="M145.806 94.34H149.154C151.794 94.34 153.87 95.048 155.382 96.464C156.894 97.856 157.65 99.74 157.65 102.116C157.65 104.612 156.81 106.64 155.13 108.2C153.474 109.76 151.266 110.54 148.506 110.54C145.89 110.54 143.694 109.82 141.918 108.38C140.166 106.916 139.254 104.876 139.182 102.26L144.798 101.144C144.822 102.608 145.194 103.7 145.914 104.42C146.634 105.14 147.534 105.5 148.614 105.5C149.646 105.5 150.474 105.2 151.098 104.6C151.746 103.976 152.07 103.172 152.07 102.188C152.07 101.276 151.746 100.556 151.098 100.028C150.474 99.476 149.646 99.2 148.614 99.2H140.334L140.766 85.88H156.606V91.028H145.95L145.806 94.34ZM163.092 88.832C165.036 86.504 167.604 85.34 170.796 85.34C173.988 85.34 176.556 86.504 178.5 88.832C180.468 91.136 181.452 94.172 181.452 97.94C181.452 101.708 180.468 104.756 178.5 107.084C176.556 109.388 173.988 110.54 170.796 110.54C167.604 110.54 165.036 109.388 163.092 107.084C161.148 104.756 160.176 101.708 160.176 97.94C160.176 94.172 161.148 91.136 163.092 88.832ZM167.412 103.34C168.252 104.66 169.38 105.32 170.796 105.32C172.212 105.32 173.34 104.66 174.18 103.34C175.044 101.996 175.476 100.196 175.476 97.94C175.476 95.684 175.044 93.896 174.18 92.576C173.34 91.232 172.212 90.56 170.796 90.56C169.38 90.56 168.252 91.232 167.412 92.576C166.572 93.896 166.152 95.684 166.152 97.94C166.152 100.196 166.572 101.996 167.412 103.34ZM190.454 85.34C192.182 85.34 193.646 85.904 194.846 87.032C196.07 88.136 196.682 89.588 196.682 91.388C196.682 93.164 196.07 94.616 194.846 95.744C193.646 96.848 192.182 97.4 190.454 97.4C188.702 97.4 187.214 96.848 185.99 95.744C184.79 94.616 184.19 93.164 184.19 91.388C184.19 89.588 184.79 88.136 185.99 87.032C187.214 85.904 188.702 85.34 190.454 85.34ZM187.826 110L205.25 85.88H208.634L191.174 110H187.826ZM190.454 88.904C189.806 88.904 189.242 89.132 188.762 89.588C188.306 90.02 188.078 90.608 188.078 91.352C188.078 92.12 188.306 92.732 188.762 93.188C189.242 93.62 189.806 93.836 190.454 93.836C191.078 93.836 191.618 93.608 192.074 93.152C192.554 92.696 192.794 92.096 192.794 91.352C192.794 90.608 192.554 90.02 192.074 89.588C191.618 89.132 191.078 88.904 190.454 88.904ZM206.222 98.48C207.95 98.48 209.414 99.044 210.614 100.172C211.838 101.276 212.45 102.728 212.45 104.528C212.45 106.304 211.838 107.756 210.614 108.884C209.414 109.988 207.95 110.54 206.222 110.54C204.47 110.54 202.982 109.988 201.758 108.884C200.558 107.756 199.958 106.304 199.958 104.528C199.958 102.728 200.558 101.276 201.758 100.172C202.982 99.044 204.47 98.48 206.222 98.48ZM206.222 102.044C205.574 102.044 205.01 102.272 204.53 102.728C204.074 103.16 203.846 103.748 203.846 104.492C203.846 105.26 204.074 105.872 204.53 106.328C205.01 106.76 205.574 106.976 206.222 106.976C206.846 106.976 207.386 106.748 207.842 106.292C208.322 105.836 208.562 105.236 208.562 104.492C208.562 103.748 208.322 103.16 207.842 102.728C207.386 102.272 206.846 102.044 206.222 102.044Z" fill="black"/>
<g clip-path="url(#clip0)">
<path d="M204.725 149.472C200.347 146.98 190.253 144.446 185.984 144.11L182.769 143.855C179.339 143.579 177.446 143.432 175.998 143.432C174.55 143.432 166.018 144.114 166.018 144.114C161.747 144.45 151.656 146.984 147.275 149.476C145.223 150.641 145 151.471 145 154.224V161.243C145 161.814 145.07 162.644 145.672 163.275C146.366 164 147.266 164 148.308 164H203.694C204.734 164 205.633 164 206.328 163.275C206.93 162.644 207 161.814 207 161.243V154.22C207 151.467 206.777 150.641 204.725 149.472Z" fill="#077954"/>
<path d="M204.725 149.472C200.347 146.98 190.253 144.446 185.984 144.11L182.769 143.855C179.339 143.579 177.446 143.432 175.998 143.432C174.55 143.432 166.018 144.114 166.018 144.114C161.747 144.45 151.656 146.984 147.275 149.476C145.223 150.641 145 151.471 145 154.224V161.243C145 161.814 145.07 162.644 145.672 163.275C146.366 164 147.266 164 148.308 164H203.694C204.734 164 205.633 164 206.328 163.275C206.93 162.644 207 161.814 207 161.243V154.22C207 151.467 206.777 150.641 204.725 149.472ZM204.725 149.472C206.777 150.641 207 151.467 207 154.22V161.243C207 161.814 206.93 162.644 206.328 163.275C205.633 164 204.734 164 203.694 164H148.308C147.266 164 146.366 164 145.672 163.275C145.07 162.644 145 161.814 145 161.243V154.224C145 151.471 145.223 150.641 147.275 149.476C151.656 146.984 161.747 144.45 166.018 144.114C166.018 144.114 174.55 143.432 175.998 143.432C177.446 143.432 179.339 143.579 182.769 143.855L185.984 144.11C190.253 144.446 200.347 146.98 204.725 149.472Z" fill="black"/>
<path d="M206.317 161.239C206.317 161.683 206.269 162.323 205.845 162.766C205.351 163.283 204.656 163.283 203.694 163.282H148.31C147.345 163.282 146.653 163.282 146.158 162.766C145.734 162.323 145.686 161.683 145.686 161.239V154.22C145.686 151.56 145.918 151.059 147.606 150.099C151.91 147.647 161.861 145.152 166.071 144.822L169.287 144.567C172.706 144.18 174.604 144.054 176.025 144.054C177.446 144.054 179.599 144.143 182.723 144.567L185.938 144.822C190.151 145.152 200.101 147.647 204.404 150.099C206.091 151.059 206.324 151.56 206.324 154.22V161.239H206.317Z" fill="white"/>
<path d="M206.317 161.239C206.317 161.683 206.269 162.323 205.845 162.766C205.351 163.283 204.656 163.283 203.694 163.282H148.31C147.345 163.282 146.653 163.282 146.158 162.766C145.734 162.323 145.686 161.683 145.686 161.239V154.22C145.686 151.56 145.918 151.059 147.606 150.099C151.91 147.647 161.861 145.152 166.071 144.822L169.287 144.567C172.706 144.18 174.604 144.054 176.025 144.054C177.446 144.054 179.599 144.143 182.723 144.567L185.938 144.822C190.151 145.152 200.101 147.647 204.404 150.099C206.091 151.059 206.324 151.56 206.324 154.22V161.239H206.317ZM206.317 161.239H206.324V154.22C206.324 151.56 206.091 151.059 204.404 150.099C200.101 147.647 190.151 145.152 185.938 144.822L182.723 144.567C179.599 144.143 177.446 144.054 176.025 144.054C174.604 144.054 172.706 144.18 169.287 144.567L166.071 144.822C161.861 145.152 151.91 147.647 147.606 150.099C145.918 151.059 145.686 151.56 145.686 154.22V161.239C145.686 161.683 145.734 162.323 146.158 162.766C146.653 163.282 147.345 163.282 148.31 163.282H203.694C204.656 163.283 205.351 163.283 205.845 162.766C206.269 162.323 206.317 161.683 206.317 161.239Z" fill="black"/>
<path d="M189.414 141.689L189.013 141.565C188.906 141.535 186.321 140.842 185.461 140.823L185.656 139.8C185.667 139.719 185.642 139.636 185.586 139.575C185.221 139.084 181.415 138 175.957 138C170.566 138 166.622 139.004 166.251 139.445C166.196 139.502 166.172 139.581 166.186 139.657L166.446 140.822C165.589 140.846 163.007 141.538 162.895 141.563L162.495 141.687L162.737 141.962L164.265 143.564L163.933 146.28L163.893 146.65L164.242 146.564C164.564 146.486 164.918 146.381 165.296 146.269C166.169 146.013 167.159 145.723 167.853 145.723C167.858 145.723 168.372 145.712 168.88 145.669C169.057 145.653 169.154 145.603 169.176 145.513C169.233 145.278 168.64 144.878 168.485 144.784C168.753 144.552 172.872 144.109 175.957 144.124H176.091C179.169 144.124 183.196 144.559 183.431 144.782C183.279 144.878 182.681 145.277 182.738 145.513C182.76 145.603 182.856 145.653 183.034 145.669C183.54 145.712 184.055 145.723 184.061 145.723C184.754 145.723 185.744 146.013 186.618 146.269C186.995 146.375 187.352 146.481 187.67 146.564L188.021 146.65L187.649 143.564L189.177 141.961L189.414 141.689Z" fill="#DF2A27"/>
<path d="M189.414 141.689L189.013 141.565C188.906 141.535 186.321 140.842 185.461 140.823L185.656 139.8C185.667 139.719 185.642 139.636 185.586 139.575C185.221 139.084 181.415 138 175.957 138C170.566 138 166.622 139.004 166.251 139.445C166.196 139.502 166.172 139.581 166.186 139.657L166.446 140.822C165.693 140.844 163.609 141.38 163.037 141.527C162.958 141.547 162.908 141.56 162.895 141.563L162.495 141.687L162.737 141.962L164.265 143.564L163.933 146.28L163.893 146.65L164.242 146.564C164.559 146.487 164.908 146.384 165.279 146.274L165.296 146.269C165.296 146.269 165.297 146.269 165.298 146.269C166.171 146.013 167.16 145.723 167.853 145.723C167.858 145.723 168.372 145.712 168.88 145.669C169.057 145.653 169.154 145.603 169.176 145.513C169.233 145.278 168.64 144.878 168.485 144.784C168.753 144.552 172.872 144.109 175.957 144.124H176.091C179.169 144.124 183.196 144.559 183.431 144.782C183.279 144.878 182.681 145.277 182.738 145.513C182.76 145.603 182.856 145.653 183.034 145.669C183.54 145.712 184.055 145.723 184.061 145.723C184.754 145.723 185.743 146.013 186.615 146.268C186.614 146.268 186.619 146.27 186.618 146.269C186.737 146.303 186.855 146.336 186.969 146.369C187.079 146.4 187.186 146.431 187.291 146.46C187.422 146.497 187.549 146.532 187.67 146.564L188.021 146.65L187.649 143.564L189.177 141.961L189.414 141.689ZM189.414 141.689L189.177 141.961L187.649 143.564L188.021 146.65L187.67 146.564C187.549 146.532 187.422 146.497 187.291 146.46C187.186 146.431 187.079 146.4 186.969 146.369C186.855 146.336 186.737 146.303 186.618 146.269C186.619 146.27 186.614 146.268 186.615 146.268C185.743 146.013 184.754 145.723 184.061 145.723C184.055 145.723 183.54 145.712 183.034 145.669C182.856 145.653 182.76 145.603 182.738 145.513C182.681 145.277 183.279 144.878 183.431 144.782C183.196 144.559 179.169 144.124 176.091 144.124H175.957C172.872 144.109 168.753 144.552 168.485 144.784C168.64 144.878 169.233 145.278 169.176 145.513C169.154 145.603 169.057 145.653 168.88 145.669C168.372 145.712 167.858 145.723 167.853 145.723C167.16 145.723 166.171 146.013 165.298 146.269C165.297 146.269 165.296 146.269 165.296 146.269L165.279 146.274C164.908 146.384 164.559 146.487 164.242 146.564L163.893 146.65L163.933 146.28L164.265 143.564L162.737 141.962L162.495 141.687L162.895 141.563C162.908 141.56 162.958 141.547 163.037 141.527C163.609 141.38 165.693 140.844 166.446 140.822L166.186 139.657C166.172 139.581 166.196 139.502 166.251 139.445C166.622 139.004 170.566 138 175.957 138C181.415 138 185.221 139.084 185.586 139.575C185.642 139.636 185.667 139.719 185.656 139.8L185.461 140.823C186.321 140.842 188.906 141.535 189.013 141.565L189.414 141.689Z" fill="black"/>
<path d="M184.036 144.525L183.954 144.463C183.632 144.156 179.526 143.664 176.038 143.712C172.544 143.663 168.183 144.23 167.951 144.559L167.914 144.599L167.887 144.493C167.878 144.448 166.93 140.106 166.876 139.878C166.881 139.838 166.899 139.801 166.927 139.772C167.266 139.339 171.252 138.493 176.037 138.493C178.119 138.503 180.196 138.692 182.245 139.059C183.752 139.329 184.833 139.615 185.019 139.851C185.039 139.892 185.044 139.939 185.031 139.983C184.978 140.211 184.139 144.053 184.13 144.096L184.036 144.525Z" fill="#077954"/>
<path d="M184.036 144.525L183.954 144.463C183.632 144.156 179.526 143.664 176.038 143.712C172.544 143.663 168.183 144.23 167.951 144.559L167.914 144.599L167.887 144.493C167.878 144.448 166.93 140.107 166.876 139.878C166.881 139.838 166.899 139.801 166.927 139.772C167.266 139.339 171.252 138.493 176.037 138.493C178.119 138.503 180.196 138.692 182.245 139.059C183.752 139.329 184.833 139.615 185.019 139.851C185.039 139.892 185.044 139.939 185.031 139.983C184.978 140.211 184.139 144.053 184.13 144.096L184.036 144.525ZM184.036 144.525L184.13 144.096C184.139 144.053 184.978 140.211 185.031 139.983C185.044 139.939 185.039 139.892 185.019 139.851C184.833 139.615 183.752 139.329 182.245 139.059C180.196 138.692 178.119 138.503 176.037 138.493C171.252 138.493 167.266 139.339 166.927 139.772C166.899 139.801 166.881 139.838 166.876 139.878C166.93 140.107 167.878 144.448 167.887 144.493L167.914 144.599L167.951 144.559C168.183 144.23 172.544 143.663 176.038 143.712C179.526 143.664 183.632 144.156 183.954 144.463L184.036 144.525Z" fill="black"/>
<path d="M167.43 145.044L166.547 141.256H166.528C165.849 141.256 163.35 141.918 163.35 141.918L164.771 143.401L164.466 146.018C164.466 146.018 165.323 145.798 165.719 145.691C166.169 145.567 166.593 145.451 166.959 145.374C167.186 145.327 167.417 145.296 167.649 145.284L167.832 145.271L167.75 145.225L167.43 145.044Z" fill="#077954"/>
<path d="M167.43 145.044L166.547 141.256H166.528C165.849 141.256 163.35 141.918 163.35 141.918L164.771 143.401L164.466 146.018C164.466 146.018 165.323 145.798 165.719 145.691C166.169 145.567 166.593 145.451 166.959 145.374C167.186 145.327 167.417 145.296 167.649 145.284L167.832 145.271L167.75 145.225L167.43 145.044ZM167.43 145.044L167.75 145.225L167.832 145.271L167.649 145.284C167.417 145.296 167.186 145.327 166.959 145.374C166.593 145.451 166.169 145.567 165.719 145.691C165.323 145.798 164.466 146.018 164.466 146.018L164.771 143.401L163.35 141.918C163.35 141.918 165.849 141.256 166.528 141.256H166.547L167.43 145.044Z" fill="black"/>
<path d="M184.47 145.116L185.353 141.327H185.373C186.052 141.327 188.55 141.991 188.55 141.991L187.129 143.466L187.435 146.084C187.435 146.084 186.577 145.864 186.181 145.757C185.731 145.634 185.307 145.518 184.942 145.439C184.714 145.391 184.483 145.361 184.25 145.349L184.068 145.336L184.151 145.29L184.47 145.116Z" fill="#077954"/>
<path d="M184.47 145.116L185.353 141.327H185.373C186.052 141.327 188.55 141.991 188.55 141.991L187.129 143.466L187.435 146.084C187.435 146.084 186.577 145.864 186.181 145.757L186.172 145.755C185.726 145.632 185.304 145.517 184.942 145.439C184.714 145.391 184.483 145.361 184.25 145.349L184.068 145.336L184.151 145.29L184.47 145.116ZM184.47 145.116L184.151 145.29L184.068 145.336L184.25 145.349C184.483 145.361 184.714 145.391 184.942 145.439C185.304 145.517 185.726 145.632 186.172 145.755L186.181 145.757C186.577 145.864 187.435 146.084 187.435 146.084L187.129 143.466L188.55 141.991C188.55 141.991 186.052 141.327 185.373 141.327H185.353L184.47 145.116Z" fill="black"/>
<path d="M150.007 157.633L149.855 157.651C149.862 158.683 149.869 159.714 149.877 160.747L147.712 160.756V152.57C148.463 152.293 149.217 152.027 149.975 151.772C151.775 151.151 152.897 151.779 152.927 154.065C152.957 156.329 151.839 157.44 150.007 157.633ZM150.122 153.728L149.829 153.804C149.832 154.517 149.838 155.228 149.843 155.94L150.138 155.885C150.674 155.786 150.904 155.206 150.898 154.562C150.892 153.918 150.658 153.586 150.122 153.728Z" fill="#DF2A27"/>
<path d="M150.007 157.633L149.855 157.651C149.862 158.683 149.869 159.714 149.877 160.747L147.712 160.756V152.57C148.463 152.293 149.218 152.027 149.975 151.772C151.34 151.301 152.315 151.548 152.72 152.692C152.849 153.057 152.92 153.513 152.927 154.065C152.957 156.329 151.839 157.44 150.007 157.633ZM150.007 157.633C151.839 157.44 152.957 156.329 152.927 154.065C152.92 153.513 152.849 153.057 152.72 152.692C152.315 151.548 151.34 151.301 149.975 151.772C149.218 152.027 148.463 152.293 147.712 152.57V160.756L149.877 160.747C149.869 159.714 149.862 158.683 149.855 157.651L150.007 157.633ZM150.122 153.728L149.829 153.804V153.804C149.832 154.517 149.838 155.228 149.843 155.94L150.138 155.885C150.674 155.786 150.904 155.206 150.898 154.562C150.893 154.014 150.723 153.692 150.342 153.696C150.275 153.696 150.202 153.707 150.122 153.728ZM150.122 153.728C150.202 153.707 150.275 153.696 150.342 153.696C150.723 153.692 150.893 154.014 150.898 154.562C150.904 155.206 150.674 155.786 150.138 155.885L149.843 155.94C149.838 155.228 149.832 154.517 149.829 153.804V153.804L150.122 153.728Z" fill="black"/>
<path d="M161.311 156.584L161.115 156.598V160.713L158.891 160.713L158.874 149.268C158.874 149.268 160.429 148.95 161.21 148.81C163.064 148.466 164.482 149.455 164.516 152.304C164.548 155.122 163.145 156.395 161.311 156.584ZM161.38 151.3C161.282 151.314 161.12 151.346 161.12 151.346C161.12 151.346 161.11 153.252 161.12 154.197C162.115 154.113 162.337 153.667 162.337 152.521C162.342 151.619 161.926 151.223 161.38 151.3Z" fill="#DF2A27"/>
<path d="M161.311 156.584L161.115 156.598V160.713L158.891 160.713L158.874 149.268C158.874 149.268 160.429 148.95 161.21 148.81C162.78 148.518 164.037 149.183 164.406 151.124C164.473 151.475 164.511 151.868 164.516 152.304C164.548 155.122 163.145 156.395 161.311 156.584ZM161.311 156.584C163.145 156.395 164.548 155.122 164.516 152.304C164.511 151.868 164.473 151.475 164.406 151.124C164.037 149.183 162.78 148.518 161.21 148.81C160.429 148.95 158.874 149.268 158.874 149.268L158.891 160.713L161.115 160.713V156.598L161.311 156.584ZM161.38 151.3C161.282 151.314 161.12 151.346 161.12 151.346C161.12 151.346 161.116 152.194 161.116 153.038C161.116 153.46 161.117 153.882 161.12 154.197C162.115 154.113 162.337 153.667 162.337 152.521C162.342 151.695 161.993 151.293 161.515 151.291C161.471 151.291 161.426 151.294 161.38 151.3ZM161.38 151.3C161.426 151.294 161.471 151.291 161.515 151.291C161.993 151.293 162.342 151.695 162.337 152.521C162.337 153.667 162.115 154.113 161.12 154.197C161.117 153.882 161.116 153.46 161.116 153.038C161.116 152.194 161.12 151.346 161.12 151.346C161.12 151.346 161.282 151.314 161.38 151.3Z" fill="black"/>
<path d="M199.286 152.806C198.993 152.753 198.699 152.7 198.403 152.648C198.475 151.943 198.568 151.213 198.64 150.518C199.025 150.624 199.416 150.751 199.798 150.864C199.638 151.494 199.448 152.146 199.286 152.806Z" fill="#DF2A27"/>
<path d="M199.286 152.806C198.993 152.753 198.699 152.7 198.403 152.648C198.44 152.289 198.482 151.923 198.524 151.558C198.564 151.209 198.605 150.858 198.64 150.518C198.881 150.584 199.125 150.659 199.368 150.734C199.512 150.778 199.655 150.822 199.798 150.864C199.727 151.143 199.65 151.427 199.573 151.713C199.494 152.005 199.413 152.302 199.338 152.601C199.32 152.669 199.303 152.737 199.286 152.806ZM199.286 152.806C199.303 152.737 199.32 152.669 199.338 152.601C199.413 152.302 199.494 152.005 199.573 151.713C199.65 151.427 199.727 151.143 199.798 150.864C199.655 150.822 199.512 150.778 199.368 150.734C199.125 150.659 198.881 150.584 198.64 150.518C198.605 150.858 198.564 151.209 198.524 151.558C198.482 151.923 198.44 152.289 198.403 152.648C198.699 152.7 198.993 152.753 199.286 152.806Z" fill="black"/>
<path d="M198.039 159.691C198.039 159.257 198.039 158.828 198.039 158.405V150.357L197.982 150.342C197.326 150.174 196.91 150.066 196.223 149.893L196.201 149.887C196.201 150.029 196.201 150.168 196.201 150.304V155.343C195.648 153.289 195.034 151.613 194.403 149.498C194.368 149.498 194.332 149.49 194.296 149.484L192.324 149.067V155.851C192.299 157.428 192.275 159.021 192.25 160.704L194.363 160.704V154.957C194.899 156.93 195.601 158.851 196.117 160.711L198.039 160.71V159.691Z" fill="#DF2A27"/>
<path d="M198.039 159.691V150.357L197.982 150.342L197.647 150.256L197.367 150.184C197.006 150.091 196.673 150.006 196.223 149.893L196.201 149.887V150.304V155.343C195.871 154.118 195.52 153.028 195.156 151.899C194.91 151.134 194.658 150.353 194.403 149.498C194.377 149.498 194.35 149.493 194.323 149.489C194.314 149.487 194.305 149.486 194.296 149.484L192.324 149.067V155.851L192.324 155.898L192.317 156.282L192.312 156.667C192.291 157.976 192.271 159.313 192.25 160.704L194.363 160.704V154.957C194.644 155.993 194.971 157.014 195.293 158.02C195.585 158.93 195.872 159.827 196.117 160.711L198.039 160.71V159.691ZM198.039 159.691V160.71L196.117 160.711C195.872 159.827 195.585 158.93 195.293 158.02C194.971 157.014 194.644 155.993 194.363 154.957V160.704L192.25 160.704C192.271 159.313 192.291 157.976 192.312 156.667L192.317 156.282L192.324 155.898L192.324 155.851V149.067L194.296 149.484C194.305 149.486 194.314 149.487 194.323 149.489C194.35 149.493 194.377 149.498 194.403 149.498C194.658 150.353 194.91 151.134 195.156 151.899C195.52 153.028 195.871 154.118 196.201 155.343V150.304V149.887L196.223 149.893C196.673 150.006 197.006 150.091 197.367 150.184L197.647 150.256L197.982 150.342L198.039 150.357V159.691Z" fill="black"/>
<path d="M191.587 148.944L191.537 148.937C190.787 148.809 189.346 148.593 189.346 148.593V153.121H187.707V148.811C187.707 148.666 187.707 148.527 187.707 148.399L187.427 148.362L185.663 148.122L185.386 148.084V148.215C185.365 150.412 185.374 152.451 185.386 154.435V160.694H187.704V156.044H189.347V160.694H191.586L191.587 148.944Z" fill="#DF2A27"/>
<path d="M191.587 148.944L191.537 148.937C190.787 148.809 189.346 148.593 189.346 148.593V153.121H187.707V148.399L187.427 148.362L185.663 148.122L185.386 148.084V148.215C185.365 150.413 185.374 152.45 185.386 154.435V160.694H187.704V156.044H189.347V160.694H191.586L191.587 148.944ZM191.587 148.944L191.586 160.694H189.347V156.044H187.704V160.694H185.386V154.435C185.374 152.45 185.365 150.413 185.386 148.215V148.084L185.663 148.122L187.427 148.362L187.707 148.399V153.121H189.346V148.593C189.346 148.593 190.787 148.809 191.537 148.937L191.587 148.944Z" fill="black"/>
<path d="M202.25 154.905C201.898 154.535 201.691 154.224 201.691 153.965C201.691 153.679 201.798 153.429 202.128 153.446C202.516 153.468 202.578 153.947 202.597 154.264C202.597 154.335 202.607 154.407 202.611 154.475H204.563C204.503 152.781 203.875 151.739 202.37 151.441C200.937 151.157 199.562 151.795 199.539 153.559C199.525 154.645 200.012 155.617 200.825 156.407C201.194 156.77 201.563 157.123 201.933 157.466C202.287 157.792 202.469 158.021 202.463 158.26C202.463 158.552 202.303 158.789 201.975 158.789C201.58 158.789 201.405 158.394 201.388 158.062C201.382 157.929 201.376 157.778 201.375 157.632H199.413C199.413 157.729 199.413 157.825 199.413 157.921C199.39 159.716 200.409 160.837 201.897 160.837C203.636 160.837 204.603 159.751 204.6 158.295C204.6 157.434 204.099 156.77 203.334 156.005C202.972 155.65 202.61 155.284 202.25 154.905Z" fill="#DF2A27"/>
<path d="M202.25 154.905C201.898 154.535 201.691 154.224 201.691 153.965C201.691 153.689 201.791 153.445 202.096 153.445C202.106 153.445 202.117 153.446 202.128 153.446C202.516 153.468 202.579 153.947 202.597 154.264C202.597 154.312 202.601 154.361 202.606 154.408C202.608 154.431 202.61 154.453 202.611 154.475H204.563C204.503 152.781 203.875 151.739 202.37 151.441C201.097 151.188 199.869 151.664 199.595 153.011C199.561 153.18 199.542 153.362 199.539 153.559C199.526 154.645 200.012 155.617 200.825 156.407C201.194 156.77 201.564 157.123 201.933 157.466C202.287 157.792 202.469 158.021 202.463 158.26C202.463 158.552 202.304 158.789 201.975 158.789C201.58 158.789 201.405 158.394 201.388 158.062C201.382 157.928 201.377 157.778 201.375 157.632H199.414V157.921C199.391 159.7 200.391 160.818 201.86 160.837C201.872 160.837 201.885 160.837 201.897 160.837C203.634 160.837 204.6 159.755 204.6 158.303C204.6 158.299 204.6 158.298 204.6 158.295C204.6 157.434 204.099 156.77 203.335 156.005C202.972 155.65 202.61 155.284 202.25 154.905ZM202.25 154.905C202.61 155.284 202.972 155.65 203.335 156.005C204.099 156.77 204.6 157.434 204.6 158.295C204.6 158.298 204.6 158.299 204.6 158.303C204.6 159.755 203.634 160.837 201.897 160.837C201.885 160.837 201.872 160.837 201.86 160.837C200.391 160.818 199.391 159.7 199.414 157.921V157.632H201.375C201.377 157.778 201.382 157.928 201.388 158.062C201.405 158.394 201.58 158.789 201.975 158.789C202.304 158.789 202.463 158.552 202.463 158.26C202.469 158.021 202.287 157.792 201.933 157.466C201.564 157.123 201.194 156.77 200.825 156.407C200.012 155.617 199.526 154.645 199.539 153.559C199.542 153.362 199.561 153.18 199.595 153.011C199.869 151.664 201.097 151.188 202.37 151.441C203.875 151.739 204.503 152.781 204.563 154.475H202.611C202.61 154.453 202.608 154.431 202.606 154.408C202.601 154.361 202.597 154.312 202.597 154.264C202.579 153.947 202.516 153.468 202.128 153.446C202.117 153.446 202.106 153.445 202.096 153.445C201.791 153.445 201.691 153.689 201.691 153.965C201.691 154.224 201.898 154.535 202.25 154.905Z" fill="black"/>
<path d="M156.51 149.783C155.737 149.969 154.967 150.166 154.199 150.375C153.637 153.994 153.07 157.454 152.492 160.736L154.658 160.73C154.699 160.315 154.783 159.478 154.783 159.478H156.062C156.062 159.478 156.169 160.295 156.22 160.724H158.457C157.807 156.941 157.159 153.294 156.51 149.783ZM154.973 157.542C154.973 157.542 155.226 155.001 155.344 153.73L155.367 153.73C155.516 154.955 155.851 157.542 155.851 157.542H154.973Z" fill="#DF2A27"/>
<path d="M156.51 149.783C155.737 149.969 154.967 150.166 154.199 150.375C153.637 153.994 153.07 157.454 152.492 160.736L154.658 160.73C154.699 160.314 154.783 159.478 154.783 159.478H156.062C156.062 159.479 156.062 159.477 156.062 159.479C156.066 159.507 156.17 160.302 156.22 160.724H158.457C157.807 156.941 157.159 153.294 156.51 149.783ZM156.51 149.783C157.159 153.294 157.807 156.941 158.457 160.724H156.22C156.17 160.302 156.066 159.507 156.062 159.479C156.062 159.477 156.062 159.479 156.062 159.478H154.783C154.783 159.478 154.699 160.314 154.658 160.73L152.492 160.736C153.07 157.454 153.637 153.994 154.199 150.375C154.967 150.166 155.737 149.969 156.51 149.783ZM154.973 157.542C154.973 157.542 155.226 155.001 155.344 153.73L155.367 153.73C155.516 154.956 155.851 157.542 155.851 157.542H154.973ZM154.973 157.542H155.851C155.851 157.542 155.516 154.956 155.367 153.73L155.344 153.73C155.226 155.001 154.973 157.542 154.973 157.542Z" fill="black"/>
<path d="M168.806 147.926C167.991 148.014 166.614 148.148 165.784 148.235C165.177 152.512 164.58 156.587 163.986 160.707L166.409 160.707L166.541 159.199H168.142C168.142 159.199 168.249 160.199 168.306 160.708H170.771C170.122 156.368 169.479 152.155 168.806 147.926ZM166.79 156.897L167.313 152.296H167.354L167.978 156.892L166.79 156.897Z" fill="#DF2A27"/>
<path d="M168.806 147.926C168.342 147.976 167.696 148.041 167.073 148.104C166.601 148.151 166.141 148.197 165.784 148.235C165.38 151.089 164.979 153.847 164.581 156.594C164.382 157.967 164.184 159.333 163.986 160.707L166.409 160.707L166.541 159.199H168.142C168.142 159.199 168.249 160.199 168.306 160.708H170.771C170.122 156.368 169.479 152.155 168.806 147.926ZM168.806 147.926C169.479 152.155 170.122 156.368 170.771 160.708H168.306C168.249 160.199 168.142 159.199 168.142 159.199H166.541L166.409 160.707L163.986 160.707C164.184 159.333 164.382 157.967 164.581 156.594C164.979 153.847 165.38 151.089 165.784 148.235C166.141 148.197 166.601 148.151 167.073 148.104C167.696 148.041 168.342 147.976 168.806 147.926ZM166.79 156.897L167.313 152.296H167.354L167.978 156.892L166.79 156.897ZM166.79 156.897L167.978 156.892L167.354 152.296H167.313L166.79 156.897Z" fill="black"/>
<path d="M181.539 147.68C179.784 147.619 178.41 149.007 178.404 151.414C178.397 153.273 178.391 155.132 178.386 156.99C178.378 159.378 179.829 160.851 181.553 160.847C183.276 160.844 184.59 159.307 184.615 156.984C184.634 155.17 184.639 153.454 184.659 151.64C184.683 149.298 183.532 147.748 181.539 147.68ZM182.109 157.707C182.109 158 181.869 158.237 181.573 158.237L181.476 158.237C181.18 158.237 180.94 158 180.94 157.707V150.814C180.94 150.521 181.18 150.284 181.476 150.284H181.573C181.869 150.284 182.109 150.521 182.109 150.813V157.707Z" fill="#DF2A27"/>
<path d="M181.539 147.68C179.834 147.621 178.489 148.929 178.408 151.211C178.405 151.278 178.404 151.345 178.404 151.414L178.386 156.99C178.378 159.372 179.821 160.842 181.538 160.847C181.543 160.847 181.548 160.847 181.553 160.847C183.276 160.844 184.59 159.307 184.615 156.984C184.625 156.077 184.631 155.195 184.637 154.312C184.643 153.429 184.649 152.548 184.659 151.641V151.64C184.683 149.298 183.532 147.748 181.539 147.68ZM181.539 147.68C183.532 147.748 184.683 149.298 184.659 151.64V151.641C184.649 152.548 184.643 153.429 184.637 154.312C184.631 155.195 184.625 156.077 184.615 156.984C184.59 159.307 183.276 160.844 181.553 160.847C181.548 160.847 181.543 160.847 181.538 160.847C179.821 160.842 178.378 159.372 178.386 156.99L178.404 151.414C178.404 151.345 178.405 151.278 178.408 151.211C178.489 148.929 179.834 147.621 181.539 147.68ZM182.109 157.707C182.109 158 181.869 158.237 181.573 158.237L181.476 158.237C181.18 158.237 180.94 158 180.94 157.707V150.814C180.94 150.521 181.18 150.284 181.476 150.284H181.573C181.869 150.284 182.109 150.521 182.109 150.814V157.707ZM182.109 157.707V150.814C182.109 150.521 181.869 150.284 181.573 150.284H181.476C181.18 150.284 180.94 150.521 180.94 150.814V157.707C180.94 158 181.18 158.237 181.476 158.237L181.573 158.237C181.869 158.237 182.109 158 182.109 157.707Z" fill="black"/>
<path d="M175.358 147.637V157.956C175.358 158.142 175.222 158.302 175.036 158.335C175.027 158.335 175.017 158.335 175.007 158.335H174.944C174.73 158.334 174.556 158.162 174.556 157.951V156.643C173.894 156.643 173.073 156.655 172.412 156.664C172.412 156.982 172.412 157.717 172.412 158.032C172.412 159.68 173.432 160.814 174.956 160.814C175.086 160.813 175.216 160.805 175.345 160.788C177.013 160.669 177.703 159.575 177.703 157.104L177.719 147.641L175.358 147.637Z" fill="#DF2A27"/>
<path d="M175.358 147.637V157.956C175.358 158.142 175.222 158.302 175.036 158.335C175.027 158.335 175.017 158.335 175.007 158.335H174.944C174.73 158.334 174.556 158.162 174.556 157.951V156.643C173.894 156.643 173.073 156.655 172.412 156.664V158.032C172.412 159.68 173.432 160.814 174.956 160.814C175.086 160.813 175.216 160.805 175.345 160.788C177.013 160.669 177.703 159.575 177.703 157.104L177.719 147.641L175.358 147.637ZM175.358 147.637L177.719 147.641L177.703 157.104C177.703 159.575 177.013 160.669 175.345 160.788C175.216 160.805 175.086 160.813 174.956 160.814C173.432 160.814 172.412 159.68 172.412 158.032V156.664C173.073 156.655 173.894 156.643 174.556 156.643V157.951C174.556 158.162 174.73 158.334 174.944 158.335H175.007C175.017 158.335 175.027 158.335 175.036 158.335C175.222 158.302 175.358 158.142 175.358 157.956V147.637Z" fill="black"/>
<path d="M170.412 143.123L170.006 139.876L170.979 139.758C171.635 139.678 172.146 139.955 172.222 140.571C172.299 141.187 171.872 141.616 171.216 141.697L170.96 141.727L171.124 143.036L170.412 143.123ZM171.147 141.133C171.39 141.113 171.561 140.889 171.515 140.653C171.485 140.409 171.301 140.296 171.047 140.326L170.792 140.357L170.892 141.164L171.147 141.133Z" fill="white"/>
<path d="M170.412 143.123L170.006 139.876L170.979 139.758C171.635 139.678 172.146 139.955 172.222 140.571C172.299 141.187 171.872 141.616 171.216 141.697L170.96 141.727L171.124 143.036L170.412 143.123ZM170.412 143.123L171.124 143.036L170.96 141.727L171.216 141.697C171.872 141.616 172.299 141.187 172.222 140.571C172.146 139.955 171.635 139.678 170.979 139.758L170.006 139.876L170.412 143.123ZM171.147 141.133C171.376 141.114 171.54 140.915 171.521 140.696C171.52 140.681 171.518 140.667 171.515 140.653C171.485 140.409 171.301 140.296 171.047 140.326L170.792 140.357L170.892 141.164L171.147 141.133ZM171.147 141.133L170.892 141.164L170.792 140.357L171.047 140.326C171.301 140.296 171.485 140.409 171.515 140.653C171.518 140.667 171.52 140.681 171.521 140.696C171.54 140.915 171.376 141.114 171.147 141.133Z" fill="black"/>
<path d="M172.896 142.822L172.701 139.555L173.421 139.514L173.614 142.779L172.896 142.822Z" fill="white"/>
<path d="M172.896 142.822L172.701 139.555L173.421 139.514L173.614 142.779L172.896 142.822ZM172.896 142.822L173.614 142.779L173.421 139.514L172.701 139.555L172.896 142.822Z" fill="black"/>
<path d="M174.347 142.729L174.341 142.244L175.533 140.027L174.354 140.041L174.347 139.458L176.359 139.435L176.365 139.883L175.159 142.138L176.426 142.123L176.433 142.706L174.347 142.729Z" fill="white"/>
<path d="M174.347 142.729L174.341 142.244L175.533 140.027L174.354 140.041L174.347 139.458L176.359 139.435L176.365 139.883L175.159 142.138L176.426 142.123L176.433 142.706L174.347 142.729ZM174.347 142.729L176.433 142.706L176.426 142.123L175.159 142.138L176.365 139.883L176.359 139.435L174.347 139.458L174.354 140.041L175.533 140.027L174.341 142.244L174.347 142.729Z" fill="black"/>
<path d="M177.069 142.698L177.093 142.213L178.422 140.072L177.248 140.012L177.277 139.431L179.288 139.53L179.265 139.977L177.919 142.155L179.183 142.218L179.155 142.799L177.069 142.698Z" fill="white"/>
<path d="M177.069 142.698L177.093 142.213L178.422 140.072L177.248 140.012L177.277 139.431L179.288 139.53L179.265 139.977L177.919 142.155L179.183 142.218L179.155 142.799L177.069 142.698ZM177.069 142.698L179.155 142.799L179.183 142.218L177.919 142.155L179.265 139.977L179.288 139.53L177.277 139.431L177.248 140.012L178.422 140.072L177.093 142.213L177.069 142.698Z" fill="black"/>
<path d="M181.248 143.055L181.224 142.65L180.559 142.565L180.433 142.953L179.719 142.863L180.937 139.718L181.656 139.809L181.994 143.149L181.248 143.055ZM181.151 140.832H181.139L180.732 142.058L181.211 142.118L181.151 140.832Z" fill="white"/>
<path d="M181.248 143.055L181.224 142.65L180.559 142.565L180.433 142.953L179.719 142.863L180.937 139.718L181.656 139.809L181.994 143.149L181.248 143.055ZM181.248 143.055L181.994 143.149L181.656 139.809L180.937 139.718L179.719 142.863L180.433 142.953L180.559 142.565L181.224 142.65L181.248 143.055ZM181.151 140.832H181.139L180.732 142.058L181.211 142.118L181.151 140.832ZM181.151 140.832L181.211 142.118L180.732 142.058L181.139 140.832H181.151Z" fill="black"/>
</g>
<circle cx="27.5" cy="38.5" r="1.5" fill="#FF4D00"/>
<path d="M26.5 41C24.5 48.6 27.6666 54.8333 29.5 57" stroke="#0028BF" stroke-width="2"/>
<path d="M21.9999 2.5C10.9999 28 34.9999 17.5 28.4999 36" stroke="#0028BF" stroke-width="2"/>
<circle cx="27.5" cy="38.5" r="1.5" fill="#FF4D00"/>
<path d="M26.6394 41C24.6394 48.6 27.806 54.8333 29.6394 57" stroke="#0028BF" stroke-width="2"/>
<path d="M43.3366 3C49.5837 28.1194 35.9538 17.7761 39.6452 36" stroke="#0028BF" stroke-width="2"/>
<circle r="1.5" transform="matrix(-1 0 0 1 41.5 38.5)" fill="#FFB800"/>
<path d="M41.6486 41C42.7477 49.075 41.0075 55.6979 40 58" stroke="#0028BF" stroke-width="2"/>
<path d="M13.3861 3C8.18026 28.8806 19.5385 18.2239 16.4623 37" stroke="#0028BF" stroke-width="2"/>
<circle cx="15.5" cy="39.5" r="1.5" fill="#FFB800"/>
<path d="M15.3514 42C14.2523 49.6 15.9925 55.8333 17 58" stroke="#0028BF" stroke-width="2"/>
<path d="M63.9999 2C52.9999 27.5 76.9999 17 70.4999 35.5" stroke="#0028BF" stroke-width="2"/>
<circle cx="69.5" cy="38" r="1.5" fill="#FF4D00"/>
<path d="M68.6394 40.5C66.6394 48.1 69.806 54.3333 71.6394 56.5" stroke="#0028BF" stroke-width="2"/>
<path d="M85.3366 2.5C91.5837 27.6194 77.9538 17.2761 81.6452 35.5" stroke="#0028BF" stroke-width="2"/>
<circle r="1.5" transform="matrix(-1 0 0 1 83.5 38)" fill="#FFB800"/>
<path d="M83.6486 40.5C84.7477 48.575 83.0075 55.1979 82 57.5" stroke="#0028BF" stroke-width="2"/>
<path d="M55.3861 2.5C50.1803 28.3806 61.5385 17.7239 58.4623 36.5" stroke="#0028BF" stroke-width="2"/>
<circle cx="57.5" cy="39" r="1.5" fill="#FFB800"/>
<path d="M57.3514 41.5C56.2523 49.1 57.9925 55.3333 59 57.5" stroke="#0028BF" stroke-width="2"/>
<path d="M101 3C89.9999 28.5 114 18 107.5 36.5" stroke="#0028BF" stroke-width="2"/>
<circle cx="106.5" cy="39" r="1.5" fill="#FF4D00"/>
<path d="M105.639 41.5C103.639 49.1 106.806 55.3333 108.639 57.5" stroke="#0028BF" stroke-width="2"/>
<path d="M122.337 3.5C128.584 28.6194 114.954 18.2761 118.645 36.5" stroke="#0028BF" stroke-width="2"/>
<circle r="1.5" transform="matrix(-1 0 0 1 120.5 39)" fill="#FFB800"/>
<path d="M120.649 41.5C121.748 49.575 120.008 56.1979 119 58.5" stroke="#0028BF" stroke-width="2"/>
<path d="M92.3861 3.5C87.1803 29.3806 98.5385 18.7239 95.4623 37.5" stroke="#0028BF" stroke-width="2"/>
<circle cx="94.5" cy="40" r="1.5" fill="#FFB800"/>
<path d="M94.3514 42.5C93.2523 50.1 94.9925 56.3333 96 58.5" stroke="#0028BF" stroke-width="2"/>
<path d="M143 3C132 28.5 156 18 149.5 36.5" stroke="#0028BF" stroke-width="2"/>
<circle cx="148.5" cy="39" r="1.5" fill="#FF4D00"/>
<path d="M147.639 41.5C145.639 49.1 148.806 55.3333 150.639 57.5" stroke="#0028BF" stroke-width="2"/>
<path d="M164.337 3.5C170.584 28.6194 156.954 18.2761 160.645 36.5" stroke="#0028BF" stroke-width="2"/>
<circle r="1.5" transform="matrix(-1 0 0 1 162.5 39)" fill="#FFB800"/>
<path d="M162.649 41.5C163.748 49.575 162.008 56.1979 161 58.5" stroke="#0028BF" stroke-width="2"/>
<path d="M134.386 3.5C129.18 29.3806 140.539 18.7239 137.462 37.5" stroke="#0028BF" stroke-width="2"/>
<circle cx="136.5" cy="40" r="1.5" fill="#FFB800"/>
<path d="M136.351 42.5C135.252 50.1 136.992 56.3333 138 58.5" stroke="#0028BF" stroke-width="2"/>
<path d="M187 3C176 28.5 200 18 193.5 36.5" stroke="#0028BF" stroke-width="2"/>
<circle cx="192.5" cy="39" r="1.5" fill="#FF4D00"/>
<path d="M191.639 41.5C189.639 49.1 192.806 55.3333 194.639 57.5" stroke="#0028BF" stroke-width="2"/>
<path d="M208.337 3.5C214.584 28.6194 200.954 18.2761 204.645 36.5" stroke="#0028BF" stroke-width="2"/>
<circle r="1.5" transform="matrix(-1 0 0 1 206.5 39)" fill="#FFB800"/>
<path d="M206.649 41.5C207.748 49.575 206.008 56.1979 205 58.5" stroke="#0028BF" stroke-width="2"/>
<path d="M178.386 3.5C173.18 29.3806 184.539 18.7239 181.462 37.5" stroke="#0028BF" stroke-width="2"/>
<circle cx="180.5" cy="40" r="1.5" fill="#FFB800"/>
<path d="M180.351 42.5C179.252 50.1 180.992 56.3333 182 58.5" stroke="#0028BF" stroke-width="2"/>
<path d="M231 3C220 28.5 244 18 237.5 36.5" stroke="#0028BF" stroke-width="2"/>
<circle cx="236.5" cy="39" r="1.5" fill="#FF4D00"/>
<path d="M235.639 41.5C233.639 49.1 236.806 55.3333 238.639 57.5" stroke="#0028BF" stroke-width="2"/>
<path d="M252.337 3.5C258.584 28.6194 244.954 18.2761 248.645 36.5" stroke="#0028BF" stroke-width="2"/>
<circle r="1.5" transform="matrix(-1 0 0 1 250.5 39)" fill="#FFB800"/>
<path d="M250.649 41.5C251.748 49.575 250.008 56.1979 249 58.5" stroke="#0028BF" stroke-width="2"/>
<path d="M222.386 3.5C217.18 29.3806 228.539 18.7239 225.462 37.5" stroke="#0028BF" stroke-width="2"/>
<circle cx="224.5" cy="40" r="1.5" fill="#FFB800"/>
<path d="M224.351 42.5C223.252 50.1 224.992 56.3333 226 58.5" stroke="#0028BF" stroke-width="2"/>
<path d="M5.33664 2.5C11.5837 27.6194 -2.04624 17.2761 1.6452 35.5" stroke="#0028BF" stroke-width="2"/>
<circle r="1.5" transform="matrix(-1 0 0 1 2.5 39)" fill="#FFB800"/>
<path d="M319 1C308 26.5 332 16 325.5 34.5" stroke="#0028BF" stroke-width="2"/>
<path d="M310.386 1.5C305.18 27.3806 316.539 16.7239 313.462 35.5" stroke="#0028BF" stroke-width="2"/>
<circle cx="312.5" cy="38" r="1.5" fill="#FFB800"/>
<path d="M312.351 40.5C311.252 48.1 312.992 54.3333 314 56.5" stroke="#0028BF" stroke-width="2"/>
<path d="M275 3C264 28.5 288 18 281.5 36.5" stroke="#0028BF" stroke-width="2"/>
<circle cx="280.5" cy="39" r="1.5" fill="#FF4D00"/>
<path d="M279.639 41.5C277.639 49.1 280.806 55.3333 282.639 57.5" stroke="#0028BF" stroke-width="2"/>
<path d="M296.337 3.5C302.584 28.6194 288.954 18.2761 292.645 36.5" stroke="#0028BF" stroke-width="2"/>
<circle r="1.5" transform="matrix(-1 0 0 1 294.5 39)" fill="#FFB800"/>
<path d="M294.649 41.5C295.748 49.575 294.008 56.1979 293 58.5" stroke="#0028BF" stroke-width="2"/>
<path d="M266.386 3.5C261.18 29.3806 272.539 18.7239 269.462 37.5" stroke="#0028BF" stroke-width="2"/>
<circle cx="268.5" cy="40" r="1.5" fill="#FFB800"/>
<path d="M268.351 42.5C267.252 50.1 268.992 56.3333 270 58.5" stroke="#0028BF" stroke-width="2"/>
<path d="M99.3462 123.62H103.056C104.596 123.62 105.838 124.054 106.78 124.922C107.723 125.781 108.194 126.91 108.194 128.31C108.194 129.71 107.723 130.844 106.78 131.712C105.838 132.571 104.596 133 103.056 133H99.3462V123.62ZM101.656 130.998H102.972C103.85 130.998 104.55 130.755 105.072 130.27C105.604 129.775 105.87 129.122 105.87 128.31C105.87 127.498 105.604 126.849 105.072 126.364C104.55 125.869 103.85 125.622 102.972 125.622H101.656V130.998ZM123.307 131.012V133H115.999V123.62H123.265V125.608H118.309V127.372H122.859V129.248H118.309V131.012H123.307ZM134.938 123.41C135.965 123.41 136.824 123.653 137.514 124.138C138.205 124.614 138.639 125.277 138.816 126.126L136.548 126.588C136.464 126.168 136.268 125.846 135.96 125.622C135.652 125.389 135.302 125.272 134.91 125.272C134.537 125.272 134.234 125.365 134 125.552C133.767 125.729 133.65 125.953 133.65 126.224C133.65 126.635 133.902 126.896 134.406 127.008L136.352 127.442C138.07 127.825 138.928 128.735 138.928 130.172C138.928 131.133 138.56 131.88 137.822 132.412C137.085 132.944 136.166 133.21 135.064 133.21C133.972 133.21 133.044 132.963 132.278 132.468C131.522 131.964 131.084 131.264 130.962 130.368L133.342 129.906C133.566 130.83 134.182 131.292 135.19 131.292C135.62 131.292 135.956 131.203 136.198 131.026C136.45 130.849 136.576 130.615 136.576 130.326C136.576 130.102 136.511 129.925 136.38 129.794C136.259 129.663 136.035 129.565 135.708 129.5L133.748 129.08C132.068 128.697 131.228 127.792 131.228 126.364C131.228 125.459 131.569 124.74 132.25 124.208C132.932 123.676 133.828 123.41 134.938 123.41ZM153.941 129.038L156.209 129.486C155.994 130.643 155.458 131.553 154.599 132.216C153.74 132.879 152.7 133.21 151.477 133.21C150.086 133.21 148.906 132.739 147.935 131.796C146.974 130.853 146.493 129.691 146.493 128.31C146.493 126.938 146.974 125.781 147.935 124.838C148.906 123.886 150.086 123.41 151.477 123.41C152.653 123.41 153.675 123.737 154.543 124.39C155.42 125.043 155.971 125.916 156.195 127.008L153.927 127.54C153.787 126.877 153.498 126.378 153.059 126.042C152.63 125.697 152.102 125.524 151.477 125.524C150.73 125.524 150.096 125.79 149.573 126.322C149.06 126.854 148.803 127.517 148.803 128.31C148.803 129.103 149.06 129.771 149.573 130.312C150.096 130.844 150.73 131.11 151.477 131.11C152.093 131.11 152.616 130.937 153.045 130.592C153.484 130.237 153.782 129.719 153.941 129.038ZM172.4 123.62V128.772C172.4 130.116 172.017 131.194 171.252 132.006C170.496 132.809 169.493 133.21 168.242 133.21C166.963 133.21 165.932 132.809 165.148 132.006C164.373 131.194 163.986 130.116 163.986 128.772V123.62H166.296V128.772C166.296 129.481 166.473 130.046 166.828 130.466C167.183 130.877 167.654 131.082 168.242 131.082C168.802 131.082 169.25 130.877 169.586 130.466C169.922 130.046 170.09 129.481 170.09 128.772V123.62H172.4ZM187.81 131.012V133H180.502V123.62H187.768V125.608H182.812V127.372H187.362V129.248H182.812V131.012H187.81ZM204.72 123.62V133H202.816L198.07 127.568V133H195.76V123.62H197.678L202.424 129.22V123.62H204.72ZM220.704 125.636H217.666V133H215.37V125.636H212.332V123.62H220.704V125.636ZM229.419 124.838C230.39 123.886 231.575 123.41 232.975 123.41C234.375 123.41 235.556 123.886 236.517 124.838C237.488 125.79 237.973 126.952 237.973 128.324C237.973 129.687 237.488 130.844 236.517 131.796C235.556 132.739 234.375 133.21 232.975 133.21C231.575 133.21 230.39 132.739 229.419 131.796C228.458 130.844 227.977 129.687 227.977 128.324C227.977 126.952 228.458 125.79 229.419 124.838ZM231.057 130.312C231.571 130.835 232.21 131.096 232.975 131.096C233.741 131.096 234.38 130.835 234.893 130.312C235.407 129.78 235.663 129.117 235.663 128.324C235.663 127.521 235.407 126.854 234.893 126.322C234.38 125.79 233.741 125.524 232.975 125.524C232.21 125.524 231.571 125.79 231.057 126.322C230.544 126.854 230.287 127.521 230.287 128.324C230.287 129.117 230.544 129.78 231.057 130.312Z" fill="black"/>
<defs>
<clipPath id="clip0">
<rect width="62" height="26" fill="white" transform="translate(145 138)"/>
</clipPath>
</defs>
</svg>
