<svg width="305" height="182" viewBox="0 0 305 182" fill="none" xmlns="http://www.w3.org/2000/svg">
<path d="M56.932 81.94H62.872C64.228 81.94 65.302 82.324 66.094 83.092C66.898 83.848 67.3 84.85 67.3 86.098C67.3 87.37 66.886 88.39 66.058 89.158C65.242 89.926 64.138 90.31 62.746 90.31H59.902V94H56.932V81.94ZM59.902 87.826H62.53C63.106 87.826 63.556 87.676 63.88 87.376C64.216 87.064 64.384 86.65 64.384 86.134C64.384 85.642 64.216 85.246 63.88 84.946C63.544 84.634 63.094 84.478 62.53 84.478H59.902V87.826ZM74.8791 84.838C75.1191 84.838 75.3351 84.862 75.5271 84.91L75.4011 87.79H74.8791C72.8031 87.79 71.7651 88.918 71.7651 91.174V94H68.8851V84.964H71.7651V86.692C72.5091 85.456 73.5471 84.838 74.8791 84.838ZM81.0998 84.73C82.4798 84.73 83.6498 85.174 84.6098 86.062C85.5698 86.95 86.0498 88.09 86.0498 89.482C86.0498 90.886 85.5698 92.032 84.6098 92.92C83.6498 93.808 82.4798 94.252 81.0998 94.252C79.6958 94.252 78.5078 93.808 77.5358 92.92C76.5758 92.032 76.0958 90.886 76.0958 89.482C76.0958 88.09 76.5758 86.95 77.5358 86.062C78.5078 85.174 79.6958 84.73 81.0998 84.73ZM81.0998 91.822C81.6878 91.822 82.1978 91.606 82.6298 91.174C83.0618 90.73 83.2778 90.166 83.2778 89.482C83.2778 88.798 83.0558 88.24 82.6118 87.808C82.1798 87.364 81.6758 87.142 81.0998 87.142C80.4998 87.142 79.9778 87.364 79.5338 87.808C79.0898 88.24 78.8678 88.798 78.8678 89.482C78.8678 90.166 79.0838 90.73 79.5158 91.174C79.9598 91.606 80.4878 91.822 81.0998 91.822ZM99.2355 84.694C100.22 84.694 101.042 85.036 101.702 85.72C102.362 86.392 102.692 87.268 102.692 88.348V94H99.8295V88.96C99.8295 88.456 99.6855 88.054 99.3975 87.754C99.1095 87.442 98.7495 87.286 98.3175 87.286C97.7775 87.286 97.3455 87.484 97.0215 87.88C96.7095 88.264 96.5535 88.828 96.5535 89.572V94H93.6735V88.96C93.6735 88.456 93.5295 88.054 93.2415 87.754C92.9535 87.442 92.5875 87.286 92.1435 87.286C91.6035 87.286 91.1775 87.484 90.8655 87.88C90.5655 88.264 90.4155 88.828 90.4155 89.572V94H87.5355V84.964H90.4155V85.792C91.0755 85.06 91.9635 84.694 93.0795 84.694C94.4115 84.694 95.3955 85.204 96.0315 86.224C96.8115 85.204 97.8795 84.694 99.2355 84.694ZM109.067 84.73C110.447 84.73 111.617 85.174 112.577 86.062C113.537 86.95 114.017 88.09 114.017 89.482C114.017 90.886 113.537 92.032 112.577 92.92C111.617 93.808 110.447 94.252 109.067 94.252C107.663 94.252 106.475 93.808 105.503 92.92C104.543 92.032 104.063 90.886 104.063 89.482C104.063 88.09 104.543 86.95 105.503 86.062C106.475 85.174 107.663 84.73 109.067 84.73ZM109.067 91.822C109.655 91.822 110.165 91.606 110.597 91.174C111.029 90.73 111.245 90.166 111.245 89.482C111.245 88.798 111.023 88.24 110.579 87.808C110.147 87.364 109.643 87.142 109.067 87.142C108.467 87.142 107.945 87.364 107.501 87.808C107.057 88.24 106.835 88.798 106.835 89.482C106.835 90.166 107.051 90.73 107.483 91.174C107.927 91.606 108.455 91.822 109.067 91.822ZM119.84 91.75C120.848 91.75 121.502 91.222 121.802 90.166L124.448 90.742C124.22 91.798 123.68 92.65 122.828 93.298C121.976 93.946 120.98 94.27 119.84 94.27C118.46 94.27 117.29 93.826 116.33 92.938C115.382 92.038 114.908 90.886 114.908 89.482C114.908 88.09 115.382 86.944 116.33 86.044C117.29 85.144 118.46 84.694 119.84 84.694C120.956 84.694 121.94 85.012 122.792 85.648C123.644 86.284 124.196 87.124 124.448 88.168L121.748 88.816C121.628 88.288 121.4 87.892 121.064 87.628C120.728 87.352 120.32 87.214 119.84 87.214C119.192 87.214 118.67 87.43 118.274 87.862C117.878 88.282 117.68 88.822 117.68 89.482C117.68 90.154 117.878 90.7 118.274 91.12C118.67 91.54 119.192 91.75 119.84 91.75ZM126.34 81.148C126.652 80.824 127.048 80.662 127.528 80.662C128.008 80.662 128.404 80.824 128.716 81.148C129.04 81.472 129.202 81.856 129.202 82.3C129.202 82.756 129.04 83.14 128.716 83.452C128.404 83.752 128.008 83.902 127.528 83.902C127.048 83.902 126.652 83.752 126.34 83.452C126.028 83.14 125.872 82.756 125.872 82.3C125.872 81.844 126.028 81.46 126.34 81.148ZM128.968 94H126.088V84.964H128.968V94ZM135.61 84.73C136.99 84.73 138.16 85.174 139.12 86.062C140.08 86.95 140.56 88.09 140.56 89.482C140.56 90.886 140.08 92.032 139.12 92.92C138.16 93.808 136.99 94.252 135.61 94.252C134.206 94.252 133.018 93.808 132.046 92.92C131.086 92.032 130.606 90.886 130.606 89.482C130.606 88.09 131.086 86.95 132.046 86.062C133.018 85.174 134.206 84.73 135.61 84.73ZM135.61 91.822C136.198 91.822 136.708 91.606 137.14 91.174C137.572 90.73 137.788 90.166 137.788 89.482C137.788 88.798 137.566 88.24 137.122 87.808C136.69 87.364 136.186 87.142 135.61 87.142C135.01 87.142 134.488 87.364 134.044 87.808C133.6 88.24 133.378 88.798 133.378 89.482C133.378 90.166 133.594 90.73 134.026 91.174C134.47 91.606 134.998 91.822 135.61 91.822ZM147.697 84.694C148.753 84.694 149.599 85.042 150.235 85.738C150.883 86.422 151.207 87.328 151.207 88.456V94H148.345V89.068C148.345 88.54 148.201 88.114 147.913 87.79C147.625 87.454 147.253 87.286 146.797 87.286C146.209 87.286 145.747 87.496 145.411 87.916C145.087 88.324 144.925 88.954 144.925 89.806V94H142.045V84.964H144.925V85.828C145.645 85.072 146.569 84.694 147.697 84.694ZM162.676 84.964V94H159.796V93.28C159.064 93.94 158.128 94.27 156.988 94.27C155.764 94.27 154.72 93.826 153.856 92.938C153.004 92.038 152.578 90.886 152.578 89.482C152.578 88.09 153.004 86.944 153.856 86.044C154.72 85.144 155.764 84.694 156.988 84.694C158.128 84.694 159.064 85.024 159.796 85.684V84.964H162.676ZM157.582 91.822C158.182 91.822 158.698 91.606 159.13 91.174C159.574 90.73 159.796 90.166 159.796 89.482C159.796 88.81 159.574 88.252 159.13 87.808C158.698 87.364 158.182 87.142 157.582 87.142C156.946 87.142 156.424 87.364 156.016 87.808C155.608 88.24 155.404 88.798 155.404 89.482C155.404 90.178 155.608 90.742 156.016 91.174C156.424 91.606 156.946 91.822 157.582 91.822ZM174.97 91.336L175.636 93.604C174.808 94.048 173.986 94.27 173.17 94.27C172.03 94.27 171.142 93.964 170.506 93.352C169.882 92.74 169.57 91.846 169.57 90.67V87.25H167.932V84.964H169.57V82.3H172.45V84.964H175.114V87.25H172.45V90.382C172.45 91.258 172.852 91.696 173.656 91.696C174.112 91.696 174.55 91.576 174.97 91.336ZM185.587 84.964V94H182.707V93.136C181.987 93.892 181.063 94.27 179.935 94.27C178.879 94.27 178.027 93.928 177.379 93.244C176.743 92.548 176.425 91.636 176.425 90.508V84.964H179.287V89.896C179.287 90.424 179.431 90.856 179.719 91.192C180.007 91.516 180.379 91.678 180.835 91.678C181.423 91.678 181.879 91.474 182.203 91.066C182.539 90.646 182.707 90.01 182.707 89.158V84.964H185.587ZM203.562 84.694C204.546 84.694 205.368 85.036 206.028 85.72C206.688 86.392 207.018 87.268 207.018 88.348V94H204.156V88.96C204.156 88.456 204.012 88.054 203.724 87.754C203.436 87.442 203.076 87.286 202.644 87.286C202.104 87.286 201.672 87.484 201.348 87.88C201.036 88.264 200.88 88.828 200.88 89.572V94H198V88.96C198 88.456 197.856 88.054 197.568 87.754C197.28 87.442 196.914 87.286 196.47 87.286C195.93 87.286 195.504 87.484 195.192 87.88C194.892 88.264 194.742 88.828 194.742 89.572V94H191.862V84.964H194.742V85.792C195.402 85.06 196.29 84.694 197.406 84.694C198.738 84.694 199.722 85.204 200.358 86.224C201.138 85.204 202.206 84.694 203.562 84.694ZM218.487 84.964V94H215.607V93.28C214.875 93.94 213.939 94.27 212.799 94.27C211.575 94.27 210.531 93.826 209.667 92.938C208.815 92.038 208.389 90.886 208.389 89.482C208.389 88.09 208.815 86.944 209.667 86.044C210.531 85.144 211.575 84.694 212.799 84.694C213.939 84.694 214.875 85.024 215.607 85.684V84.964H218.487ZM213.393 91.822C213.993 91.822 214.509 91.606 214.941 91.174C215.385 90.73 215.607 90.166 215.607 89.482C215.607 88.81 215.385 88.252 214.941 87.808C214.509 87.364 213.993 87.142 213.393 87.142C212.757 87.142 212.235 87.364 211.827 87.808C211.419 88.24 211.215 88.798 211.215 89.482C211.215 90.178 211.419 90.742 211.827 91.174C212.235 91.606 212.757 91.822 213.393 91.822ZM226.561 84.838C226.801 84.838 227.017 84.862 227.209 84.91L227.083 87.79H226.561C224.485 87.79 223.447 88.918 223.447 91.174V94H220.567V84.964H223.447V86.692C224.191 85.456 225.229 84.838 226.561 84.838ZM232.709 91.75C233.717 91.75 234.371 91.222 234.671 90.166L237.317 90.742C237.089 91.798 236.549 92.65 235.697 93.298C234.845 93.946 233.849 94.27 232.709 94.27C231.329 94.27 230.159 93.826 229.199 92.938C228.251 92.038 227.777 90.886 227.777 89.482C227.777 88.09 228.251 86.944 229.199 86.044C230.159 85.144 231.329 84.694 232.709 84.694C233.825 84.694 234.809 85.012 235.661 85.648C236.513 86.284 237.065 87.124 237.317 88.168L234.617 88.816C234.497 88.288 234.269 87.892 233.933 87.628C233.597 87.352 233.189 87.214 232.709 87.214C232.061 87.214 231.539 87.43 231.143 87.862C230.747 88.282 230.549 88.822 230.549 89.482C230.549 90.154 230.747 90.7 231.143 91.12C231.539 91.54 232.061 91.75 232.709 91.75ZM248.317 84.964V94H245.437V93.28C244.705 93.94 243.769 94.27 242.629 94.27C241.405 94.27 240.361 93.826 239.497 92.938C238.645 92.038 238.219 90.886 238.219 89.482C238.219 88.09 238.645 86.944 239.497 86.044C240.361 85.144 241.405 84.694 242.629 84.694C243.769 84.694 244.705 85.024 245.437 85.684V84.964H248.317ZM243.223 91.822C243.823 91.822 244.339 91.606 244.771 91.174C245.215 90.73 245.437 90.166 245.437 89.482C245.437 88.81 245.215 88.252 244.771 87.808C244.339 87.364 243.823 87.142 243.223 87.142C242.587 87.142 242.065 87.364 241.657 87.808C241.249 88.24 241.045 88.798 241.045 89.482C241.045 90.178 241.249 90.742 241.657 91.174C242.065 91.606 242.587 91.822 243.223 91.822Z" fill="#343434"/>
<rect x="3" width="5" height="78" fill="#00FFF0"/>
<rect x="18" y="19" width="5" height="78" fill="#FF4C00"/>
<rect x="33" y="48" width="5" height="78" fill="#0028BF"/>
<rect x="267" y="56" width="5" height="78" fill="#00FFE0"/>
<rect x="282" y="75" width="5" height="78" fill="#FF4C00"/>
<rect x="297" y="104" width="5" height="78" fill="#0028BF"/>
</svg>
