<svg width="60" height="60" viewBox="0 0 60 60" fill="none" xmlns="http://www.w3.org/2000/svg">
<path d="M51.2133 8.78672C45.5469 3.12059 38.0133 0 30 0C21.9867 0 14.4531 3.12059 8.78672 8.78672C3.12059 14.453 0 21.9867 0 30C0 38.0133 3.12059 45.547 8.78672 51.2133C14.4531 56.8794 21.9867 60 30 60C38.0133 60 45.5469 56.8794 51.2133 51.2133C56.8794 45.547 60 38.0133 60 30C60 21.9867 56.8794 14.453 51.2133 8.78672ZM30 58.2422C14.4272 58.2422 1.75781 45.5728 1.75781 30C1.75781 14.4272 14.4272 1.75781 30 1.75781C45.5728 1.75781 58.2422 14.4272 58.2422 30C58.2422 45.5728 45.5728 58.2422 30 58.2422Z" fill="black"/>
<path d="M43.1605 23.3433L30.6215 10.8042C30.2782 10.4611 29.7217 10.4611 29.3786 10.8042L16.8395 23.3433C16.5881 23.5948 16.5129 23.9727 16.649 24.3012C16.785 24.6296 17.1055 24.8438 17.461 24.8438H21.8555V27.4805C21.8555 27.966 22.249 28.3594 22.7344 28.3594C23.2198 28.3594 23.6133 27.966 23.6133 27.4805V23.9648C23.6133 23.4793 23.2198 23.0859 22.7344 23.0859H19.5828L30 12.6687L40.4173 23.0859H37.2656C36.7803 23.0859 36.3867 23.4793 36.3867 23.9648V46.1719H23.6133V30.9961C23.6133 30.5106 23.2198 30.1172 22.7344 30.1172C22.249 30.1172 21.8555 30.5106 21.8555 30.9961V47.0508C21.8555 47.5363 22.249 47.9297 22.7344 47.9297H37.2656C37.751 47.9297 38.1445 47.5363 38.1445 47.0508V24.8438H42.5391C42.8945 24.8438 43.215 24.6296 43.3511 24.3012C43.4871 23.9727 43.4119 23.5948 43.1605 23.3433Z" fill="black"/>
</svg>
