<svg width="764" height="199" viewBox="0 0 764 199" fill="none" xmlns="http://www.w3.org/2000/svg">
<rect y="1" width="764" height="192" fill="url(#paint0_linear)"/>
<path d="M0 178C22.6667 136.444 83.6 58.7918 146 80.6314C224 107.931 402 128.861 405 57.8818C406.581 20.4696 441.241 5.75801 475.859 1.4626H525C511.696 -0.193039 493.783 -0.761429 475.859 1.4626H0V178Z" fill="url(#paint1_linear)"/>
<path d="M-0.233574 74.7911C25.5066 33.9803 9.13504 15.4877 -2.26826 11.3427L-0.233574 74.7911Z" fill="#0028BF"/>
<circle cx="18.5" cy="75.5" r="9.5" fill="#0094FF"/>
<circle cx="27" cy="57" r="5" fill="#FFB800"/>
<ellipse cx="756" cy="41.5" rx="22" ry="20.5" fill="white"/>
<ellipse cx="763.5" cy="61.5" rx="14.5" ry="13.5" fill="#0028BF"/>
<rect x="634" width="9" height="75" fill="white"/>
<rect x="651" y="1" width="9" height="119" fill="white"/>
<path d="M455 197.5C455 196.672 454.328 196 453.5 196C452.672 196 452 196.672 452 197.5C452 198.328 452.672 199 453.5 199C454.328 199 455 198.328 455 197.5Z" fill="#C4C4C4"/>
<path d="M455 191.5C455 190.672 454.328 190 453.5 190C452.672 190 452 190.672 452 191.5C452 192.328 452.672 193 453.5 193C454.328 193 455 192.328 455 191.5Z" fill="#C4C4C4"/>
<path d="M453.5 184C454.328 184 455 184.672 455 185.5C455 186.328 454.328 187 453.5 187C452.672 187 452 186.328 452 185.5C452 184.672 452.672 184 453.5 184Z" fill="#C4C4C4"/>
<path d="M455 179.5C455 178.672 454.328 178 453.5 178C452.672 178 452 178.672 452 179.5C452 180.328 452.672 181 453.5 181C454.328 181 455 180.328 455 179.5Z" fill="#C4C4C4"/>
<path d="M453.5 172C454.328 172 455 172.672 455 173.5C455 174.328 454.328 175 453.5 175C452.672 175 452 174.328 452 173.5C452 172.672 452.672 172 453.5 172Z" fill="#C4C4C4"/>
<path d="M455 167.5C455 166.672 454.328 166 453.5 166C452.672 166 452 166.672 452 167.5C452 168.328 452.672 169 453.5 169C454.328 169 455 168.328 455 167.5Z" fill="#C4C4C4"/>
<path d="M453.5 160C454.328 160 455 160.672 455 161.5C455 162.328 454.328 163 453.5 163C452.672 163 452 162.328 452 161.5C452 160.672 452.672 160 453.5 160Z" fill="#C4C4C4"/>
<path d="M455 155.5C455 154.672 454.328 154 453.5 154C452.672 154 452 154.672 452 155.5C452 156.328 452.672 157 453.5 157C454.328 157 455 156.328 455 155.5Z" fill="#C4C4C4"/>
<path d="M458.5 196C459.328 196 460 196.672 460 197.5C460 198.328 459.328 199 458.5 199C457.672 199 457 198.328 457 197.5C457 196.672 457.672 196 458.5 196Z" fill="#C4C4C4"/>
<path d="M460 191.5C460 190.672 459.328 190 458.5 190C457.672 190 457 190.672 457 191.5C457 192.328 457.672 193 458.5 193C459.328 193 460 192.328 460 191.5Z" fill="#C4C4C4"/>
<path d="M458.5 184C459.328 184 460 184.672 460 185.5C460 186.328 459.328 187 458.5 187C457.672 187 457 186.328 457 185.5C457 184.672 457.672 184 458.5 184Z" fill="#C4C4C4"/>
<path d="M460 179.5C460 178.672 459.328 178 458.5 178C457.672 178 457 178.672 457 179.5C457 180.328 457.672 181 458.5 181C459.328 181 460 180.328 460 179.5Z" fill="#C4C4C4"/>
<path d="M458.5 172C459.328 172 460 172.672 460 173.5C460 174.328 459.328 175 458.5 175C457.672 175 457 174.328 457 173.5C457 172.672 457.672 172 458.5 172Z" fill="#C4C4C4"/>
<path d="M460 167.5C460 166.672 459.328 166 458.5 166C457.672 166 457 166.672 457 167.5C457 168.328 457.672 169 458.5 169C459.328 169 460 168.328 460 167.5Z" fill="#C4C4C4"/>
<path d="M458.5 160C459.328 160 460 160.672 460 161.5C460 162.328 459.328 163 458.5 163C457.672 163 457 162.328 457 161.5C457 160.672 457.672 160 458.5 160Z" fill="#C4C4C4"/>
<path d="M460 155.5C460 154.672 459.328 154 458.5 154C457.672 154 457 154.672 457 155.5C457 156.328 457.672 157 458.5 157C459.328 157 460 156.328 460 155.5Z" fill="#C4C4C4"/>
<path d="M463.5 196C464.328 196 465 196.672 465 197.5C465 198.328 464.328 199 463.5 199C462.672 199 462 198.328 462 197.5C462 196.672 462.672 196 463.5 196Z" fill="#C4C4C4"/>
<path d="M465 191.5C465 190.672 464.328 190 463.5 190C462.672 190 462 190.672 462 191.5C462 192.328 462.672 193 463.5 193C464.328 193 465 192.328 465 191.5Z" fill="#C4C4C4"/>
<path d="M463.5 184C464.328 184 465 184.672 465 185.5C465 186.328 464.328 187 463.5 187C462.672 187 462 186.328 462 185.5C462 184.672 462.672 184 463.5 184Z" fill="#C4C4C4"/>
<path d="M465 179.5C465 178.672 464.328 178 463.5 178C462.672 178 462 178.672 462 179.5C462 180.328 462.672 181 463.5 181C464.328 181 465 180.328 465 179.5Z" fill="#C4C4C4"/>
<path d="M463.5 172C464.328 172 465 172.672 465 173.5C465 174.328 464.328 175 463.5 175C462.672 175 462 174.328 462 173.5C462 172.672 462.672 172 463.5 172Z" fill="#C4C4C4"/>
<path d="M465 167.5C465 166.672 464.328 166 463.5 166C462.672 166 462 166.672 462 167.5C462 168.328 462.672 169 463.5 169C464.328 169 465 168.328 465 167.5Z" fill="#C4C4C4"/>
<path d="M463.5 160C464.328 160 465 160.672 465 161.5C465 162.328 464.328 163 463.5 163C462.672 163 462 162.328 462 161.5C462 160.672 462.672 160 463.5 160Z" fill="#C4C4C4"/>
<path d="M465 155.5C465 154.672 464.328 154 463.5 154C462.672 154 462 154.672 462 155.5C462 156.328 462.672 157 463.5 157C464.328 157 465 156.328 465 155.5Z" fill="#C4C4C4"/>
<path d="M468.5 196C469.328 196 470 196.672 470 197.5C470 198.328 469.328 199 468.5 199C467.672 199 467 198.328 467 197.5C467 196.672 467.672 196 468.5 196Z" fill="#C4C4C4"/>
<path d="M470 191.5C470 190.672 469.328 190 468.5 190C467.672 190 467 190.672 467 191.5C467 192.328 467.672 193 468.5 193C469.328 193 470 192.328 470 191.5Z" fill="#C4C4C4"/>
<path d="M468.5 184C469.328 184 470 184.672 470 185.5C470 186.328 469.328 187 468.5 187C467.672 187 467 186.328 467 185.5C467 184.672 467.672 184 468.5 184Z" fill="#C4C4C4"/>
<path d="M470 179.5C470 178.672 469.328 178 468.5 178C467.672 178 467 178.672 467 179.5C467 180.328 467.672 181 468.5 181C469.328 181 470 180.328 470 179.5Z" fill="#C4C4C4"/>
<path d="M468.5 172C469.328 172 470 172.672 470 173.5C470 174.328 469.328 175 468.5 175C467.672 175 467 174.328 467 173.5C467 172.672 467.672 172 468.5 172Z" fill="#C4C4C4"/>
<path d="M470 167.5C470 166.672 469.328 166 468.5 166C467.672 166 467 166.672 467 167.5C467 168.328 467.672 169 468.5 169C469.328 169 470 168.328 470 167.5Z" fill="#C4C4C4"/>
<path d="M468.5 160C469.328 160 470 160.672 470 161.5C470 162.328 469.328 163 468.5 163C467.672 163 467 162.328 467 161.5C467 160.672 467.672 160 468.5 160Z" fill="#C4C4C4"/>
<path d="M470 155.5C470 154.672 469.328 154 468.5 154C467.672 154 467 154.672 467 155.5C467 156.328 467.672 157 468.5 157C469.328 157 470 156.328 470 155.5Z" fill="#C4C4C4"/>
<path d="M473.5 196C474.328 196 475 196.672 475 197.5C475 198.328 474.328 199 473.5 199C472.672 199 472 198.328 472 197.5C472 196.672 472.672 196 473.5 196Z" fill="#C4C4C4"/>
<path d="M475 191.5C475 190.672 474.328 190 473.5 190C472.672 190 472 190.672 472 191.5C472 192.328 472.672 193 473.5 193C474.328 193 475 192.328 475 191.5Z" fill="#C4C4C4"/>
<path d="M473.5 184C474.328 184 475 184.672 475 185.5C475 186.328 474.328 187 473.5 187C472.672 187 472 186.328 472 185.5C472 184.672 472.672 184 473.5 184Z" fill="#C4C4C4"/>
<path d="M475 179.5C475 178.672 474.328 178 473.5 178C472.672 178 472 178.672 472 179.5C472 180.328 472.672 181 473.5 181C474.328 181 475 180.328 475 179.5Z" fill="#C4C4C4"/>
<path d="M473.5 172C474.328 172 475 172.672 475 173.5C475 174.328 474.328 175 473.5 175C472.672 175 472 174.328 472 173.5C472 172.672 472.672 172 473.5 172Z" fill="#C4C4C4"/>
<path d="M475 167.5C475 166.672 474.328 166 473.5 166C472.672 166 472 166.672 472 167.5C472 168.328 472.672 169 473.5 169C474.328 169 475 168.328 475 167.5Z" fill="#C4C4C4"/>
<path d="M473.5 160C474.328 160 475 160.672 475 161.5C475 162.328 474.328 163 473.5 163C472.672 163 472 162.328 472 161.5C472 160.672 472.672 160 473.5 160Z" fill="#C4C4C4"/>
<path d="M475 155.5C475 154.672 474.328 154 473.5 154C472.672 154 472 154.672 472 155.5C472 156.328 472.672 157 473.5 157C474.328 157 475 156.328 475 155.5Z" fill="#C4C4C4"/>
<path d="M478.5 196C479.328 196 480 196.672 480 197.5C480 198.328 479.328 199 478.5 199C477.672 199 477 198.328 477 197.5C477 196.672 477.672 196 478.5 196Z" fill="#C4C4C4"/>
<path d="M480 191.5C480 190.672 479.328 190 478.5 190C477.672 190 477 190.672 477 191.5C477 192.328 477.672 193 478.5 193C479.328 193 480 192.328 480 191.5Z" fill="#C4C4C4"/>
<path d="M478.5 184C479.328 184 480 184.672 480 185.5C480 186.328 479.328 187 478.5 187C477.672 187 477 186.328 477 185.5C477 184.672 477.672 184 478.5 184Z" fill="#C4C4C4"/>
<path d="M480 179.5C480 178.672 479.328 178 478.5 178C477.672 178 477 178.672 477 179.5C477 180.328 477.672 181 478.5 181C479.328 181 480 180.328 480 179.5Z" fill="#C4C4C4"/>
<path d="M478.5 172C479.328 172 480 172.672 480 173.5C480 174.328 479.328 175 478.5 175C477.672 175 477 174.328 477 173.5C477 172.672 477.672 172 478.5 172Z" fill="#C4C4C4"/>
<path d="M480 167.5C480 166.672 479.328 166 478.5 166C477.672 166 477 166.672 477 167.5C477 168.328 477.672 169 478.5 169C479.328 169 480 168.328 480 167.5Z" fill="#C4C4C4"/>
<path d="M478.5 160C479.328 160 480 160.672 480 161.5C480 162.328 479.328 163 478.5 163C477.672 163 477 162.328 477 161.5C477 160.672 477.672 160 478.5 160Z" fill="#C4C4C4"/>
<path d="M480 155.5C480 154.672 479.328 154 478.5 154C477.672 154 477 154.672 477 155.5C477 156.328 477.672 157 478.5 157C479.328 157 480 156.328 480 155.5Z" fill="#C4C4C4"/>
<path d="M483.5 196C484.328 196 485 196.672 485 197.5C485 198.328 484.328 199 483.5 199C482.672 199 482 198.328 482 197.5C482 196.672 482.672 196 483.5 196Z" fill="#C4C4C4"/>
<path d="M485 191.5C485 190.672 484.328 190 483.5 190C482.672 190 482 190.672 482 191.5C482 192.328 482.672 193 483.5 193C484.328 193 485 192.328 485 191.5Z" fill="#C4C4C4"/>
<path d="M483.5 184C484.328 184 485 184.672 485 185.5C485 186.328 484.328 187 483.5 187C482.672 187 482 186.328 482 185.5C482 184.672 482.672 184 483.5 184Z" fill="#C4C4C4"/>
<path d="M485 179.5C485 178.672 484.328 178 483.5 178C482.672 178 482 178.672 482 179.5C482 180.328 482.672 181 483.5 181C484.328 181 485 180.328 485 179.5Z" fill="#C4C4C4"/>
<path d="M483.5 172C484.328 172 485 172.672 485 173.5C485 174.328 484.328 175 483.5 175C482.672 175 482 174.328 482 173.5C482 172.672 482.672 172 483.5 172Z" fill="#C4C4C4"/>
<path d="M485 167.5C485 166.672 484.328 166 483.5 166C482.672 166 482 166.672 482 167.5C482 168.328 482.672 169 483.5 169C484.328 169 485 168.328 485 167.5Z" fill="#C4C4C4"/>
<path d="M483.5 160C484.328 160 485 160.672 485 161.5C485 162.328 484.328 163 483.5 163C482.672 163 482 162.328 482 161.5C482 160.672 482.672 160 483.5 160Z" fill="#C4C4C4"/>
<path d="M485 155.5C485 154.672 484.328 154 483.5 154C482.672 154 482 154.672 482 155.5C482 156.328 482.672 157 483.5 157C484.328 157 485 156.328 485 155.5Z" fill="#C4C4C4"/>
<path d="M488.5 196C489.328 196 490 196.672 490 197.5C490 198.328 489.328 199 488.5 199C487.672 199 487 198.328 487 197.5C487 196.672 487.672 196 488.5 196Z" fill="#C4C4C4"/>
<path d="M490 191.5C490 190.672 489.328 190 488.5 190C487.672 190 487 190.672 487 191.5C487 192.328 487.672 193 488.5 193C489.328 193 490 192.328 490 191.5Z" fill="#C4C4C4"/>
<path d="M488.5 184C489.328 184 490 184.672 490 185.5C490 186.328 489.328 187 488.5 187C487.672 187 487 186.328 487 185.5C487 184.672 487.672 184 488.5 184Z" fill="#C4C4C4"/>
<path d="M490 179.5C490 178.672 489.328 178 488.5 178C487.672 178 487 178.672 487 179.5C487 180.328 487.672 181 488.5 181C489.328 181 490 180.328 490 179.5Z" fill="#C4C4C4"/>
<path d="M488.5 172C489.328 172 490 172.672 490 173.5C490 174.328 489.328 175 488.5 175C487.672 175 487 174.328 487 173.5C487 172.672 487.672 172 488.5 172Z" fill="#C4C4C4"/>
<path d="M490 167.5C490 166.672 489.328 166 488.5 166C487.672 166 487 166.672 487 167.5C487 168.328 487.672 169 488.5 169C489.328 169 490 168.328 490 167.5Z" fill="#C4C4C4"/>
<path d="M488.5 160C489.328 160 490 160.672 490 161.5C490 162.328 489.328 163 488.5 163C487.672 163 487 162.328 487 161.5C487 160.672 487.672 160 488.5 160Z" fill="#C4C4C4"/>
<path d="M490 155.5C490 154.672 489.328 154 488.5 154C487.672 154 487 154.672 487 155.5C487 156.328 487.672 157 488.5 157C489.328 157 490 156.328 490 155.5Z" fill="#C4C4C4"/>
<path d="M493.5 196C494.328 196 495 196.672 495 197.5C495 198.328 494.328 199 493.5 199C492.672 199 492 198.328 492 197.5C492 196.672 492.672 196 493.5 196Z" fill="#C4C4C4"/>
<path d="M495 191.5C495 190.672 494.328 190 493.5 190C492.672 190 492 190.672 492 191.5C492 192.328 492.672 193 493.5 193C494.328 193 495 192.328 495 191.5Z" fill="#C4C4C4"/>
<path d="M493.5 184C494.328 184 495 184.672 495 185.5C495 186.328 494.328 187 493.5 187C492.672 187 492 186.328 492 185.5C492 184.672 492.672 184 493.5 184Z" fill="#C4C4C4"/>
<path d="M495 179.5C495 178.672 494.328 178 493.5 178C492.672 178 492 178.672 492 179.5C492 180.328 492.672 181 493.5 181C494.328 181 495 180.328 495 179.5Z" fill="#C4C4C4"/>
<path d="M493.5 172C494.328 172 495 172.672 495 173.5C495 174.328 494.328 175 493.5 175C492.672 175 492 174.328 492 173.5C492 172.672 492.672 172 493.5 172Z" fill="#C4C4C4"/>
<path d="M495 167.5C495 166.672 494.328 166 493.5 166C492.672 166 492 166.672 492 167.5C492 168.328 492.672 169 493.5 169C494.328 169 495 168.328 495 167.5Z" fill="#C4C4C4"/>
<path d="M493.5 160C494.328 160 495 160.672 495 161.5C495 162.328 494.328 163 493.5 163C492.672 163 492 162.328 492 161.5C492 160.672 492.672 160 493.5 160Z" fill="#C4C4C4"/>
<path d="M495 155.5C495 154.672 494.328 154 493.5 154C492.672 154 492 154.672 492 155.5C492 156.328 492.672 157 493.5 157C494.328 157 495 156.328 495 155.5Z" fill="#C4C4C4"/>
<path d="M498.5 196C499.328 196 500 196.672 500 197.5C500 198.328 499.328 199 498.5 199C497.672 199 497 198.328 497 197.5C497 196.672 497.672 196 498.5 196Z" fill="#C4C4C4"/>
<path d="M500 191.5C500 190.672 499.328 190 498.5 190C497.672 190 497 190.672 497 191.5C497 192.328 497.672 193 498.5 193C499.328 193 500 192.328 500 191.5Z" fill="#C4C4C4"/>
<path d="M498.5 184C499.328 184 500 184.672 500 185.5C500 186.328 499.328 187 498.5 187C497.672 187 497 186.328 497 185.5C497 184.672 497.672 184 498.5 184Z" fill="#C4C4C4"/>
<path d="M500 179.5C500 178.672 499.328 178 498.5 178C497.672 178 497 178.672 497 179.5C497 180.328 497.672 181 498.5 181C499.328 181 500 180.328 500 179.5Z" fill="#C4C4C4"/>
<path d="M498.5 172C499.328 172 500 172.672 500 173.5C500 174.328 499.328 175 498.5 175C497.672 175 497 174.328 497 173.5C497 172.672 497.672 172 498.5 172Z" fill="#C4C4C4"/>
<path d="M500 167.5C500 166.672 499.328 166 498.5 166C497.672 166 497 166.672 497 167.5C497 168.328 497.672 169 498.5 169C499.328 169 500 168.328 500 167.5Z" fill="#C4C4C4"/>
<path d="M498.5 160C499.328 160 500 160.672 500 161.5C500 162.328 499.328 163 498.5 163C497.672 163 497 162.328 497 161.5C497 160.672 497.672 160 498.5 160Z" fill="#C4C4C4"/>
<path d="M500 155.5C500 154.672 499.328 154 498.5 154C497.672 154 497 154.672 497 155.5C497 156.328 497.672 157 498.5 157C499.328 157 500 156.328 500 155.5Z" fill="#C4C4C4"/>
<path d="M503.5 196C504.328 196 505 196.672 505 197.5C505 198.328 504.328 199 503.5 199C502.672 199 502 198.328 502 197.5C502 196.672 502.672 196 503.5 196Z" fill="#C4C4C4"/>
<path d="M505 191.5C505 190.672 504.328 190 503.5 190C502.672 190 502 190.672 502 191.5C502 192.328 502.672 193 503.5 193C504.328 193 505 192.328 505 191.5Z" fill="#C4C4C4"/>
<path d="M503.5 184C504.328 184 505 184.672 505 185.5C505 186.328 504.328 187 503.5 187C502.672 187 502 186.328 502 185.5C502 184.672 502.672 184 503.5 184Z" fill="#C4C4C4"/>
<path d="M505 179.5C505 178.672 504.328 178 503.5 178C502.672 178 502 178.672 502 179.5C502 180.328 502.672 181 503.5 181C504.328 181 505 180.328 505 179.5Z" fill="#C4C4C4"/>
<path d="M503.5 172C504.328 172 505 172.672 505 173.5C505 174.328 504.328 175 503.5 175C502.672 175 502 174.328 502 173.5C502 172.672 502.672 172 503.5 172Z" fill="#C4C4C4"/>
<path d="M505 167.5C505 166.672 504.328 166 503.5 166C502.672 166 502 166.672 502 167.5C502 168.328 502.672 169 503.5 169C504.328 169 505 168.328 505 167.5Z" fill="#C4C4C4"/>
<path d="M503.5 160C504.328 160 505 160.672 505 161.5C505 162.328 504.328 163 503.5 163C502.672 163 502 162.328 502 161.5C502 160.672 502.672 160 503.5 160Z" fill="#C4C4C4"/>
<path d="M505 155.5C505 154.672 504.328 154 503.5 154C502.672 154 502 154.672 502 155.5C502 156.328 502.672 157 503.5 157C504.328 157 505 156.328 505 155.5Z" fill="#C4C4C4"/>
<path d="M508.5 196C509.328 196 510 196.672 510 197.5C510 198.328 509.328 199 508.5 199C507.672 199 507 198.328 507 197.5C507 196.672 507.672 196 508.5 196Z" fill="#C4C4C4"/>
<path d="M510 191.5C510 190.672 509.328 190 508.5 190C507.672 190 507 190.672 507 191.5C507 192.328 507.672 193 508.5 193C509.328 193 510 192.328 510 191.5Z" fill="#C4C4C4"/>
<path d="M508.5 184C509.328 184 510 184.672 510 185.5C510 186.328 509.328 187 508.5 187C507.672 187 507 186.328 507 185.5C507 184.672 507.672 184 508.5 184Z" fill="#C4C4C4"/>
<path d="M510 179.5C510 178.672 509.328 178 508.5 178C507.672 178 507 178.672 507 179.5C507 180.328 507.672 181 508.5 181C509.328 181 510 180.328 510 179.5Z" fill="#C4C4C4"/>
<path d="M508.5 172C509.328 172 510 172.672 510 173.5C510 174.328 509.328 175 508.5 175C507.672 175 507 174.328 507 173.5C507 172.672 507.672 172 508.5 172Z" fill="#C4C4C4"/>
<path d="M510 167.5C510 166.672 509.328 166 508.5 166C507.672 166 507 166.672 507 167.5C507 168.328 507.672 169 508.5 169C509.328 169 510 168.328 510 167.5Z" fill="#C4C4C4"/>
<path d="M508.5 160C509.328 160 510 160.672 510 161.5C510 162.328 509.328 163 508.5 163C507.672 163 507 162.328 507 161.5C507 160.672 507.672 160 508.5 160Z" fill="#C4C4C4"/>
<path d="M510 155.5C510 154.672 509.328 154 508.5 154C507.672 154 507 154.672 507 155.5C507 156.328 507.672 157 508.5 157C509.328 157 510 156.328 510 155.5Z" fill="#C4C4C4"/>
<path d="M513.5 196C514.328 196 515 196.672 515 197.5C515 198.328 514.328 199 513.5 199C512.672 199 512 198.328 512 197.5C512 196.672 512.672 196 513.5 196Z" fill="#C4C4C4"/>
<path d="M515 191.5C515 190.672 514.328 190 513.5 190C512.672 190 512 190.672 512 191.5C512 192.328 512.672 193 513.5 193C514.328 193 515 192.328 515 191.5Z" fill="#C4C4C4"/>
<path d="M513.5 184C514.328 184 515 184.672 515 185.5C515 186.328 514.328 187 513.5 187C512.672 187 512 186.328 512 185.5C512 184.672 512.672 184 513.5 184Z" fill="#C4C4C4"/>
<path d="M515 179.5C515 178.672 514.328 178 513.5 178C512.672 178 512 178.672 512 179.5C512 180.328 512.672 181 513.5 181C514.328 181 515 180.328 515 179.5Z" fill="#C4C4C4"/>
<path d="M513.5 172C514.328 172 515 172.672 515 173.5C515 174.328 514.328 175 513.5 175C512.672 175 512 174.328 512 173.5C512 172.672 512.672 172 513.5 172Z" fill="#C4C4C4"/>
<path d="M515 167.5C515 166.672 514.328 166 513.5 166C512.672 166 512 166.672 512 167.5C512 168.328 512.672 169 513.5 169C514.328 169 515 168.328 515 167.5Z" fill="#C4C4C4"/>
<path d="M513.5 160C514.328 160 515 160.672 515 161.5C515 162.328 514.328 163 513.5 163C512.672 163 512 162.328 512 161.5C512 160.672 512.672 160 513.5 160Z" fill="#C4C4C4"/>
<path d="M515 155.5C515 154.672 514.328 154 513.5 154C512.672 154 512 154.672 512 155.5C512 156.328 512.672 157 513.5 157C514.328 157 515 156.328 515 155.5Z" fill="#C4C4C4"/>
<path d="M518.5 196C519.328 196 520 196.672 520 197.5C520 198.328 519.328 199 518.5 199C517.672 199 517 198.328 517 197.5C517 196.672 517.672 196 518.5 196Z" fill="#C4C4C4"/>
<path d="M520 191.5C520 190.672 519.328 190 518.5 190C517.672 190 517 190.672 517 191.5C517 192.328 517.672 193 518.5 193C519.328 193 520 192.328 520 191.5Z" fill="#C4C4C4"/>
<path d="M518.5 184C519.328 184 520 184.672 520 185.5C520 186.328 519.328 187 518.5 187C517.672 187 517 186.328 517 185.5C517 184.672 517.672 184 518.5 184Z" fill="#C4C4C4"/>
<path d="M520 179.5C520 178.672 519.328 178 518.5 178C517.672 178 517 178.672 517 179.5C517 180.328 517.672 181 518.5 181C519.328 181 520 180.328 520 179.5Z" fill="#C4C4C4"/>
<path d="M518.5 172C519.328 172 520 172.672 520 173.5C520 174.328 519.328 175 518.5 175C517.672 175 517 174.328 517 173.5C517 172.672 517.672 172 518.5 172Z" fill="#C4C4C4"/>
<path d="M520 167.5C520 166.672 519.328 166 518.5 166C517.672 166 517 166.672 517 167.5C517 168.328 517.672 169 518.5 169C519.328 169 520 168.328 520 167.5Z" fill="#C4C4C4"/>
<path d="M518.5 160C519.328 160 520 160.672 520 161.5C520 162.328 519.328 163 518.5 163C517.672 163 517 162.328 517 161.5C517 160.672 517.672 160 518.5 160Z" fill="#C4C4C4"/>
<path d="M520 155.5C520 154.672 519.328 154 518.5 154C517.672 154 517 154.672 517 155.5C517 156.328 517.672 157 518.5 157C519.328 157 520 156.328 520 155.5Z" fill="#C4C4C4"/>
<path d="M523.5 196C524.328 196 525 196.672 525 197.5C525 198.328 524.328 199 523.5 199C522.672 199 522 198.328 522 197.5C522 196.672 522.672 196 523.5 196Z" fill="#C4C4C4"/>
<path d="M525 191.5C525 190.672 524.328 190 523.5 190C522.672 190 522 190.672 522 191.5C522 192.328 522.672 193 523.5 193C524.328 193 525 192.328 525 191.5Z" fill="#C4C4C4"/>
<path d="M523.5 184C524.328 184 525 184.672 525 185.5C525 186.328 524.328 187 523.5 187C522.672 187 522 186.328 522 185.5C522 184.672 522.672 184 523.5 184Z" fill="#C4C4C4"/>
<path d="M525 179.5C525 178.672 524.328 178 523.5 178C522.672 178 522 178.672 522 179.5C522 180.328 522.672 181 523.5 181C524.328 181 525 180.328 525 179.5Z" fill="#C4C4C4"/>
<path d="M523.5 172C524.328 172 525 172.672 525 173.5C525 174.328 524.328 175 523.5 175C522.672 175 522 174.328 522 173.5C522 172.672 522.672 172 523.5 172Z" fill="#C4C4C4"/>
<path d="M525 167.5C525 166.672 524.328 166 523.5 166C522.672 166 522 166.672 522 167.5C522 168.328 522.672 169 523.5 169C524.328 169 525 168.328 525 167.5Z" fill="#C4C4C4"/>
<path d="M523.5 160C524.328 160 525 160.672 525 161.5C525 162.328 524.328 163 523.5 163C522.672 163 522 162.328 522 161.5C522 160.672 522.672 160 523.5 160Z" fill="#C4C4C4"/>
<path d="M525 155.5C525 154.672 524.328 154 523.5 154C522.672 154 522 154.672 522 155.5C522 156.328 522.672 157 523.5 157C524.328 157 525 156.328 525 155.5Z" fill="#C4C4C4"/>
<path d="M528.5 196C529.328 196 530 196.672 530 197.5C530 198.328 529.328 199 528.5 199C527.672 199 527 198.328 527 197.5C527 196.672 527.672 196 528.5 196Z" fill="#C4C4C4"/>
<path d="M530 191.5C530 190.672 529.328 190 528.5 190C527.672 190 527 190.672 527 191.5C527 192.328 527.672 193 528.5 193C529.328 193 530 192.328 530 191.5Z" fill="#C4C4C4"/>
<path d="M528.5 184C529.328 184 530 184.672 530 185.5C530 186.328 529.328 187 528.5 187C527.672 187 527 186.328 527 185.5C527 184.672 527.672 184 528.5 184Z" fill="#C4C4C4"/>
<path d="M530 179.5C530 178.672 529.328 178 528.5 178C527.672 178 527 178.672 527 179.5C527 180.328 527.672 181 528.5 181C529.328 181 530 180.328 530 179.5Z" fill="#C4C4C4"/>
<path d="M528.5 172C529.328 172 530 172.672 530 173.5C530 174.328 529.328 175 528.5 175C527.672 175 527 174.328 527 173.5C527 172.672 527.672 172 528.5 172Z" fill="#C4C4C4"/>
<path d="M530 167.5C530 166.672 529.328 166 528.5 166C527.672 166 527 166.672 527 167.5C527 168.328 527.672 169 528.5 169C529.328 169 530 168.328 530 167.5Z" fill="#C4C4C4"/>
<path d="M528.5 160C529.328 160 530 160.672 530 161.5C530 162.328 529.328 163 528.5 163C527.672 163 527 162.328 527 161.5C527 160.672 527.672 160 528.5 160Z" fill="#C4C4C4"/>
<path d="M530 155.5C530 154.672 529.328 154 528.5 154C527.672 154 527 154.672 527 155.5C527 156.328 527.672 157 528.5 157C529.328 157 530 156.328 530 155.5Z" fill="#C4C4C4"/>
<path d="M533.5 196C534.328 196 535 196.672 535 197.5C535 198.328 534.328 199 533.5 199C532.672 199 532 198.328 532 197.5C532 196.672 532.672 196 533.5 196Z" fill="#C4C4C4"/>
<path d="M535 191.5C535 190.672 534.328 190 533.5 190C532.672 190 532 190.672 532 191.5C532 192.328 532.672 193 533.5 193C534.328 193 535 192.328 535 191.5Z" fill="#C4C4C4"/>
<path d="M533.5 184C534.328 184 535 184.672 535 185.5C535 186.328 534.328 187 533.5 187C532.672 187 532 186.328 532 185.5C532 184.672 532.672 184 533.5 184Z" fill="#C4C4C4"/>
<path d="M535 179.5C535 178.672 534.328 178 533.5 178C532.672 178 532 178.672 532 179.5C532 180.328 532.672 181 533.5 181C534.328 181 535 180.328 535 179.5Z" fill="#C4C4C4"/>
<path d="M533.5 172C534.328 172 535 172.672 535 173.5C535 174.328 534.328 175 533.5 175C532.672 175 532 174.328 532 173.5C532 172.672 532.672 172 533.5 172Z" fill="#C4C4C4"/>
<path d="M535 167.5C535 166.672 534.328 166 533.5 166C532.672 166 532 166.672 532 167.5C532 168.328 532.672 169 533.5 169C534.328 169 535 168.328 535 167.5Z" fill="#C4C4C4"/>
<path d="M533.5 160C534.328 160 535 160.672 535 161.5C535 162.328 534.328 163 533.5 163C532.672 163 532 162.328 532 161.5C532 160.672 532.672 160 533.5 160Z" fill="#C4C4C4"/>
<path d="M535 155.5C535 154.672 534.328 154 533.5 154C532.672 154 532 154.672 532 155.5C532 156.328 532.672 157 533.5 157C534.328 157 535 156.328 535 155.5Z" fill="#C4C4C4"/>
<path d="M538.5 196C539.328 196 540 196.672 540 197.5C540 198.328 539.328 199 538.5 199C537.672 199 537 198.328 537 197.5C537 196.672 537.672 196 538.5 196Z" fill="#C4C4C4"/>
<path d="M540 191.5C540 190.672 539.328 190 538.5 190C537.672 190 537 190.672 537 191.5C537 192.328 537.672 193 538.5 193C539.328 193 540 192.328 540 191.5Z" fill="#C4C4C4"/>
<path d="M538.5 184C539.328 184 540 184.672 540 185.5C540 186.328 539.328 187 538.5 187C537.672 187 537 186.328 537 185.5C537 184.672 537.672 184 538.5 184Z" fill="#C4C4C4"/>
<path d="M540 179.5C540 178.672 539.328 178 538.5 178C537.672 178 537 178.672 537 179.5C537 180.328 537.672 181 538.5 181C539.328 181 540 180.328 540 179.5Z" fill="#C4C4C4"/>
<path d="M538.5 172C539.328 172 540 172.672 540 173.5C540 174.328 539.328 175 538.5 175C537.672 175 537 174.328 537 173.5C537 172.672 537.672 172 538.5 172Z" fill="#C4C4C4"/>
<path d="M540 167.5C540 166.672 539.328 166 538.5 166C537.672 166 537 166.672 537 167.5C537 168.328 537.672 169 538.5 169C539.328 169 540 168.328 540 167.5Z" fill="#C4C4C4"/>
<path d="M538.5 160C539.328 160 540 160.672 540 161.5C540 162.328 539.328 163 538.5 163C537.672 163 537 162.328 537 161.5C537 160.672 537.672 160 538.5 160Z" fill="#C4C4C4"/>
<path d="M540 155.5C540 154.672 539.328 154 538.5 154C537.672 154 537 154.672 537 155.5C537 156.328 537.672 157 538.5 157C539.328 157 540 156.328 540 155.5Z" fill="#C4C4C4"/>
<path d="M543.5 196C544.328 196 545 196.672 545 197.5C545 198.328 544.328 199 543.5 199C542.672 199 542 198.328 542 197.5C542 196.672 542.672 196 543.5 196Z" fill="#C4C4C4"/>
<path d="M545 191.5C545 190.672 544.328 190 543.5 190C542.672 190 542 190.672 542 191.5C542 192.328 542.672 193 543.5 193C544.328 193 545 192.328 545 191.5Z" fill="#C4C4C4"/>
<path d="M543.5 184C544.328 184 545 184.672 545 185.5C545 186.328 544.328 187 543.5 187C542.672 187 542 186.328 542 185.5C542 184.672 542.672 184 543.5 184Z" fill="#C4C4C4"/>
<path d="M545 179.5C545 178.672 544.328 178 543.5 178C542.672 178 542 178.672 542 179.5C542 180.328 542.672 181 543.5 181C544.328 181 545 180.328 545 179.5Z" fill="#C4C4C4"/>
<path d="M543.5 172C544.328 172 545 172.672 545 173.5C545 174.328 544.328 175 543.5 175C542.672 175 542 174.328 542 173.5C542 172.672 542.672 172 543.5 172Z" fill="#C4C4C4"/>
<path d="M545 167.5C545 166.672 544.328 166 543.5 166C542.672 166 542 166.672 542 167.5C542 168.328 542.672 169 543.5 169C544.328 169 545 168.328 545 167.5Z" fill="#C4C4C4"/>
<path d="M543.5 160C544.328 160 545 160.672 545 161.5C545 162.328 544.328 163 543.5 163C542.672 163 542 162.328 542 161.5C542 160.672 542.672 160 543.5 160Z" fill="#C4C4C4"/>
<path d="M545 155.5C545 154.672 544.328 154 543.5 154C542.672 154 542 154.672 542 155.5C542 156.328 542.672 157 543.5 157C544.328 157 545 156.328 545 155.5Z" fill="#C4C4C4"/>
<path d="M548.5 196C549.328 196 550 196.672 550 197.5C550 198.328 549.328 199 548.5 199C547.672 199 547 198.328 547 197.5C547 196.672 547.672 196 548.5 196Z" fill="#C4C4C4"/>
<path d="M550 191.5C550 190.672 549.328 190 548.5 190C547.672 190 547 190.672 547 191.5C547 192.328 547.672 193 548.5 193C549.328 193 550 192.328 550 191.5Z" fill="#C4C4C4"/>
<path d="M548.5 184C549.328 184 550 184.672 550 185.5C550 186.328 549.328 187 548.5 187C547.672 187 547 186.328 547 185.5C547 184.672 547.672 184 548.5 184Z" fill="#C4C4C4"/>
<path d="M550 179.5C550 178.672 549.328 178 548.5 178C547.672 178 547 178.672 547 179.5C547 180.328 547.672 181 548.5 181C549.328 181 550 180.328 550 179.5Z" fill="#C4C4C4"/>
<path d="M548.5 172C549.328 172 550 172.672 550 173.5C550 174.328 549.328 175 548.5 175C547.672 175 547 174.328 547 173.5C547 172.672 547.672 172 548.5 172Z" fill="#C4C4C4"/>
<path d="M550 167.5C550 166.672 549.328 166 548.5 166C547.672 166 547 166.672 547 167.5C547 168.328 547.672 169 548.5 169C549.328 169 550 168.328 550 167.5Z" fill="#C4C4C4"/>
<path d="M548.5 160C549.328 160 550 160.672 550 161.5C550 162.328 549.328 163 548.5 163C547.672 163 547 162.328 547 161.5C547 160.672 547.672 160 548.5 160Z" fill="#C4C4C4"/>
<path d="M550 155.5C550 154.672 549.328 154 548.5 154C547.672 154 547 154.672 547 155.5C547 156.328 547.672 157 548.5 157C549.328 157 550 156.328 550 155.5Z" fill="#C4C4C4"/>
<path d="M553.5 196C554.328 196 555 196.672 555 197.5C555 198.328 554.328 199 553.5 199C552.672 199 552 198.328 552 197.5C552 196.672 552.672 196 553.5 196Z" fill="#C4C4C4"/>
<path d="M555 191.5C555 190.672 554.328 190 553.5 190C552.672 190 552 190.672 552 191.5C552 192.328 552.672 193 553.5 193C554.328 193 555 192.328 555 191.5Z" fill="#C4C4C4"/>
<path d="M553.5 184C554.328 184 555 184.672 555 185.5C555 186.328 554.328 187 553.5 187C552.672 187 552 186.328 552 185.5C552 184.672 552.672 184 553.5 184Z" fill="#C4C4C4"/>
<path d="M555 179.5C555 178.672 554.328 178 553.5 178C552.672 178 552 178.672 552 179.5C552 180.328 552.672 181 553.5 181C554.328 181 555 180.328 555 179.5Z" fill="#C4C4C4"/>
<path d="M553.5 172C554.328 172 555 172.672 555 173.5C555 174.328 554.328 175 553.5 175C552.672 175 552 174.328 552 173.5C552 172.672 552.672 172 553.5 172Z" fill="#C4C4C4"/>
<path d="M555 167.5C555 166.672 554.328 166 553.5 166C552.672 166 552 166.672 552 167.5C552 168.328 552.672 169 553.5 169C554.328 169 555 168.328 555 167.5Z" fill="#C4C4C4"/>
<path d="M553.5 160C554.328 160 555 160.672 555 161.5C555 162.328 554.328 163 553.5 163C552.672 163 552 162.328 552 161.5C552 160.672 552.672 160 553.5 160Z" fill="#C4C4C4"/>
<path d="M555 155.5C555 154.672 554.328 154 553.5 154C552.672 154 552 154.672 552 155.5C552 156.328 552.672 157 553.5 157C554.328 157 555 156.328 555 155.5Z" fill="#C4C4C4"/>
<path d="M558.5 196C559.328 196 560 196.672 560 197.5C560 198.328 559.328 199 558.5 199C557.672 199 557 198.328 557 197.5C557 196.672 557.672 196 558.5 196Z" fill="#C4C4C4"/>
<path d="M560 191.5C560 190.672 559.328 190 558.5 190C557.672 190 557 190.672 557 191.5C557 192.328 557.672 193 558.5 193C559.328 193 560 192.328 560 191.5Z" fill="#C4C4C4"/>
<path d="M558.5 184C559.328 184 560 184.672 560 185.5C560 186.328 559.328 187 558.5 187C557.672 187 557 186.328 557 185.5C557 184.672 557.672 184 558.5 184Z" fill="#C4C4C4"/>
<path d="M560 179.5C560 178.672 559.328 178 558.5 178C557.672 178 557 178.672 557 179.5C557 180.328 557.672 181 558.5 181C559.328 181 560 180.328 560 179.5Z" fill="#C4C4C4"/>
<path d="M558.5 172C559.328 172 560 172.672 560 173.5C560 174.328 559.328 175 558.5 175C557.672 175 557 174.328 557 173.5C557 172.672 557.672 172 558.5 172Z" fill="#C4C4C4"/>
<path d="M560 167.5C560 166.672 559.328 166 558.5 166C557.672 166 557 166.672 557 167.5C557 168.328 557.672 169 558.5 169C559.328 169 560 168.328 560 167.5Z" fill="#C4C4C4"/>
<path d="M558.5 160C559.328 160 560 160.672 560 161.5C560 162.328 559.328 163 558.5 163C557.672 163 557 162.328 557 161.5C557 160.672 557.672 160 558.5 160Z" fill="#C4C4C4"/>
<path d="M560 155.5C560 154.672 559.328 154 558.5 154C557.672 154 557 154.672 557 155.5C557 156.328 557.672 157 558.5 157C559.328 157 560 156.328 560 155.5Z" fill="#C4C4C4"/>
<defs>
<linearGradient id="paint0_linear" x1="-67" y1="97.0001" x2="789" y2="59" gradientUnits="userSpaceOnUse">
<stop stop-color="#091AAE"/>
<stop offset="1" stop-color="#00114B"/>
</linearGradient>
<linearGradient id="paint1_linear" x1="262.5" y1="178" x2="262.5" y2="0" gradientUnits="userSpaceOnUse">
<stop stop-color="#000B40"/>
<stop offset="1" stop-color="#021055" stop-opacity="0"/>
</linearGradient>
</defs>
</svg>
