<svg width="22" height="22" viewBox="0 0 22 22" fill="none" xmlns="http://www.w3.org/2000/svg">
<g clip-path="url(#clip0)">
<path d="M16.4637 7.69875C16.3465 7.5581 16.1998 7.44498 16.034 7.36742C15.8681 7.28987 15.6872 7.24978 15.5042 7.25H8.7675L8.75 7.10375C8.71419 6.79976 8.56808 6.51947 8.33937 6.31603C8.11066 6.11259 7.81526 6.00014 7.50917 6H7.41667C7.30616 6 7.20018 6.0439 7.12204 6.12204C7.0439 6.20018 7 6.30616 7 6.41667C7 6.52717 7.0439 6.63315 7.12204 6.71129C7.20018 6.78943 7.30616 6.83333 7.41667 6.83333H7.50917C7.61122 6.83335 7.70972 6.87082 7.78599 6.93863C7.86225 7.00645 7.91098 7.0999 7.92292 7.20125L8.49625 12.0763C8.55577 12.5832 8.79937 13.0507 9.18079 13.39C9.56222 13.7293 10.0549 13.9167 10.5654 13.9167H14.9167C15.0272 13.9167 15.1332 13.8728 15.2113 13.7946C15.2894 13.7165 15.3333 13.6105 15.3333 13.5C15.3333 13.3895 15.2894 13.2835 15.2113 13.2054C15.1332 13.1272 15.0272 13.0833 14.9167 13.0833H10.5654C10.3075 13.0826 10.0562 13.0021 9.84581 12.8529C9.63545 12.7038 9.47638 12.4931 9.39042 12.25H14.3571C14.8455 12.25 15.3185 12.0784 15.6933 11.7652C16.068 11.4519 16.3208 11.017 16.4075 10.5363L16.7346 8.72208C16.7672 8.54209 16.7599 8.35711 16.7131 8.18027C16.6663 8.00342 16.5812 7.83903 16.4637 7.69875ZM15.9167 8.57417L15.5892 10.3883C15.5371 10.6771 15.3852 10.9383 15.1599 11.1263C14.9347 11.3143 14.6505 11.4171 14.3571 11.4167H9.25792L8.86583 8.08333H15.5042C15.5654 8.08297 15.6259 8.09609 15.6815 8.12177C15.737 8.14745 15.7863 8.18506 15.8256 8.23192C15.865 8.27878 15.8936 8.33374 15.9093 8.39289C15.9251 8.45204 15.9276 8.51394 15.9167 8.57417Z" fill="black" fill-opacity="0.51"/>
<path d="M9.91659 16C10.3768 16 10.7499 15.6269 10.7499 15.1666C10.7499 14.7064 10.3768 14.3333 9.91659 14.3333C9.45635 14.3333 9.08325 14.7064 9.08325 15.1666C9.08325 15.6269 9.45635 16 9.91659 16Z" fill="black" fill-opacity="0.51"/>
<path d="M14.0833 16C14.5436 16 14.9167 15.6269 14.9167 15.1666C14.9167 14.7064 14.5436 14.3333 14.0833 14.3333C13.6231 14.3333 13.25 14.7064 13.25 15.1666C13.25 15.6269 13.6231 16 14.0833 16Z" fill="black" fill-opacity="0.51"/>
</g>
<circle cx="11" cy="11" r="11" fill="#C4C4C4" fill-opacity="0.27"/>
<defs>
<clipPath id="clip0">
<rect width="10" height="10" fill="white" transform="translate(7 6)"/>
</clipPath>
</defs>
</svg>
