<svg width="22" height="22" viewBox="0 0 22 22" fill="none" xmlns="http://www.w3.org/2000/svg">
<circle cx="11" cy="11" r="11" fill="#C4C4C4" fill-opacity="0.27"/>
<g clip-path="url(#clip0)">
<path d="M14.5 7H8.5C8.10218 7 7.72064 7.15804 7.43934 7.43934C7.15804 7.72064 7 8.10218 7 8.5V13C7 13.3978 7.15804 13.7794 7.43934 14.0607C7.72064 14.342 8.10218 14.5 8.5 14.5H9.5875L11.2566 15.9111C11.3243 15.9684 11.4102 15.9999 11.4989 15.9999C11.5876 15.9999 11.6734 15.9684 11.7411 15.9111L13.4125 14.5H14.5C14.8978 14.5 15.2794 14.342 15.5607 14.0607C15.842 13.7794 16 13.3978 16 13V8.5C16 8.10218 15.842 7.72064 15.5607 7.43934C15.2794 7.15804 14.8978 7 14.5 7V7ZM15.25 13C15.25 13.1989 15.171 13.3897 15.0303 13.5303C14.8897 13.671 14.6989 13.75 14.5 13.75H13.4125C13.2352 13.7501 13.0637 13.8129 12.9284 13.9274L11.5 15.1337L10.0724 13.9274C9.93684 13.8127 9.76502 13.7499 9.5875 13.75H8.5C8.30109 13.75 8.11032 13.671 7.96967 13.5303C7.82902 13.3897 7.75 13.1989 7.75 13V8.5C7.75 8.30109 7.82902 8.11032 7.96967 7.96967C8.11032 7.82902 8.30109 7.75 8.5 7.75H14.5C14.6989 7.75 14.8897 7.82902 15.0303 7.96967C15.171 8.11032 15.25 8.30109 15.25 8.5V13Z" fill="black" fill-opacity="0.45"/>
<path d="M9.625 9.625H11.5C11.5995 9.625 11.6948 9.58549 11.7652 9.51516C11.8355 9.44484 11.875 9.34946 11.875 9.25C11.875 9.15054 11.8355 9.05516 11.7652 8.98484C11.6948 8.91451 11.5995 8.875 11.5 8.875H9.625C9.52554 8.875 9.43016 8.91451 9.35984 8.98484C9.28951 9.05516 9.25 9.15054 9.25 9.25C9.25 9.34946 9.28951 9.44484 9.35984 9.51516C9.43016 9.58549 9.52554 9.625 9.625 9.625ZM13.375 10.375H9.625C9.52554 10.375 9.43016 10.4145 9.35984 10.4848C9.28951 10.5552 9.25 10.6505 9.25 10.75C9.25 10.8495 9.28951 10.9448 9.35984 11.0152C9.43016 11.0855 9.52554 11.125 9.625 11.125H13.375C13.4745 11.125 13.5698 11.0855 13.6402 11.0152C13.7105 10.9448 13.75 10.8495 13.75 10.75C13.75 10.6505 13.7105 10.5552 13.6402 10.4848C13.5698 10.4145 13.4745 10.375 13.375 10.375ZM13.375 11.875H9.625C9.52554 11.875 9.43016 11.9145 9.35984 11.9848C9.28951 12.0552 9.25 12.1505 9.25 12.25C9.25 12.3495 9.28951 12.4448 9.35984 12.5152C9.43016 12.5855 9.52554 12.625 9.625 12.625H13.375C13.4745 12.625 13.5698 12.5855 13.6402 12.5152C13.7105 12.4448 13.75 12.3495 13.75 12.25C13.75 12.1505 13.7105 12.0552 13.6402 11.9848C13.5698 11.9145 13.4745 11.875 13.375 11.875Z" fill="black" fill-opacity="0.45"/>
</g>
<defs>
<clipPath id="clip0">
<rect width="9" height="9" fill="white" transform="translate(7 7)"/>
</clipPath>
</defs>
</svg>
