<svg width="16" height="16" viewBox="0 0 16 16" fill="none" xmlns="http://www.w3.org/2000/svg">
<g clip-path="url(#clip0)">
<path d="M9.22032 9.08745C9.14545 8.91277 8.99572 8.76304 8.79608 8.68817L8.8959 8.43862C8.94581 8.31385 8.87095 8.16412 8.74617 8.11421C8.6214 8.06429 8.47167 8.13916 8.42176 8.26394L8.32194 8.51349C7.94762 8.38871 7.52338 8.58835 7.37366 8.96268C7.29879 9.18728 7.32375 9.46178 7.47348 9.66142L8.22212 10.6347C8.27203 10.7095 8.27203 10.7844 8.24708 10.8593L8.17221 11.034C8.1223 11.1587 7.97257 11.2336 7.8478 11.1837L7.42357 11.034C7.3487 11.009 7.29879 10.9591 7.27384 10.9092C7.24888 10.8593 7.24888 10.7844 7.24888 10.7345L7.3487 10.4849C7.39861 10.3602 7.32375 10.2104 7.19897 10.1605C7.0742 10.1106 6.92447 10.1855 6.87456 10.3103L6.77474 10.5598C6.69987 10.7594 6.69987 10.9591 6.79969 11.1338C6.87456 11.3085 7.02429 11.4332 7.19897 11.5081L7.09915 11.7577C7.04924 11.8824 7.12411 12.0322 7.24888 12.0821C7.27384 12.0821 7.29879 12.107 7.3487 12.107C7.44852 12.107 7.54834 12.0571 7.57329 11.9573L7.67311 11.6828C7.74798 11.7077 7.8478 11.7327 7.92266 11.7327C8.22212 11.7327 8.52158 11.5331 8.64635 11.2336L8.72122 11.0589C8.79608 10.8343 8.77113 10.5598 8.6214 10.3602L7.87275 9.38692C7.82284 9.31205 7.82284 9.23719 7.8478 9.16232C7.89771 9.03754 8.04744 8.96268 8.17221 9.01259L8.59644 9.16232C8.67131 9.18727 8.72122 9.23719 8.74617 9.2871C8.77113 9.33701 8.77113 9.41187 8.74617 9.48674V9.5616C8.69626 9.68638 8.77113 9.83611 8.8959 9.88602C9.02068 9.93593 9.17041 9.86106 9.22032 9.73629L9.24527 9.66142C9.32014 9.46178 9.32014 9.26214 9.22032 9.08745Z" fill="black"/>
<path d="M4.45382 7.96447C4.25418 7.68996 3.95472 7.49032 3.60535 7.41546C3.53049 7.3905 3.45562 7.3905 3.38076 7.3905C2.75688 7.3905 2.20787 7.83969 2.10805 8.46357C2.05814 8.81294 2.13301 9.16231 2.33265 9.43681C2.53229 9.71132 2.83175 9.91096 3.18112 9.98582C3.25598 9.98582 3.33085 10.0108 3.40571 10.0108C4.02959 10.0108 4.5786 9.56159 4.67842 8.93771C4.72833 8.58834 4.65346 8.23897 4.45382 7.96447ZM4.22923 8.81294C4.15436 9.23717 3.73013 9.56159 3.30589 9.46177C3.05634 9.46177 2.88166 9.33699 2.75688 9.16231C2.63211 8.98762 2.5822 8.76303 2.63211 8.56339C2.70697 8.16411 3.03139 7.8896 3.43067 7.8896C3.48058 7.8896 3.53049 7.8896 3.5804 7.8896C3.78004 7.93951 3.97968 8.03933 4.10445 8.21402C4.22923 8.3887 4.27914 8.6133 4.22923 8.81294Z" fill="black"/>
<path d="M13.9367 9.96087C13.737 9.68636 13.4376 9.48672 13.0882 9.41186C13.0133 9.3869 12.9385 9.3869 12.8636 9.3869C12.2397 9.3869 11.6907 9.83609 11.5909 10.46C11.541 10.8093 11.6159 11.1587 11.8155 11.4332C12.0151 11.7327 12.3146 11.9074 12.664 11.9822C12.7388 12.0072 12.8137 12.0072 12.8886 12.0072C13.5124 12.0072 14.0615 11.558 14.1613 10.9341C14.2112 10.5847 14.1363 10.2354 13.9367 9.96087ZM13.7121 10.7844C13.6372 11.2086 13.213 11.5081 12.7887 11.4332C12.5891 11.3833 12.3895 11.2835 12.2647 11.1088C12.115 10.984 12.065 10.7594 12.115 10.5348C12.1898 10.1356 12.5142 9.86105 12.9135 9.86105C12.9634 9.86105 13.0133 9.86105 13.0633 9.86105C13.2629 9.91096 13.4625 10.0108 13.5873 10.1855C13.7121 10.3601 13.762 10.5847 13.7121 10.7844Z" fill="black"/>
<path d="M15.9322 6.34242C15.8823 6.29251 15.8324 6.2426 15.7576 6.2426L15.2585 6.16774L15.4831 3.62233C15.4831 3.54746 15.4581 3.49755 15.4331 3.42269C15.3832 3.37278 15.3333 3.34782 15.2585 3.34782H14.8093L14.3102 0.20349C14.2852 0.0787146 14.1604 -0.0211054 14.0357 0.00384959L0.235541 2.2498C0.160676 2.2498 0.110766 2.29971 0.060856 2.34962C0.010946 2.39953 0.010946 2.49935 0.010946 2.54926L1.0341 7.61513L0.010946 13.0054C-0.014009 13.1302 0.060856 13.255 0.185631 13.3049L1.90753 13.7291C2.0323 13.7541 2.18203 13.6792 2.20699 13.5544C2.2569 13.4047 2.15708 13.2799 2.0323 13.23L0.559956 12.8557L2.10717 4.62053L15.4331 6.69179L13.7612 15.476L3.05546 13.4296C2.93068 13.4047 2.78095 13.5045 2.756 13.6293C2.73104 13.7541 2.83086 13.8788 2.95564 13.9038L13.9109 16C13.9358 16 13.9358 16 13.9608 16C14.0856 16 14.1854 15.9251 14.2103 15.8004L15.9822 6.54206C16.0071 6.4672 15.9822 6.41729 15.9322 6.34242ZM14.7843 6.09287L1.93248 4.09647C1.80771 4.07152 1.68293 4.17134 1.65798 4.29611L1.55816 4.79521V3.49755L9.99295 3.7471C10.1177 3.7471 10.2425 3.62233 10.2425 3.49755C10.2425 3.34782 10.1427 3.248 9.99295 3.22305L1.30861 2.99845C1.23374 2.99845 1.18383 3.02341 1.13392 3.07332C1.08401 3.12323 1.05906 3.17314 1.05906 3.248L1.08401 5.26936L0.584911 2.72395L13.8859 0.55286L14.3601 3.34782L11.2906 3.248C11.1409 3.248 11.0411 3.34782 11.0411 3.49755C11.0411 3.64728 11.1409 3.7471 11.2906 3.7471L14.984 3.84692L14.7843 6.09287Z" fill="black"/>
<path d="M8.54659 7.01622C8.3719 6.99126 8.19722 6.96631 8.02253 6.96631C6.55019 6.96631 5.30244 8.01442 5.05289 9.46181C4.75343 11.1088 5.85145 12.681 7.49848 12.9805C7.67316 13.0054 7.84785 13.0304 8.02253 13.0304C9.49488 13.0304 10.7426 11.9823 10.9922 10.5349C11.2916 8.88784 10.1936 7.31568 8.54659 7.01622ZM10.4931 10.4351C10.2685 11.6579 9.24533 12.5313 8.02253 12.5313C7.8728 12.5313 7.72307 12.5063 7.57334 12.4814C6.20082 12.2318 5.30244 10.9342 5.52703 9.53667C5.75163 8.31388 6.77478 7.44045 7.99758 7.44045C8.14731 7.44045 8.29704 7.46541 8.44677 7.49036C9.8193 7.73991 10.7177 9.03758 10.4931 10.4351Z" fill="black"/>
</g>
<defs>
<clipPath id="clip0">
<rect width="16" height="16" fill="white"/>
</clipPath>
</defs>
</svg>
