<svg width="15" height="15" viewBox="0 0 15 15" fill="none" xmlns="http://www.w3.org/2000/svg">
<path d="M14.9509 6.77719L14.0605 5.67594V2.86423C14.0605 2.1613 13.6856 1.50524 13.053 1.15377C12.3267 0.732018 11.53 0.568002 10.7334 0.614864C9.30407 0.708588 8.36683 1.50524 8.0388 1.8567C7.94507 1.95043 7.94507 2.11444 8.0388 2.20817C8.13252 2.30189 8.29654 2.30189 8.39026 2.20817C8.67143 1.88013 9.51495 1.17721 10.7568 1.08348C11.4597 1.03662 12.1626 1.20064 12.8187 1.57553C13.2873 1.83327 13.5919 2.34875 13.5919 2.88766V5.76966C13.5919 5.81653 13.6154 5.88682 13.6388 5.93368L14.248 6.7069H13.8262C13.7559 6.7069 13.7091 6.73033 13.6622 6.77719C13.6154 6.82406 13.5919 6.87092 13.5919 6.94121V9.40146C13.5919 9.98723 13.1233 10.4558 12.5375 10.4558H10.0773C9.9367 10.4558 9.84298 10.5496 9.84298 10.6902V14.2048C9.84298 14.3454 9.9367 14.4391 10.0773 14.4391C10.2179 14.4391 10.3116 14.3219 10.3116 14.2048V10.9245H12.5375C13.381 10.9245 14.0605 10.245 14.0605 9.40146V7.17552H14.7635C14.8572 7.17552 14.9509 7.12866 14.9743 7.03493C15.0212 6.94121 14.9978 6.84749 14.9509 6.77719Z" fill="black"/>
<path d="M12.4205 4.83239C12.5499 4.83239 12.6548 4.72748 12.6548 4.59808C12.6548 4.46867 12.5499 4.36377 12.4205 4.36377C12.2911 4.36377 12.1862 4.46867 12.1862 4.59808C12.1862 4.72748 12.2911 4.83239 12.4205 4.83239Z" fill="black"/>
<path d="M6.96122 1.83327C6.60975 1.48181 5.67252 0.638296 4.2198 0.568003C3.42315 0.521142 2.64993 0.708589 1.92357 1.13035C1.31437 1.48181 0.939471 2.16131 0.939471 2.88766V5.67594L0.0490967 6.77719C0.00223484 6.84749 -0.0211961 6.94121 0.0256657 7.03493C0.0490967 7.12866 0.14282 7.17552 0.236544 7.17552H0.939471V9.40146C0.939471 10.245 1.61897 10.9245 2.46248 10.9245H4.68842V14.2048C4.68842 14.3454 4.78214 14.4391 4.92273 14.4391C5.06331 14.4391 5.15704 14.3219 5.15704 14.2048V10.6902C5.15704 10.5496 5.06331 10.4558 4.92273 10.4558H2.46248C1.87671 10.4558 1.40809 9.98723 1.40809 9.40146V6.94121C1.40809 6.87092 1.38466 6.82406 1.3378 6.77719C1.29094 6.73033 1.24407 6.7069 1.17378 6.7069H0.728593L1.3378 5.93368C1.38466 5.88682 1.40809 5.81653 1.40809 5.76967V2.88766C1.40809 2.32532 1.71269 1.80984 2.18131 1.5521C2.81394 1.17721 3.49344 1.01319 4.19637 1.06005C5.46164 1.13035 6.30515 1.88013 6.60975 2.18474C6.70348 2.27846 6.86749 2.27846 6.96122 2.18474C7.05494 2.09101 7.05494 1.95043 6.96122 1.83327Z" fill="black"/>
<path d="M2.57946 4.83239C2.70887 4.83239 2.81377 4.72748 2.81377 4.59808C2.81377 4.46867 2.70887 4.36377 2.57946 4.36377C2.45006 4.36377 2.34515 4.46867 2.34515 4.59808C2.34515 4.72748 2.45006 4.83239 2.57946 4.83239Z" fill="black"/>
<path d="M9.14019 12.7989C9.2696 12.7989 9.3745 12.694 9.3745 12.5646C9.3745 12.4352 9.2696 12.3303 9.14019 12.3303C9.01079 12.3303 8.90588 12.4352 8.90588 12.5646C8.90588 12.694 9.01079 12.7989 9.14019 12.7989Z" fill="black"/>
<path d="M3.98535 12.7989C4.11475 12.7989 4.21966 12.694 4.21966 12.5646C4.21966 12.4352 4.11475 12.3303 3.98535 12.3303C3.85594 12.3303 3.75104 12.4352 3.75104 12.5646C3.75104 12.694 3.85594 12.7989 3.98535 12.7989Z" fill="black"/>
<path d="M9.14019 13.0332C8.99961 13.0332 8.90588 13.1269 8.90588 13.2675V13.9704C8.90588 14.111 8.99961 14.2047 9.14019 14.2047C9.28078 14.2047 9.3745 14.111 9.3745 13.9704V13.2675C9.3745 13.1269 9.28078 13.0332 9.14019 13.0332Z" fill="black"/>
<path d="M3.98535 13.0332C3.84476 13.0332 3.75104 13.1269 3.75104 13.2675V13.9704C3.75104 14.111 3.84476 14.2047 3.98535 14.2047C4.12593 14.2047 4.21966 14.111 4.21966 13.9704V13.2675C4.21966 13.1269 4.12593 13.0332 3.98535 13.0332Z" fill="black"/>
<path d="M9.56196 3.7546C9.49166 3.66088 9.32765 3.63745 9.23392 3.70774C9.1402 3.77803 9.11677 3.94205 9.18706 4.03577L9.60882 4.59812H5.85986C5.71927 4.59812 5.62555 4.69184 5.62555 4.83243C5.62555 4.97301 5.71927 5.06673 5.85986 5.06673H9.60882L9.18706 5.62908C9.11677 5.7228 9.1402 5.88682 9.23392 5.95711C9.28079 5.98054 9.32765 6.00397 9.37451 6.00397C9.4448 6.00397 9.5151 5.98054 9.56196 5.91025L10.382 4.83243L9.56196 3.7546Z" fill="black"/>
<path d="M9.3745 7.40982H5.6724L6.09416 6.84748C6.16445 6.75376 6.14102 6.58974 6.0473 6.51945C5.95357 6.44916 5.78955 6.47259 5.71926 6.56631L5.08662 7.43325C4.9929 7.45668 4.92261 7.55041 4.92261 7.64413C4.92261 7.73786 4.9929 7.83158 5.08662 7.85501L5.71926 8.72195C5.76612 8.79225 5.83642 8.81568 5.90671 8.81568C5.95357 8.81568 6.00043 8.79225 6.0473 8.76881C6.14102 8.69852 6.16445 8.53451 6.09416 8.44078L5.6724 7.87844H9.3745C9.51509 7.87844 9.60881 7.78472 9.60881 7.64413C9.60881 7.50355 9.51509 7.40982 9.3745 7.40982Z" fill="black"/>
</svg>
