<svg width="16" height="16" viewBox="0 0 16 16" fill="none" xmlns="http://www.w3.org/2000/svg">
<path d="M7.99998 0C3.58888 0 0 3.58888 0 7.99998C0 12.4111 3.58888 16 7.99998 16C12.4111 16 16 12.4111 16 7.99998C16 3.58888 12.4111 0 7.99998 0ZM7.99998 15.3043C3.97216 15.3043 0.695641 12.0278 0.695641 7.99998C0.695641 3.97216 3.97216 0.695641 7.99998 0.695641C12.0278 0.695641 15.3043 3.97216 15.3043 7.99998C15.3043 12.0278 12.0278 15.3043 7.99998 15.3043Z" fill="black"/>
<path d="M11.3767 10.8849L8.34783 7.856V2.43481C8.34783 2.24281 8.192 2.08698 8 2.08698C7.808 2.08698 7.65216 2.24281 7.65216 2.43481V8.00003C7.65216 8.09255 7.68904 8.18091 7.75374 8.24629L10.8842 11.3767C10.9523 11.4442 11.0414 11.4783 11.1304 11.4783C11.2195 11.4783 11.3085 11.4442 11.3767 11.3767C11.5123 11.241 11.5123 11.0205 11.3767 10.8849Z" fill="black"/>
</svg>
