<svg width="7" height="12" viewBox="0 0 7 12" fill="none" xmlns="http://www.w3.org/2000/svg">
<path d="M6.65947 7.468C6.65947 8.132 6.44347 8.672 6.01147 9.088C5.57947 9.496 5.02347 9.752 4.34347 9.856V11.2H2.74747V9.82C2.08347 9.676 1.52347 9.396 1.06747 8.98C0.619469 8.564 0.363469 8.052 0.299469 7.444L2.17147 7.084C2.22747 7.532 2.39147 7.856 2.66347 8.056C2.94347 8.256 3.27147 8.356 3.64747 8.356C3.97547 8.356 4.23947 8.284 4.43947 8.14C4.64747 7.996 4.75147 7.812 4.75147 7.588C4.75147 7.252 4.52347 7.032 4.06747 6.928L2.54347 6.592C1.16747 6.296 0.479469 5.584 0.479469 4.456C0.479469 3.816 0.683469 3.292 1.09147 2.884C1.50747 2.468 2.05947 2.204 2.74747 2.092V0.76H4.34347V2.128C4.98347 2.272 5.50347 2.548 5.90347 2.956C6.31147 3.364 6.54347 3.868 6.59947 4.468L4.77547 4.78C4.74347 4.34 4.59947 4.024 4.34347 3.832C4.08747 3.64 3.79147 3.544 3.45547 3.544C3.15947 3.544 2.91947 3.616 2.73547 3.76C2.55147 3.904 2.45947 4.084 2.45947 4.3C2.45947 4.628 2.65547 4.836 3.04747 4.924L4.59547 5.272C5.97147 5.584 6.65947 6.316 6.65947 7.468Z" fill="black" fill-opacity="0.57"/>
</svg>
