<svg width="32" height="32" viewBox="0 0 32 32" fill="none" xmlns="http://www.w3.org/2000/svg">
<g clip-path="url(#clip0)">
<path d="M16 32.0028C24.8366 32.0028 32 24.8393 32 16.0028C32 7.16623 24.8366 0.00279427 16 0.00279427C7.16344 0.00279427 0 7.16623 0 16.0028C0 24.8393 7.16344 32.0028 16 32.0028Z" fill="#1977F3"/>
<path d="M22.228 20.6283L22.9367 16.0022H18.4997V13.0007C18.4997 11.7362 19.1184 10.5009 21.1075 10.5009H23.1257V6.56335C23.1257 6.56335 21.2942 6.2506 19.5437 6.2506C15.8896 6.2506 13.5001 8.46463 13.5001 12.4764V16.0022H9.43652V20.6283H13.5001V31.8087C14.3146 31.937 15.1494 32.0022 15.9999 32.0022C16.8504 32.0022 17.6852 31.9347 18.4997 31.8087V20.6283H22.228Z" fill="white"/>
</g>
<defs>
<clipPath id="clip0">
<rect width="32" height="32" fill="white"/>
</clipPath>
</defs>
</svg>
