<svg width="108" height="93" viewBox="0 0 108 93" fill="none" xmlns="http://www.w3.org/2000/svg">
<path d="M3 43.5C3 42.6716 2.32843 42 1.5 42C0.671573 42 0 42.6716 0 43.5C0 44.3284 0.671573 45 1.5 45C2.32843 45 3 44.3284 3 43.5Z" fill="#C4C4C4"/>
<path d="M3 37.5C3 36.6716 2.32843 36 1.5 36C0.671573 36 0 36.6716 0 37.5C0 38.3284 0.671573 39 1.5 39C2.32843 39 3 38.3284 3 37.5Z" fill="#C4C4C4"/>
<path d="M1.5 30C2.32843 30 3 30.6716 3 31.5C3 32.3284 2.32843 33 1.5 33C0.671573 33 0 32.3284 0 31.5C0 30.6716 0.671573 30 1.5 30Z" fill="#C4C4C4"/>
<path d="M3 25.5C3 24.6716 2.32843 24 1.5 24C0.671573 24 0 24.6716 0 25.5C0 26.3284 0.671573 27 1.5 27C2.32843 27 3 26.3284 3 25.5Z" fill="#C4C4C4"/>
<path d="M1.5 18C2.32843 18 3 18.6716 3 19.5C3 20.3284 2.32843 21 1.5 21C0.671573 21 0 20.3284 0 19.5C0 18.6716 0.671573 18 1.5 18Z" fill="#C4C4C4"/>
<path d="M3 13.5C3 12.6716 2.32843 12 1.5 12C0.671573 12 0 12.6716 0 13.5C0 14.3284 0.671573 15 1.5 15C2.32843 15 3 14.3284 3 13.5Z" fill="#C4C4C4"/>
<path d="M1.5 6C2.32843 6 3 6.67157 3 7.5C3 8.32843 2.32843 9 1.5 9C0.671573 9 0 8.32843 0 7.5C0 6.67157 0.671573 6 1.5 6Z" fill="#C4C4C4"/>
<path d="M3 1.5C3 0.671574 2.32843 0 1.5 0C0.671573 0 0 0.671574 0 1.5C0 2.32843 0.671573 3 1.5 3C2.32843 3 3 2.32843 3 1.5Z" fill="#C4C4C4"/>
<path d="M6.5 42C7.32843 42 8 42.6716 8 43.5C8 44.3284 7.32843 45 6.5 45C5.67157 45 5 44.3284 5 43.5C5 42.6716 5.67157 42 6.5 42Z" fill="#C4C4C4"/>
<path d="M8 37.5C8 36.6716 7.32843 36 6.5 36C5.67157 36 5 36.6716 5 37.5C5 38.3284 5.67157 39 6.5 39C7.32843 39 8 38.3284 8 37.5Z" fill="#C4C4C4"/>
<path d="M6.5 30C7.32843 30 8 30.6716 8 31.5C8 32.3284 7.32843 33 6.5 33C5.67157 33 5 32.3284 5 31.5C5 30.6716 5.67157 30 6.5 30Z" fill="#C4C4C4"/>
<path d="M8 25.5C8 24.6716 7.32843 24 6.5 24C5.67157 24 5 24.6716 5 25.5C5 26.3284 5.67157 27 6.5 27C7.32843 27 8 26.3284 8 25.5Z" fill="#C4C4C4"/>
<path d="M6.5 18C7.32843 18 8 18.6716 8 19.5C8 20.3284 7.32843 21 6.5 21C5.67157 21 5 20.3284 5 19.5C5 18.6716 5.67157 18 6.5 18Z" fill="#C4C4C4"/>
<path d="M8 13.5C8 12.6716 7.32843 12 6.5 12C5.67157 12 5 12.6716 5 13.5C5 14.3284 5.67157 15 6.5 15C7.32843 15 8 14.3284 8 13.5Z" fill="#C4C4C4"/>
<path d="M6.5 6C7.32843 6 8 6.67157 8 7.5C8 8.32843 7.32843 9 6.5 9C5.67157 9 5 8.32843 5 7.5C5 6.67157 5.67157 6 6.5 6Z" fill="#C4C4C4"/>
<path d="M8 1.5C8 0.671574 7.32843 0 6.5 0C5.67157 0 5 0.671574 5 1.5C5 2.32843 5.67157 3 6.5 3C7.32843 3 8 2.32843 8 1.5Z" fill="#C4C4C4"/>
<path d="M11.5 42C12.3284 42 13 42.6716 13 43.5C13 44.3284 12.3284 45 11.5 45C10.6716 45 10 44.3284 10 43.5C10 42.6716 10.6716 42 11.5 42Z" fill="#C4C4C4"/>
<path d="M13 37.5C13 36.6716 12.3284 36 11.5 36C10.6716 36 10 36.6716 10 37.5C10 38.3284 10.6716 39 11.5 39C12.3284 39 13 38.3284 13 37.5Z" fill="#C4C4C4"/>
<path d="M11.5 30C12.3284 30 13 30.6716 13 31.5C13 32.3284 12.3284 33 11.5 33C10.6716 33 10 32.3284 10 31.5C10 30.6716 10.6716 30 11.5 30Z" fill="#C4C4C4"/>
<path d="M13 25.5C13 24.6716 12.3284 24 11.5 24C10.6716 24 10 24.6716 10 25.5C10 26.3284 10.6716 27 11.5 27C12.3284 27 13 26.3284 13 25.5Z" fill="#C4C4C4"/>
<path d="M11.5 18C12.3284 18 13 18.6716 13 19.5C13 20.3284 12.3284 21 11.5 21C10.6716 21 10 20.3284 10 19.5C10 18.6716 10.6716 18 11.5 18Z" fill="#C4C4C4"/>
<path d="M13 13.5C13 12.6716 12.3284 12 11.5 12C10.6716 12 10 12.6716 10 13.5C10 14.3284 10.6716 15 11.5 15C12.3284 15 13 14.3284 13 13.5Z" fill="#C4C4C4"/>
<path d="M11.5 6C12.3284 6 13 6.67157 13 7.5C13 8.32843 12.3284 9 11.5 9C10.6716 9 10 8.32843 10 7.5C10 6.67157 10.6716 6 11.5 6Z" fill="#C4C4C4"/>
<path d="M13 1.5C13 0.671574 12.3284 0 11.5 0C10.6716 0 10 0.671574 10 1.5C10 2.32843 10.6716 3 11.5 3C12.3284 3 13 2.32843 13 1.5Z" fill="#C4C4C4"/>
<path d="M16.5 42C17.3284 42 18 42.6716 18 43.5C18 44.3284 17.3284 45 16.5 45C15.6716 45 15 44.3284 15 43.5C15 42.6716 15.6716 42 16.5 42Z" fill="#C4C4C4"/>
<path d="M18 37.5C18 36.6716 17.3284 36 16.5 36C15.6716 36 15 36.6716 15 37.5C15 38.3284 15.6716 39 16.5 39C17.3284 39 18 38.3284 18 37.5Z" fill="#C4C4C4"/>
<path d="M16.5 30C17.3284 30 18 30.6716 18 31.5C18 32.3284 17.3284 33 16.5 33C15.6716 33 15 32.3284 15 31.5C15 30.6716 15.6716 30 16.5 30Z" fill="#C4C4C4"/>
<path d="M18 25.5C18 24.6716 17.3284 24 16.5 24C15.6716 24 15 24.6716 15 25.5C15 26.3284 15.6716 27 16.5 27C17.3284 27 18 26.3284 18 25.5Z" fill="#C4C4C4"/>
<path d="M16.5 18C17.3284 18 18 18.6716 18 19.5C18 20.3284 17.3284 21 16.5 21C15.6716 21 15 20.3284 15 19.5C15 18.6716 15.6716 18 16.5 18Z" fill="#C4C4C4"/>
<path d="M18 13.5C18 12.6716 17.3284 12 16.5 12C15.6716 12 15 12.6716 15 13.5C15 14.3284 15.6716 15 16.5 15C17.3284 15 18 14.3284 18 13.5Z" fill="#C4C4C4"/>
<path d="M16.5 6C17.3284 6 18 6.67157 18 7.5C18 8.32843 17.3284 9 16.5 9C15.6716 9 15 8.32843 15 7.5C15 6.67157 15.6716 6 16.5 6Z" fill="#C4C4C4"/>
<path d="M18 1.5C18 0.671574 17.3284 0 16.5 0C15.6716 0 15 0.671574 15 1.5C15 2.32843 15.6716 3 16.5 3C17.3284 3 18 2.32843 18 1.5Z" fill="#C4C4C4"/>
<path d="M21.5 42C22.3284 42 23 42.6716 23 43.5C23 44.3284 22.3284 45 21.5 45C20.6716 45 20 44.3284 20 43.5C20 42.6716 20.6716 42 21.5 42Z" fill="#C4C4C4"/>
<path d="M23 37.5C23 36.6716 22.3284 36 21.5 36C20.6716 36 20 36.6716 20 37.5C20 38.3284 20.6716 39 21.5 39C22.3284 39 23 38.3284 23 37.5Z" fill="#C4C4C4"/>
<path d="M21.5 30C22.3284 30 23 30.6716 23 31.5C23 32.3284 22.3284 33 21.5 33C20.6716 33 20 32.3284 20 31.5C20 30.6716 20.6716 30 21.5 30Z" fill="#C4C4C4"/>
<path d="M23 25.5C23 24.6716 22.3284 24 21.5 24C20.6716 24 20 24.6716 20 25.5C20 26.3284 20.6716 27 21.5 27C22.3284 27 23 26.3284 23 25.5Z" fill="#C4C4C4"/>
<path d="M21.5 18C22.3284 18 23 18.6716 23 19.5C23 20.3284 22.3284 21 21.5 21C20.6716 21 20 20.3284 20 19.5C20 18.6716 20.6716 18 21.5 18Z" fill="#C4C4C4"/>
<path d="M23 13.5C23 12.6716 22.3284 12 21.5 12C20.6716 12 20 12.6716 20 13.5C20 14.3284 20.6716 15 21.5 15C22.3284 15 23 14.3284 23 13.5Z" fill="#C4C4C4"/>
<path d="M21.5 6C22.3284 6 23 6.67157 23 7.5C23 8.32843 22.3284 9 21.5 9C20.6716 9 20 8.32843 20 7.5C20 6.67157 20.6716 6 21.5 6Z" fill="#C4C4C4"/>
<path d="M23 1.5C23 0.671574 22.3284 0 21.5 0C20.6716 0 20 0.671574 20 1.5C20 2.32843 20.6716 3 21.5 3C22.3284 3 23 2.32843 23 1.5Z" fill="#C4C4C4"/>
<path d="M26.5 42C27.3284 42 28 42.6716 28 43.5C28 44.3284 27.3284 45 26.5 45C25.6716 45 25 44.3284 25 43.5C25 42.6716 25.6716 42 26.5 42Z" fill="#C4C4C4"/>
<path d="M28 37.5C28 36.6716 27.3284 36 26.5 36C25.6716 36 25 36.6716 25 37.5C25 38.3284 25.6716 39 26.5 39C27.3284 39 28 38.3284 28 37.5Z" fill="#C4C4C4"/>
<path d="M26.5 30C27.3284 30 28 30.6716 28 31.5C28 32.3284 27.3284 33 26.5 33C25.6716 33 25 32.3284 25 31.5C25 30.6716 25.6716 30 26.5 30Z" fill="#C4C4C4"/>
<path d="M28 25.5C28 24.6716 27.3284 24 26.5 24C25.6716 24 25 24.6716 25 25.5C25 26.3284 25.6716 27 26.5 27C27.3284 27 28 26.3284 28 25.5Z" fill="#C4C4C4"/>
<path d="M26.5 18C27.3284 18 28 18.6716 28 19.5C28 20.3284 27.3284 21 26.5 21C25.6716 21 25 20.3284 25 19.5C25 18.6716 25.6716 18 26.5 18Z" fill="#C4C4C4"/>
<path d="M28 13.5C28 12.6716 27.3284 12 26.5 12C25.6716 12 25 12.6716 25 13.5C25 14.3284 25.6716 15 26.5 15C27.3284 15 28 14.3284 28 13.5Z" fill="#C4C4C4"/>
<path d="M26.5 6C27.3284 6 28 6.67157 28 7.5C28 8.32843 27.3284 9 26.5 9C25.6716 9 25 8.32843 25 7.5C25 6.67157 25.6716 6 26.5 6Z" fill="#C4C4C4"/>
<path d="M28 1.5C28 0.671574 27.3284 0 26.5 0C25.6716 0 25 0.671574 25 1.5C25 2.32843 25.6716 3 26.5 3C27.3284 3 28 2.32843 28 1.5Z" fill="#C4C4C4"/>
<path d="M31.5 42C32.3284 42 33 42.6716 33 43.5C33 44.3284 32.3284 45 31.5 45C30.6716 45 30 44.3284 30 43.5C30 42.6716 30.6716 42 31.5 42Z" fill="#C4C4C4"/>
<path d="M33 37.5C33 36.6716 32.3284 36 31.5 36C30.6716 36 30 36.6716 30 37.5C30 38.3284 30.6716 39 31.5 39C32.3284 39 33 38.3284 33 37.5Z" fill="#C4C4C4"/>
<path d="M31.5 30C32.3284 30 33 30.6716 33 31.5C33 32.3284 32.3284 33 31.5 33C30.6716 33 30 32.3284 30 31.5C30 30.6716 30.6716 30 31.5 30Z" fill="#C4C4C4"/>
<path d="M33 25.5C33 24.6716 32.3284 24 31.5 24C30.6716 24 30 24.6716 30 25.5C30 26.3284 30.6716 27 31.5 27C32.3284 27 33 26.3284 33 25.5Z" fill="#C4C4C4"/>
<path d="M31.5 18C32.3284 18 33 18.6716 33 19.5C33 20.3284 32.3284 21 31.5 21C30.6716 21 30 20.3284 30 19.5C30 18.6716 30.6716 18 31.5 18Z" fill="#C4C4C4"/>
<path d="M33 13.5C33 12.6716 32.3284 12 31.5 12C30.6716 12 30 12.6716 30 13.5C30 14.3284 30.6716 15 31.5 15C32.3284 15 33 14.3284 33 13.5Z" fill="#C4C4C4"/>
<path d="M31.5 6C32.3284 6 33 6.67157 33 7.5C33 8.32843 32.3284 9 31.5 9C30.6716 9 30 8.32843 30 7.5C30 6.67157 30.6716 6 31.5 6Z" fill="#C4C4C4"/>
<path d="M33 1.5C33 0.671574 32.3284 0 31.5 0C30.6716 0 30 0.671574 30 1.5C30 2.32843 30.6716 3 31.5 3C32.3284 3 33 2.32843 33 1.5Z" fill="#C4C4C4"/>
<path d="M36.5 42C37.3284 42 38 42.6716 38 43.5C38 44.3284 37.3284 45 36.5 45C35.6716 45 35 44.3284 35 43.5C35 42.6716 35.6716 42 36.5 42Z" fill="#C4C4C4"/>
<path d="M38 37.5C38 36.6716 37.3284 36 36.5 36C35.6716 36 35 36.6716 35 37.5C35 38.3284 35.6716 39 36.5 39C37.3284 39 38 38.3284 38 37.5Z" fill="#C4C4C4"/>
<path d="M36.5 30C37.3284 30 38 30.6716 38 31.5C38 32.3284 37.3284 33 36.5 33C35.6716 33 35 32.3284 35 31.5C35 30.6716 35.6716 30 36.5 30Z" fill="#C4C4C4"/>
<path d="M38 25.5C38 24.6716 37.3284 24 36.5 24C35.6716 24 35 24.6716 35 25.5C35 26.3284 35.6716 27 36.5 27C37.3284 27 38 26.3284 38 25.5Z" fill="#C4C4C4"/>
<path d="M36.5 18C37.3284 18 38 18.6716 38 19.5C38 20.3284 37.3284 21 36.5 21C35.6716 21 35 20.3284 35 19.5C35 18.6716 35.6716 18 36.5 18Z" fill="#C4C4C4"/>
<path d="M38 13.5C38 12.6716 37.3284 12 36.5 12C35.6716 12 35 12.6716 35 13.5C35 14.3284 35.6716 15 36.5 15C37.3284 15 38 14.3284 38 13.5Z" fill="#C4C4C4"/>
<path d="M36.5 6C37.3284 6 38 6.67157 38 7.5C38 8.32843 37.3284 9 36.5 9C35.6716 9 35 8.32843 35 7.5C35 6.67157 35.6716 6 36.5 6Z" fill="#C4C4C4"/>
<path d="M38 1.5C38 0.671574 37.3284 0 36.5 0C35.6716 0 35 0.671574 35 1.5C35 2.32843 35.6716 3 36.5 3C37.3284 3 38 2.32843 38 1.5Z" fill="#C4C4C4"/>
<path d="M41.5 42C42.3284 42 43 42.6716 43 43.5C43 44.3284 42.3284 45 41.5 45C40.6716 45 40 44.3284 40 43.5C40 42.6716 40.6716 42 41.5 42Z" fill="#C4C4C4"/>
<path d="M43 37.5C43 36.6716 42.3284 36 41.5 36C40.6716 36 40 36.6716 40 37.5C40 38.3284 40.6716 39 41.5 39C42.3284 39 43 38.3284 43 37.5Z" fill="#C4C4C4"/>
<path d="M41.5 30C42.3284 30 43 30.6716 43 31.5C43 32.3284 42.3284 33 41.5 33C40.6716 33 40 32.3284 40 31.5C40 30.6716 40.6716 30 41.5 30Z" fill="#C4C4C4"/>
<path d="M43 25.5C43 24.6716 42.3284 24 41.5 24C40.6716 24 40 24.6716 40 25.5C40 26.3284 40.6716 27 41.5 27C42.3284 27 43 26.3284 43 25.5Z" fill="#C4C4C4"/>
<path d="M41.5 18C42.3284 18 43 18.6716 43 19.5C43 20.3284 42.3284 21 41.5 21C40.6716 21 40 20.3284 40 19.5C40 18.6716 40.6716 18 41.5 18Z" fill="#C4C4C4"/>
<path d="M43 13.5C43 12.6716 42.3284 12 41.5 12C40.6716 12 40 12.6716 40 13.5C40 14.3284 40.6716 15 41.5 15C42.3284 15 43 14.3284 43 13.5Z" fill="#C4C4C4"/>
<path d="M41.5 6C42.3284 6 43 6.67157 43 7.5C43 8.32843 42.3284 9 41.5 9C40.6716 9 40 8.32843 40 7.5C40 6.67157 40.6716 6 41.5 6Z" fill="#C4C4C4"/>
<path d="M43 1.5C43 0.671574 42.3284 0 41.5 0C40.6716 0 40 0.671574 40 1.5C40 2.32843 40.6716 3 41.5 3C42.3284 3 43 2.32843 43 1.5Z" fill="#C4C4C4"/>
<path d="M46.5 42C47.3284 42 48 42.6716 48 43.5C48 44.3284 47.3284 45 46.5 45C45.6716 45 45 44.3284 45 43.5C45 42.6716 45.6716 42 46.5 42Z" fill="#C4C4C4"/>
<path d="M48 37.5C48 36.6716 47.3284 36 46.5 36C45.6716 36 45 36.6716 45 37.5C45 38.3284 45.6716 39 46.5 39C47.3284 39 48 38.3284 48 37.5Z" fill="#C4C4C4"/>
<path d="M46.5 30C47.3284 30 48 30.6716 48 31.5C48 32.3284 47.3284 33 46.5 33C45.6716 33 45 32.3284 45 31.5C45 30.6716 45.6716 30 46.5 30Z" fill="#C4C4C4"/>
<path d="M48 25.5C48 24.6716 47.3284 24 46.5 24C45.6716 24 45 24.6716 45 25.5C45 26.3284 45.6716 27 46.5 27C47.3284 27 48 26.3284 48 25.5Z" fill="#C4C4C4"/>
<path d="M46.5 18C47.3284 18 48 18.6716 48 19.5C48 20.3284 47.3284 21 46.5 21C45.6716 21 45 20.3284 45 19.5C45 18.6716 45.6716 18 46.5 18Z" fill="#C4C4C4"/>
<path d="M48 13.5C48 12.6716 47.3284 12 46.5 12C45.6716 12 45 12.6716 45 13.5C45 14.3284 45.6716 15 46.5 15C47.3284 15 48 14.3284 48 13.5Z" fill="#C4C4C4"/>
<path d="M46.5 6C47.3284 6 48 6.67157 48 7.5C48 8.32843 47.3284 9 46.5 9C45.6716 9 45 8.32843 45 7.5C45 6.67157 45.6716 6 46.5 6Z" fill="#C4C4C4"/>
<path d="M48 1.5C48 0.671574 47.3284 0 46.5 0C45.6716 0 45 0.671574 45 1.5C45 2.32843 45.6716 3 46.5 3C47.3284 3 48 2.32843 48 1.5Z" fill="#C4C4C4"/>
<path d="M51.5 42C52.3284 42 53 42.6716 53 43.5C53 44.3284 52.3284 45 51.5 45C50.6716 45 50 44.3284 50 43.5C50 42.6716 50.6716 42 51.5 42Z" fill="#C4C4C4"/>
<path d="M53 37.5C53 36.6716 52.3284 36 51.5 36C50.6716 36 50 36.6716 50 37.5C50 38.3284 50.6716 39 51.5 39C52.3284 39 53 38.3284 53 37.5Z" fill="#C4C4C4"/>
<path d="M51.5 30C52.3284 30 53 30.6716 53 31.5C53 32.3284 52.3284 33 51.5 33C50.6716 33 50 32.3284 50 31.5C50 30.6716 50.6716 30 51.5 30Z" fill="#C4C4C4"/>
<path d="M53 25.5C53 24.6716 52.3284 24 51.5 24C50.6716 24 50 24.6716 50 25.5C50 26.3284 50.6716 27 51.5 27C52.3284 27 53 26.3284 53 25.5Z" fill="#C4C4C4"/>
<path d="M51.5 18C52.3284 18 53 18.6716 53 19.5C53 20.3284 52.3284 21 51.5 21C50.6716 21 50 20.3284 50 19.5C50 18.6716 50.6716 18 51.5 18Z" fill="#C4C4C4"/>
<path d="M53 13.5C53 12.6716 52.3284 12 51.5 12C50.6716 12 50 12.6716 50 13.5C50 14.3284 50.6716 15 51.5 15C52.3284 15 53 14.3284 53 13.5Z" fill="#C4C4C4"/>
<path d="M51.5 6C52.3284 6 53 6.67157 53 7.5C53 8.32843 52.3284 9 51.5 9C50.6716 9 50 8.32843 50 7.5C50 6.67157 50.6716 6 51.5 6Z" fill="#C4C4C4"/>
<path d="M53 1.5C53 0.671574 52.3284 0 51.5 0C50.6716 0 50 0.671574 50 1.5C50 2.32843 50.6716 3 51.5 3C52.3284 3 53 2.32843 53 1.5Z" fill="#C4C4C4"/>
<path d="M56.5 42C57.3284 42 58 42.6716 58 43.5C58 44.3284 57.3284 45 56.5 45C55.6716 45 55 44.3284 55 43.5C55 42.6716 55.6716 42 56.5 42Z" fill="#C4C4C4"/>
<path d="M58 37.5C58 36.6716 57.3284 36 56.5 36C55.6716 36 55 36.6716 55 37.5C55 38.3284 55.6716 39 56.5 39C57.3284 39 58 38.3284 58 37.5Z" fill="#C4C4C4"/>
<path d="M56.5 30C57.3284 30 58 30.6716 58 31.5C58 32.3284 57.3284 33 56.5 33C55.6716 33 55 32.3284 55 31.5C55 30.6716 55.6716 30 56.5 30Z" fill="#C4C4C4"/>
<path d="M58 25.5C58 24.6716 57.3284 24 56.5 24C55.6716 24 55 24.6716 55 25.5C55 26.3284 55.6716 27 56.5 27C57.3284 27 58 26.3284 58 25.5Z" fill="#C4C4C4"/>
<path d="M56.5 18C57.3284 18 58 18.6716 58 19.5C58 20.3284 57.3284 21 56.5 21C55.6716 21 55 20.3284 55 19.5C55 18.6716 55.6716 18 56.5 18Z" fill="#C4C4C4"/>
<path d="M58 13.5C58 12.6716 57.3284 12 56.5 12C55.6716 12 55 12.6716 55 13.5C55 14.3284 55.6716 15 56.5 15C57.3284 15 58 14.3284 58 13.5Z" fill="#C4C4C4"/>
<path d="M56.5 6C57.3284 6 58 6.67157 58 7.5C58 8.32843 57.3284 9 56.5 9C55.6716 9 55 8.32843 55 7.5C55 6.67157 55.6716 6 56.5 6Z" fill="#C4C4C4"/>
<path d="M58 1.5C58 0.671574 57.3284 0 56.5 0C55.6716 0 55 0.671574 55 1.5C55 2.32843 55.6716 3 56.5 3C57.3284 3 58 2.32843 58 1.5Z" fill="#C4C4C4"/>
<path d="M61.5 42C62.3284 42 63 42.6716 63 43.5C63 44.3284 62.3284 45 61.5 45C60.6716 45 60 44.3284 60 43.5C60 42.6716 60.6716 42 61.5 42Z" fill="#C4C4C4"/>
<path d="M63 37.5C63 36.6716 62.3284 36 61.5 36C60.6716 36 60 36.6716 60 37.5C60 38.3284 60.6716 39 61.5 39C62.3284 39 63 38.3284 63 37.5Z" fill="#C4C4C4"/>
<path d="M61.5 30C62.3284 30 63 30.6716 63 31.5C63 32.3284 62.3284 33 61.5 33C60.6716 33 60 32.3284 60 31.5C60 30.6716 60.6716 30 61.5 30Z" fill="#C4C4C4"/>
<path d="M63 25.5C63 24.6716 62.3284 24 61.5 24C60.6716 24 60 24.6716 60 25.5C60 26.3284 60.6716 27 61.5 27C62.3284 27 63 26.3284 63 25.5Z" fill="#C4C4C4"/>
<path d="M61.5 18C62.3284 18 63 18.6716 63 19.5C63 20.3284 62.3284 21 61.5 21C60.6716 21 60 20.3284 60 19.5C60 18.6716 60.6716 18 61.5 18Z" fill="#C4C4C4"/>
<path d="M63 13.5C63 12.6716 62.3284 12 61.5 12C60.6716 12 60 12.6716 60 13.5C60 14.3284 60.6716 15 61.5 15C62.3284 15 63 14.3284 63 13.5Z" fill="#C4C4C4"/>
<path d="M61.5 6C62.3284 6 63 6.67157 63 7.5C63 8.32843 62.3284 9 61.5 9C60.6716 9 60 8.32843 60 7.5C60 6.67157 60.6716 6 61.5 6Z" fill="#C4C4C4"/>
<path d="M63 1.5C63 0.671574 62.3284 0 61.5 0C60.6716 0 60 0.671574 60 1.5C60 2.32843 60.6716 3 61.5 3C62.3284 3 63 2.32843 63 1.5Z" fill="#C4C4C4"/>
<path d="M66.5 42C67.3284 42 68 42.6716 68 43.5C68 44.3284 67.3284 45 66.5 45C65.6716 45 65 44.3284 65 43.5C65 42.6716 65.6716 42 66.5 42Z" fill="#C4C4C4"/>
<path d="M68 37.5C68 36.6716 67.3284 36 66.5 36C65.6716 36 65 36.6716 65 37.5C65 38.3284 65.6716 39 66.5 39C67.3284 39 68 38.3284 68 37.5Z" fill="#C4C4C4"/>
<path d="M66.5 30C67.3284 30 68 30.6716 68 31.5C68 32.3284 67.3284 33 66.5 33C65.6716 33 65 32.3284 65 31.5C65 30.6716 65.6716 30 66.5 30Z" fill="#C4C4C4"/>
<path d="M68 25.5C68 24.6716 67.3284 24 66.5 24C65.6716 24 65 24.6716 65 25.5C65 26.3284 65.6716 27 66.5 27C67.3284 27 68 26.3284 68 25.5Z" fill="#C4C4C4"/>
<path d="M66.5 18C67.3284 18 68 18.6716 68 19.5C68 20.3284 67.3284 21 66.5 21C65.6716 21 65 20.3284 65 19.5C65 18.6716 65.6716 18 66.5 18Z" fill="#C4C4C4"/>
<path d="M68 13.5C68 12.6716 67.3284 12 66.5 12C65.6716 12 65 12.6716 65 13.5C65 14.3284 65.6716 15 66.5 15C67.3284 15 68 14.3284 68 13.5Z" fill="#C4C4C4"/>
<path d="M66.5 6C67.3284 6 68 6.67157 68 7.5C68 8.32843 67.3284 9 66.5 9C65.6716 9 65 8.32843 65 7.5C65 6.67157 65.6716 6 66.5 6Z" fill="#C4C4C4"/>
<path d="M68 1.5C68 0.671574 67.3284 0 66.5 0C65.6716 0 65 0.671574 65 1.5C65 2.32843 65.6716 3 66.5 3C67.3284 3 68 2.32843 68 1.5Z" fill="#C4C4C4"/>
<path d="M71.5 42C72.3284 42 73 42.6716 73 43.5C73 44.3284 72.3284 45 71.5 45C70.6716 45 70 44.3284 70 43.5C70 42.6716 70.6716 42 71.5 42Z" fill="#C4C4C4"/>
<path d="M73 37.5C73 36.6716 72.3284 36 71.5 36C70.6716 36 70 36.6716 70 37.5C70 38.3284 70.6716 39 71.5 39C72.3284 39 73 38.3284 73 37.5Z" fill="#C4C4C4"/>
<path d="M71.5 30C72.3284 30 73 30.6716 73 31.5C73 32.3284 72.3284 33 71.5 33C70.6716 33 70 32.3284 70 31.5C70 30.6716 70.6716 30 71.5 30Z" fill="#C4C4C4"/>
<path d="M73 25.5C73 24.6716 72.3284 24 71.5 24C70.6716 24 70 24.6716 70 25.5C70 26.3284 70.6716 27 71.5 27C72.3284 27 73 26.3284 73 25.5Z" fill="#C4C4C4"/>
<path d="M71.5 18C72.3284 18 73 18.6716 73 19.5C73 20.3284 72.3284 21 71.5 21C70.6716 21 70 20.3284 70 19.5C70 18.6716 70.6716 18 71.5 18Z" fill="#C4C4C4"/>
<path d="M73 13.5C73 12.6716 72.3284 12 71.5 12C70.6716 12 70 12.6716 70 13.5C70 14.3284 70.6716 15 71.5 15C72.3284 15 73 14.3284 73 13.5Z" fill="#C4C4C4"/>
<path d="M71.5 6C72.3284 6 73 6.67157 73 7.5C73 8.32843 72.3284 9 71.5 9C70.6716 9 70 8.32843 70 7.5C70 6.67157 70.6716 6 71.5 6Z" fill="#C4C4C4"/>
<path d="M73 1.5C73 0.671574 72.3284 0 71.5 0C70.6716 0 70 0.671574 70 1.5C70 2.32843 70.6716 3 71.5 3C72.3284 3 73 2.32843 73 1.5Z" fill="#C4C4C4"/>
<path d="M76.5 42C77.3284 42 78 42.6716 78 43.5C78 44.3284 77.3284 45 76.5 45C75.6716 45 75 44.3284 75 43.5C75 42.6716 75.6716 42 76.5 42Z" fill="#C4C4C4"/>
<path d="M78 37.5C78 36.6716 77.3284 36 76.5 36C75.6716 36 75 36.6716 75 37.5C75 38.3284 75.6716 39 76.5 39C77.3284 39 78 38.3284 78 37.5Z" fill="#C4C4C4"/>
<path d="M76.5 30C77.3284 30 78 30.6716 78 31.5C78 32.3284 77.3284 33 76.5 33C75.6716 33 75 32.3284 75 31.5C75 30.6716 75.6716 30 76.5 30Z" fill="#C4C4C4"/>
<path d="M78 25.5C78 24.6716 77.3284 24 76.5 24C75.6716 24 75 24.6716 75 25.5C75 26.3284 75.6716 27 76.5 27C77.3284 27 78 26.3284 78 25.5Z" fill="#C4C4C4"/>
<path d="M76.5 18C77.3284 18 78 18.6716 78 19.5C78 20.3284 77.3284 21 76.5 21C75.6716 21 75 20.3284 75 19.5C75 18.6716 75.6716 18 76.5 18Z" fill="#C4C4C4"/>
<path d="M78 13.5C78 12.6716 77.3284 12 76.5 12C75.6716 12 75 12.6716 75 13.5C75 14.3284 75.6716 15 76.5 15C77.3284 15 78 14.3284 78 13.5Z" fill="#C4C4C4"/>
<path d="M76.5 6C77.3284 6 78 6.67157 78 7.5C78 8.32843 77.3284 9 76.5 9C75.6716 9 75 8.32843 75 7.5C75 6.67157 75.6716 6 76.5 6Z" fill="#C4C4C4"/>
<path d="M78 1.5C78 0.671574 77.3284 0 76.5 0C75.6716 0 75 0.671574 75 1.5C75 2.32843 75.6716 3 76.5 3C77.3284 3 78 2.32843 78 1.5Z" fill="#C4C4C4"/>
<path d="M81.5 42C82.3284 42 83 42.6716 83 43.5C83 44.3284 82.3284 45 81.5 45C80.6716 45 80 44.3284 80 43.5C80 42.6716 80.6716 42 81.5 42Z" fill="#C4C4C4"/>
<path d="M83 37.5C83 36.6716 82.3284 36 81.5 36C80.6716 36 80 36.6716 80 37.5C80 38.3284 80.6716 39 81.5 39C82.3284 39 83 38.3284 83 37.5Z" fill="#C4C4C4"/>
<path d="M81.5 30C82.3284 30 83 30.6716 83 31.5C83 32.3284 82.3284 33 81.5 33C80.6716 33 80 32.3284 80 31.5C80 30.6716 80.6716 30 81.5 30Z" fill="#C4C4C4"/>
<path d="M83 25.5C83 24.6716 82.3284 24 81.5 24C80.6716 24 80 24.6716 80 25.5C80 26.3284 80.6716 27 81.5 27C82.3284 27 83 26.3284 83 25.5Z" fill="#C4C4C4"/>
<path d="M81.5 18C82.3284 18 83 18.6716 83 19.5C83 20.3284 82.3284 21 81.5 21C80.6716 21 80 20.3284 80 19.5C80 18.6716 80.6716 18 81.5 18Z" fill="#C4C4C4"/>
<path d="M83 13.5C83 12.6716 82.3284 12 81.5 12C80.6716 12 80 12.6716 80 13.5C80 14.3284 80.6716 15 81.5 15C82.3284 15 83 14.3284 83 13.5Z" fill="#C4C4C4"/>
<path d="M81.5 6C82.3284 6 83 6.67157 83 7.5C83 8.32843 82.3284 9 81.5 9C80.6716 9 80 8.32843 80 7.5C80 6.67157 80.6716 6 81.5 6Z" fill="#C4C4C4"/>
<path d="M83 1.5C83 0.671574 82.3284 0 81.5 0C80.6716 0 80 0.671574 80 1.5C80 2.32843 80.6716 3 81.5 3C82.3284 3 83 2.32843 83 1.5Z" fill="#C4C4C4"/>
<path d="M86.5 42C87.3284 42 88 42.6716 88 43.5C88 44.3284 87.3284 45 86.5 45C85.6716 45 85 44.3284 85 43.5C85 42.6716 85.6716 42 86.5 42Z" fill="#C4C4C4"/>
<path d="M88 37.5C88 36.6716 87.3284 36 86.5 36C85.6716 36 85 36.6716 85 37.5C85 38.3284 85.6716 39 86.5 39C87.3284 39 88 38.3284 88 37.5Z" fill="#C4C4C4"/>
<path d="M86.5 30C87.3284 30 88 30.6716 88 31.5C88 32.3284 87.3284 33 86.5 33C85.6716 33 85 32.3284 85 31.5C85 30.6716 85.6716 30 86.5 30Z" fill="#C4C4C4"/>
<path d="M88 25.5C88 24.6716 87.3284 24 86.5 24C85.6716 24 85 24.6716 85 25.5C85 26.3284 85.6716 27 86.5 27C87.3284 27 88 26.3284 88 25.5Z" fill="#C4C4C4"/>
<path d="M86.5 18C87.3284 18 88 18.6716 88 19.5C88 20.3284 87.3284 21 86.5 21C85.6716 21 85 20.3284 85 19.5C85 18.6716 85.6716 18 86.5 18Z" fill="#C4C4C4"/>
<path d="M88 13.5C88 12.6716 87.3284 12 86.5 12C85.6716 12 85 12.6716 85 13.5C85 14.3284 85.6716 15 86.5 15C87.3284 15 88 14.3284 88 13.5Z" fill="#C4C4C4"/>
<path d="M86.5 6C87.3284 6 88 6.67157 88 7.5C88 8.32843 87.3284 9 86.5 9C85.6716 9 85 8.32843 85 7.5C85 6.67157 85.6716 6 86.5 6Z" fill="#C4C4C4"/>
<path d="M88 1.5C88 0.671574 87.3284 0 86.5 0C85.6716 0 85 0.671574 85 1.5C85 2.32843 85.6716 3 86.5 3C87.3284 3 88 2.32843 88 1.5Z" fill="#C4C4C4"/>
<path d="M91.5 42C92.3284 42 93 42.6716 93 43.5C93 44.3284 92.3284 45 91.5 45C90.6716 45 90 44.3284 90 43.5C90 42.6716 90.6716 42 91.5 42Z" fill="#C4C4C4"/>
<path d="M93 37.5C93 36.6716 92.3284 36 91.5 36C90.6716 36 90 36.6716 90 37.5C90 38.3284 90.6716 39 91.5 39C92.3284 39 93 38.3284 93 37.5Z" fill="#C4C4C4"/>
<path d="M91.5 30C92.3284 30 93 30.6716 93 31.5C93 32.3284 92.3284 33 91.5 33C90.6716 33 90 32.3284 90 31.5C90 30.6716 90.6716 30 91.5 30Z" fill="#C4C4C4"/>
<path d="M93 25.5C93 24.6716 92.3284 24 91.5 24C90.6716 24 90 24.6716 90 25.5C90 26.3284 90.6716 27 91.5 27C92.3284 27 93 26.3284 93 25.5Z" fill="#C4C4C4"/>
<path d="M91.5 18C92.3284 18 93 18.6716 93 19.5C93 20.3284 92.3284 21 91.5 21C90.6716 21 90 20.3284 90 19.5C90 18.6716 90.6716 18 91.5 18Z" fill="#C4C4C4"/>
<path d="M93 13.5C93 12.6716 92.3284 12 91.5 12C90.6716 12 90 12.6716 90 13.5C90 14.3284 90.6716 15 91.5 15C92.3284 15 93 14.3284 93 13.5Z" fill="#C4C4C4"/>
<path d="M91.5 6C92.3284 6 93 6.67157 93 7.5C93 8.32843 92.3284 9 91.5 9C90.6716 9 90 8.32843 90 7.5C90 6.67157 90.6716 6 91.5 6Z" fill="#C4C4C4"/>
<path d="M93 1.5C93 0.671574 92.3284 0 91.5 0C90.6716 0 90 0.671574 90 1.5C90 2.32843 90.6716 3 91.5 3C92.3284 3 93 2.32843 93 1.5Z" fill="#C4C4C4"/>
<path d="M96.5 42C97.3284 42 98 42.6716 98 43.5C98 44.3284 97.3284 45 96.5 45C95.6716 45 95 44.3284 95 43.5C95 42.6716 95.6716 42 96.5 42Z" fill="#C4C4C4"/>
<path d="M98 37.5C98 36.6716 97.3284 36 96.5 36C95.6716 36 95 36.6716 95 37.5C95 38.3284 95.6716 39 96.5 39C97.3284 39 98 38.3284 98 37.5Z" fill="#C4C4C4"/>
<path d="M96.5 30C97.3284 30 98 30.6716 98 31.5C98 32.3284 97.3284 33 96.5 33C95.6716 33 95 32.3284 95 31.5C95 30.6716 95.6716 30 96.5 30Z" fill="#C4C4C4"/>
<path d="M98 25.5C98 24.6716 97.3284 24 96.5 24C95.6716 24 95 24.6716 95 25.5C95 26.3284 95.6716 27 96.5 27C97.3284 27 98 26.3284 98 25.5Z" fill="#C4C4C4"/>
<path d="M96.5 18C97.3284 18 98 18.6716 98 19.5C98 20.3284 97.3284 21 96.5 21C95.6716 21 95 20.3284 95 19.5C95 18.6716 95.6716 18 96.5 18Z" fill="#C4C4C4"/>
<path d="M98 13.5C98 12.6716 97.3284 12 96.5 12C95.6716 12 95 12.6716 95 13.5C95 14.3284 95.6716 15 96.5 15C97.3284 15 98 14.3284 98 13.5Z" fill="#C4C4C4"/>
<path d="M96.5 6C97.3284 6 98 6.67157 98 7.5C98 8.32843 97.3284 9 96.5 9C95.6716 9 95 8.32843 95 7.5C95 6.67157 95.6716 6 96.5 6Z" fill="#C4C4C4"/>
<path d="M98 1.5C98 0.671574 97.3284 0 96.5 0C95.6716 0 95 0.671574 95 1.5C95 2.32843 95.6716 3 96.5 3C97.3284 3 98 2.32843 98 1.5Z" fill="#C4C4C4"/>
<path d="M101.5 42C102.328 42 103 42.6716 103 43.5C103 44.3284 102.328 45 101.5 45C100.672 45 100 44.3284 100 43.5C100 42.6716 100.672 42 101.5 42Z" fill="#C4C4C4"/>
<path d="M103 37.5C103 36.6716 102.328 36 101.5 36C100.672 36 100 36.6716 100 37.5C100 38.3284 100.672 39 101.5 39C102.328 39 103 38.3284 103 37.5Z" fill="#C4C4C4"/>
<path d="M101.5 30C102.328 30 103 30.6716 103 31.5C103 32.3284 102.328 33 101.5 33C100.672 33 100 32.3284 100 31.5C100 30.6716 100.672 30 101.5 30Z" fill="#C4C4C4"/>
<path d="M103 25.5C103 24.6716 102.328 24 101.5 24C100.672 24 100 24.6716 100 25.5C100 26.3284 100.672 27 101.5 27C102.328 27 103 26.3284 103 25.5Z" fill="#C4C4C4"/>
<path d="M101.5 18C102.328 18 103 18.6716 103 19.5C103 20.3284 102.328 21 101.5 21C100.672 21 100 20.3284 100 19.5C100 18.6716 100.672 18 101.5 18Z" fill="#C4C4C4"/>
<path d="M103 13.5C103 12.6716 102.328 12 101.5 12C100.672 12 100 12.6716 100 13.5C100 14.3284 100.672 15 101.5 15C102.328 15 103 14.3284 103 13.5Z" fill="#C4C4C4"/>
<path d="M101.5 6C102.328 6 103 6.67157 103 7.5C103 8.32843 102.328 9 101.5 9C100.672 9 100 8.32843 100 7.5C100 6.67157 100.672 6 101.5 6Z" fill="#C4C4C4"/>
<path d="M103 1.5C103 0.671574 102.328 0 101.5 0C100.672 0 100 0.671574 100 1.5C100 2.32843 100.672 3 101.5 3C102.328 3 103 2.32843 103 1.5Z" fill="#C4C4C4"/>
<path d="M106.5 42C107.328 42 108 42.6716 108 43.5C108 44.3284 107.328 45 106.5 45C105.672 45 105 44.3284 105 43.5C105 42.6716 105.672 42 106.5 42Z" fill="#C4C4C4"/>
<path d="M108 37.5C108 36.6716 107.328 36 106.5 36C105.672 36 105 36.6716 105 37.5C105 38.3284 105.672 39 106.5 39C107.328 39 108 38.3284 108 37.5Z" fill="#C4C4C4"/>
<path d="M106.5 30C107.328 30 108 30.6716 108 31.5C108 32.3284 107.328 33 106.5 33C105.672 33 105 32.3284 105 31.5C105 30.6716 105.672 30 106.5 30Z" fill="#C4C4C4"/>
<path d="M108 25.5C108 24.6716 107.328 24 106.5 24C105.672 24 105 24.6716 105 25.5C105 26.3284 105.672 27 106.5 27C107.328 27 108 26.3284 108 25.5Z" fill="#C4C4C4"/>
<path d="M106.5 18C107.328 18 108 18.6716 108 19.5C108 20.3284 107.328 21 106.5 21C105.672 21 105 20.3284 105 19.5C105 18.6716 105.672 18 106.5 18Z" fill="#C4C4C4"/>
<path d="M108 13.5C108 12.6716 107.328 12 106.5 12C105.672 12 105 12.6716 105 13.5C105 14.3284 105.672 15 106.5 15C107.328 15 108 14.3284 108 13.5Z" fill="#C4C4C4"/>
<path d="M106.5 6C107.328 6 108 6.67157 108 7.5C108 8.32843 107.328 9 106.5 9C105.672 9 105 8.32843 105 7.5C105 6.67157 105.672 6 106.5 6Z" fill="#C4C4C4"/>
<path d="M108 1.5C108 0.671574 107.328 0 106.5 0C105.672 0 105 0.671574 105 1.5C105 2.32843 105.672 3 106.5 3C107.328 3 108 2.32843 108 1.5Z" fill="#C4C4C4"/>
<path d="M3 91.5C3 90.6716 2.32843 90 1.5 90C0.671573 90 0 90.6716 0 91.5C0 92.3284 0.671573 93 1.5 93C2.32843 93 3 92.3284 3 91.5Z" fill="#C4C4C4"/>
<path d="M3 85.5C3 84.6716 2.32843 84 1.5 84C0.671573 84 0 84.6716 0 85.5C0 86.3284 0.671573 87 1.5 87C2.32843 87 3 86.3284 3 85.5Z" fill="#C4C4C4"/>
<path d="M1.5 78C2.32843 78 3 78.6716 3 79.5C3 80.3284 2.32843 81 1.5 81C0.671573 81 0 80.3284 0 79.5C0 78.6716 0.671573 78 1.5 78Z" fill="#C4C4C4"/>
<path d="M3 73.5C3 72.6716 2.32843 72 1.5 72C0.671573 72 0 72.6716 0 73.5C0 74.3284 0.671573 75 1.5 75C2.32843 75 3 74.3284 3 73.5Z" fill="#C4C4C4"/>
<path d="M1.5 66C2.32843 66 3 66.6716 3 67.5C3 68.3284 2.32843 69 1.5 69C0.671573 69 0 68.3284 0 67.5C0 66.6716 0.671573 66 1.5 66Z" fill="#C4C4C4"/>
<path d="M3 61.5C3 60.6716 2.32843 60 1.5 60C0.671573 60 0 60.6716 0 61.5C0 62.3284 0.671573 63 1.5 63C2.32843 63 3 62.3284 3 61.5Z" fill="#C4C4C4"/>
<path d="M1.5 54C2.32843 54 3 54.6716 3 55.5C3 56.3284 2.32843 57 1.5 57C0.671573 57 0 56.3284 0 55.5C0 54.6716 0.671573 54 1.5 54Z" fill="#C4C4C4"/>
<path d="M3 49.5C3 48.6716 2.32843 48 1.5 48C0.671573 48 0 48.6716 0 49.5C0 50.3284 0.671573 51 1.5 51C2.32843 51 3 50.3284 3 49.5Z" fill="#C4C4C4"/>
<path d="M6.5 90C7.32843 90 8 90.6716 8 91.5C8 92.3284 7.32843 93 6.5 93C5.67157 93 5 92.3284 5 91.5C5 90.6716 5.67157 90 6.5 90Z" fill="#C4C4C4"/>
<path d="M8 85.5C8 84.6716 7.32843 84 6.5 84C5.67157 84 5 84.6716 5 85.5C5 86.3284 5.67157 87 6.5 87C7.32843 87 8 86.3284 8 85.5Z" fill="#C4C4C4"/>
<path d="M6.5 78C7.32843 78 8 78.6716 8 79.5C8 80.3284 7.32843 81 6.5 81C5.67157 81 5 80.3284 5 79.5C5 78.6716 5.67157 78 6.5 78Z" fill="#C4C4C4"/>
<path d="M8 73.5C8 72.6716 7.32843 72 6.5 72C5.67157 72 5 72.6716 5 73.5C5 74.3284 5.67157 75 6.5 75C7.32843 75 8 74.3284 8 73.5Z" fill="#C4C4C4"/>
<path d="M6.5 66C7.32843 66 8 66.6716 8 67.5C8 68.3284 7.32843 69 6.5 69C5.67157 69 5 68.3284 5 67.5C5 66.6716 5.67157 66 6.5 66Z" fill="#C4C4C4"/>
<path d="M8 61.5C8 60.6716 7.32843 60 6.5 60C5.67157 60 5 60.6716 5 61.5C5 62.3284 5.67157 63 6.5 63C7.32843 63 8 62.3284 8 61.5Z" fill="#C4C4C4"/>
<path d="M6.5 54C7.32843 54 8 54.6716 8 55.5C8 56.3284 7.32843 57 6.5 57C5.67157 57 5 56.3284 5 55.5C5 54.6716 5.67157 54 6.5 54Z" fill="#C4C4C4"/>
<path d="M8 49.5C8 48.6716 7.32843 48 6.5 48C5.67157 48 5 48.6716 5 49.5C5 50.3284 5.67157 51 6.5 51C7.32843 51 8 50.3284 8 49.5Z" fill="#C4C4C4"/>
<path d="M11.5 90C12.3284 90 13 90.6716 13 91.5C13 92.3284 12.3284 93 11.5 93C10.6716 93 10 92.3284 10 91.5C10 90.6716 10.6716 90 11.5 90Z" fill="#C4C4C4"/>
<path d="M13 85.5C13 84.6716 12.3284 84 11.5 84C10.6716 84 10 84.6716 10 85.5C10 86.3284 10.6716 87 11.5 87C12.3284 87 13 86.3284 13 85.5Z" fill="#C4C4C4"/>
<path d="M11.5 78C12.3284 78 13 78.6716 13 79.5C13 80.3284 12.3284 81 11.5 81C10.6716 81 10 80.3284 10 79.5C10 78.6716 10.6716 78 11.5 78Z" fill="#C4C4C4"/>
<path d="M13 73.5C13 72.6716 12.3284 72 11.5 72C10.6716 72 10 72.6716 10 73.5C10 74.3284 10.6716 75 11.5 75C12.3284 75 13 74.3284 13 73.5Z" fill="#C4C4C4"/>
<path d="M11.5 66C12.3284 66 13 66.6716 13 67.5C13 68.3284 12.3284 69 11.5 69C10.6716 69 10 68.3284 10 67.5C10 66.6716 10.6716 66 11.5 66Z" fill="#C4C4C4"/>
<path d="M13 61.5C13 60.6716 12.3284 60 11.5 60C10.6716 60 10 60.6716 10 61.5C10 62.3284 10.6716 63 11.5 63C12.3284 63 13 62.3284 13 61.5Z" fill="#C4C4C4"/>
<path d="M11.5 54C12.3284 54 13 54.6716 13 55.5C13 56.3284 12.3284 57 11.5 57C10.6716 57 10 56.3284 10 55.5C10 54.6716 10.6716 54 11.5 54Z" fill="#C4C4C4"/>
<path d="M13 49.5C13 48.6716 12.3284 48 11.5 48C10.6716 48 10 48.6716 10 49.5C10 50.3284 10.6716 51 11.5 51C12.3284 51 13 50.3284 13 49.5Z" fill="#C4C4C4"/>
<path d="M16.5 90C17.3284 90 18 90.6716 18 91.5C18 92.3284 17.3284 93 16.5 93C15.6716 93 15 92.3284 15 91.5C15 90.6716 15.6716 90 16.5 90Z" fill="#C4C4C4"/>
<path d="M18 85.5C18 84.6716 17.3284 84 16.5 84C15.6716 84 15 84.6716 15 85.5C15 86.3284 15.6716 87 16.5 87C17.3284 87 18 86.3284 18 85.5Z" fill="#C4C4C4"/>
<path d="M16.5 78C17.3284 78 18 78.6716 18 79.5C18 80.3284 17.3284 81 16.5 81C15.6716 81 15 80.3284 15 79.5C15 78.6716 15.6716 78 16.5 78Z" fill="#C4C4C4"/>
<path d="M18 73.5C18 72.6716 17.3284 72 16.5 72C15.6716 72 15 72.6716 15 73.5C15 74.3284 15.6716 75 16.5 75C17.3284 75 18 74.3284 18 73.5Z" fill="#C4C4C4"/>
<path d="M16.5 66C17.3284 66 18 66.6716 18 67.5C18 68.3284 17.3284 69 16.5 69C15.6716 69 15 68.3284 15 67.5C15 66.6716 15.6716 66 16.5 66Z" fill="#C4C4C4"/>
<path d="M18 61.5C18 60.6716 17.3284 60 16.5 60C15.6716 60 15 60.6716 15 61.5C15 62.3284 15.6716 63 16.5 63C17.3284 63 18 62.3284 18 61.5Z" fill="#C4C4C4"/>
<path d="M16.5 54C17.3284 54 18 54.6716 18 55.5C18 56.3284 17.3284 57 16.5 57C15.6716 57 15 56.3284 15 55.5C15 54.6716 15.6716 54 16.5 54Z" fill="#C4C4C4"/>
<path d="M18 49.5C18 48.6716 17.3284 48 16.5 48C15.6716 48 15 48.6716 15 49.5C15 50.3284 15.6716 51 16.5 51C17.3284 51 18 50.3284 18 49.5Z" fill="#C4C4C4"/>
<path d="M21.5 90C22.3284 90 23 90.6716 23 91.5C23 92.3284 22.3284 93 21.5 93C20.6716 93 20 92.3284 20 91.5C20 90.6716 20.6716 90 21.5 90Z" fill="#C4C4C4"/>
<path d="M23 85.5C23 84.6716 22.3284 84 21.5 84C20.6716 84 20 84.6716 20 85.5C20 86.3284 20.6716 87 21.5 87C22.3284 87 23 86.3284 23 85.5Z" fill="#C4C4C4"/>
<path d="M21.5 78C22.3284 78 23 78.6716 23 79.5C23 80.3284 22.3284 81 21.5 81C20.6716 81 20 80.3284 20 79.5C20 78.6716 20.6716 78 21.5 78Z" fill="#C4C4C4"/>
<path d="M23 73.5C23 72.6716 22.3284 72 21.5 72C20.6716 72 20 72.6716 20 73.5C20 74.3284 20.6716 75 21.5 75C22.3284 75 23 74.3284 23 73.5Z" fill="#C4C4C4"/>
<path d="M21.5 66C22.3284 66 23 66.6716 23 67.5C23 68.3284 22.3284 69 21.5 69C20.6716 69 20 68.3284 20 67.5C20 66.6716 20.6716 66 21.5 66Z" fill="#C4C4C4"/>
<path d="M23 61.5C23 60.6716 22.3284 60 21.5 60C20.6716 60 20 60.6716 20 61.5C20 62.3284 20.6716 63 21.5 63C22.3284 63 23 62.3284 23 61.5Z" fill="#C4C4C4"/>
<path d="M21.5 54C22.3284 54 23 54.6716 23 55.5C23 56.3284 22.3284 57 21.5 57C20.6716 57 20 56.3284 20 55.5C20 54.6716 20.6716 54 21.5 54Z" fill="#C4C4C4"/>
<path d="M23 49.5C23 48.6716 22.3284 48 21.5 48C20.6716 48 20 48.6716 20 49.5C20 50.3284 20.6716 51 21.5 51C22.3284 51 23 50.3284 23 49.5Z" fill="#C4C4C4"/>
<path d="M26.5 90C27.3284 90 28 90.6716 28 91.5C28 92.3284 27.3284 93 26.5 93C25.6716 93 25 92.3284 25 91.5C25 90.6716 25.6716 90 26.5 90Z" fill="#C4C4C4"/>
<path d="M28 85.5C28 84.6716 27.3284 84 26.5 84C25.6716 84 25 84.6716 25 85.5C25 86.3284 25.6716 87 26.5 87C27.3284 87 28 86.3284 28 85.5Z" fill="#C4C4C4"/>
<path d="M26.5 78C27.3284 78 28 78.6716 28 79.5C28 80.3284 27.3284 81 26.5 81C25.6716 81 25 80.3284 25 79.5C25 78.6716 25.6716 78 26.5 78Z" fill="#C4C4C4"/>
<path d="M28 73.5C28 72.6716 27.3284 72 26.5 72C25.6716 72 25 72.6716 25 73.5C25 74.3284 25.6716 75 26.5 75C27.3284 75 28 74.3284 28 73.5Z" fill="#C4C4C4"/>
<path d="M26.5 66C27.3284 66 28 66.6716 28 67.5C28 68.3284 27.3284 69 26.5 69C25.6716 69 25 68.3284 25 67.5C25 66.6716 25.6716 66 26.5 66Z" fill="#C4C4C4"/>
<path d="M28 61.5C28 60.6716 27.3284 60 26.5 60C25.6716 60 25 60.6716 25 61.5C25 62.3284 25.6716 63 26.5 63C27.3284 63 28 62.3284 28 61.5Z" fill="#C4C4C4"/>
<path d="M26.5 54C27.3284 54 28 54.6716 28 55.5C28 56.3284 27.3284 57 26.5 57C25.6716 57 25 56.3284 25 55.5C25 54.6716 25.6716 54 26.5 54Z" fill="#C4C4C4"/>
<path d="M28 49.5C28 48.6716 27.3284 48 26.5 48C25.6716 48 25 48.6716 25 49.5C25 50.3284 25.6716 51 26.5 51C27.3284 51 28 50.3284 28 49.5Z" fill="#C4C4C4"/>
<path d="M31.5 90C32.3284 90 33 90.6716 33 91.5C33 92.3284 32.3284 93 31.5 93C30.6716 93 30 92.3284 30 91.5C30 90.6716 30.6716 90 31.5 90Z" fill="#C4C4C4"/>
<path d="M33 85.5C33 84.6716 32.3284 84 31.5 84C30.6716 84 30 84.6716 30 85.5C30 86.3284 30.6716 87 31.5 87C32.3284 87 33 86.3284 33 85.5Z" fill="#C4C4C4"/>
<path d="M31.5 78C32.3284 78 33 78.6716 33 79.5C33 80.3284 32.3284 81 31.5 81C30.6716 81 30 80.3284 30 79.5C30 78.6716 30.6716 78 31.5 78Z" fill="#C4C4C4"/>
<path d="M33 73.5C33 72.6716 32.3284 72 31.5 72C30.6716 72 30 72.6716 30 73.5C30 74.3284 30.6716 75 31.5 75C32.3284 75 33 74.3284 33 73.5Z" fill="#C4C4C4"/>
<path d="M31.5 66C32.3284 66 33 66.6716 33 67.5C33 68.3284 32.3284 69 31.5 69C30.6716 69 30 68.3284 30 67.5C30 66.6716 30.6716 66 31.5 66Z" fill="#C4C4C4"/>
<path d="M33 61.5C33 60.6716 32.3284 60 31.5 60C30.6716 60 30 60.6716 30 61.5C30 62.3284 30.6716 63 31.5 63C32.3284 63 33 62.3284 33 61.5Z" fill="#C4C4C4"/>
<path d="M31.5 54C32.3284 54 33 54.6716 33 55.5C33 56.3284 32.3284 57 31.5 57C30.6716 57 30 56.3284 30 55.5C30 54.6716 30.6716 54 31.5 54Z" fill="#C4C4C4"/>
<path d="M33 49.5C33 48.6716 32.3284 48 31.5 48C30.6716 48 30 48.6716 30 49.5C30 50.3284 30.6716 51 31.5 51C32.3284 51 33 50.3284 33 49.5Z" fill="#C4C4C4"/>
<path d="M36.5 90C37.3284 90 38 90.6716 38 91.5C38 92.3284 37.3284 93 36.5 93C35.6716 93 35 92.3284 35 91.5C35 90.6716 35.6716 90 36.5 90Z" fill="#C4C4C4"/>
<path d="M38 85.5C38 84.6716 37.3284 84 36.5 84C35.6716 84 35 84.6716 35 85.5C35 86.3284 35.6716 87 36.5 87C37.3284 87 38 86.3284 38 85.5Z" fill="#C4C4C4"/>
<path d="M36.5 78C37.3284 78 38 78.6716 38 79.5C38 80.3284 37.3284 81 36.5 81C35.6716 81 35 80.3284 35 79.5C35 78.6716 35.6716 78 36.5 78Z" fill="#C4C4C4"/>
<path d="M38 73.5C38 72.6716 37.3284 72 36.5 72C35.6716 72 35 72.6716 35 73.5C35 74.3284 35.6716 75 36.5 75C37.3284 75 38 74.3284 38 73.5Z" fill="#C4C4C4"/>
<path d="M36.5 66C37.3284 66 38 66.6716 38 67.5C38 68.3284 37.3284 69 36.5 69C35.6716 69 35 68.3284 35 67.5C35 66.6716 35.6716 66 36.5 66Z" fill="#C4C4C4"/>
<path d="M38 61.5C38 60.6716 37.3284 60 36.5 60C35.6716 60 35 60.6716 35 61.5C35 62.3284 35.6716 63 36.5 63C37.3284 63 38 62.3284 38 61.5Z" fill="#C4C4C4"/>
<path d="M36.5 54C37.3284 54 38 54.6716 38 55.5C38 56.3284 37.3284 57 36.5 57C35.6716 57 35 56.3284 35 55.5C35 54.6716 35.6716 54 36.5 54Z" fill="#C4C4C4"/>
<path d="M38 49.5C38 48.6716 37.3284 48 36.5 48C35.6716 48 35 48.6716 35 49.5C35 50.3284 35.6716 51 36.5 51C37.3284 51 38 50.3284 38 49.5Z" fill="#C4C4C4"/>
<path d="M41.5 90C42.3284 90 43 90.6716 43 91.5C43 92.3284 42.3284 93 41.5 93C40.6716 93 40 92.3284 40 91.5C40 90.6716 40.6716 90 41.5 90Z" fill="#C4C4C4"/>
<path d="M43 85.5C43 84.6716 42.3284 84 41.5 84C40.6716 84 40 84.6716 40 85.5C40 86.3284 40.6716 87 41.5 87C42.3284 87 43 86.3284 43 85.5Z" fill="#C4C4C4"/>
<path d="M41.5 78C42.3284 78 43 78.6716 43 79.5C43 80.3284 42.3284 81 41.5 81C40.6716 81 40 80.3284 40 79.5C40 78.6716 40.6716 78 41.5 78Z" fill="#C4C4C4"/>
<path d="M43 73.5C43 72.6716 42.3284 72 41.5 72C40.6716 72 40 72.6716 40 73.5C40 74.3284 40.6716 75 41.5 75C42.3284 75 43 74.3284 43 73.5Z" fill="#C4C4C4"/>
<path d="M41.5 66C42.3284 66 43 66.6716 43 67.5C43 68.3284 42.3284 69 41.5 69C40.6716 69 40 68.3284 40 67.5C40 66.6716 40.6716 66 41.5 66Z" fill="#C4C4C4"/>
<path d="M43 61.5C43 60.6716 42.3284 60 41.5 60C40.6716 60 40 60.6716 40 61.5C40 62.3284 40.6716 63 41.5 63C42.3284 63 43 62.3284 43 61.5Z" fill="#C4C4C4"/>
<path d="M41.5 54C42.3284 54 43 54.6716 43 55.5C43 56.3284 42.3284 57 41.5 57C40.6716 57 40 56.3284 40 55.5C40 54.6716 40.6716 54 41.5 54Z" fill="#C4C4C4"/>
<path d="M43 49.5C43 48.6716 42.3284 48 41.5 48C40.6716 48 40 48.6716 40 49.5C40 50.3284 40.6716 51 41.5 51C42.3284 51 43 50.3284 43 49.5Z" fill="#C4C4C4"/>
<path d="M46.5 90C47.3284 90 48 90.6716 48 91.5C48 92.3284 47.3284 93 46.5 93C45.6716 93 45 92.3284 45 91.5C45 90.6716 45.6716 90 46.5 90Z" fill="#C4C4C4"/>
<path d="M48 85.5C48 84.6716 47.3284 84 46.5 84C45.6716 84 45 84.6716 45 85.5C45 86.3284 45.6716 87 46.5 87C47.3284 87 48 86.3284 48 85.5Z" fill="#C4C4C4"/>
<path d="M46.5 78C47.3284 78 48 78.6716 48 79.5C48 80.3284 47.3284 81 46.5 81C45.6716 81 45 80.3284 45 79.5C45 78.6716 45.6716 78 46.5 78Z" fill="#C4C4C4"/>
<path d="M48 73.5C48 72.6716 47.3284 72 46.5 72C45.6716 72 45 72.6716 45 73.5C45 74.3284 45.6716 75 46.5 75C47.3284 75 48 74.3284 48 73.5Z" fill="#C4C4C4"/>
<path d="M46.5 66C47.3284 66 48 66.6716 48 67.5C48 68.3284 47.3284 69 46.5 69C45.6716 69 45 68.3284 45 67.5C45 66.6716 45.6716 66 46.5 66Z" fill="#C4C4C4"/>
<path d="M48 61.5C48 60.6716 47.3284 60 46.5 60C45.6716 60 45 60.6716 45 61.5C45 62.3284 45.6716 63 46.5 63C47.3284 63 48 62.3284 48 61.5Z" fill="#C4C4C4"/>
<path d="M46.5 54C47.3284 54 48 54.6716 48 55.5C48 56.3284 47.3284 57 46.5 57C45.6716 57 45 56.3284 45 55.5C45 54.6716 45.6716 54 46.5 54Z" fill="#C4C4C4"/>
<path d="M48 49.5C48 48.6716 47.3284 48 46.5 48C45.6716 48 45 48.6716 45 49.5C45 50.3284 45.6716 51 46.5 51C47.3284 51 48 50.3284 48 49.5Z" fill="#C4C4C4"/>
<path d="M51.5 90C52.3284 90 53 90.6716 53 91.5C53 92.3284 52.3284 93 51.5 93C50.6716 93 50 92.3284 50 91.5C50 90.6716 50.6716 90 51.5 90Z" fill="#C4C4C4"/>
<path d="M53 85.5C53 84.6716 52.3284 84 51.5 84C50.6716 84 50 84.6716 50 85.5C50 86.3284 50.6716 87 51.5 87C52.3284 87 53 86.3284 53 85.5Z" fill="#C4C4C4"/>
<path d="M51.5 78C52.3284 78 53 78.6716 53 79.5C53 80.3284 52.3284 81 51.5 81C50.6716 81 50 80.3284 50 79.5C50 78.6716 50.6716 78 51.5 78Z" fill="#C4C4C4"/>
<path d="M53 73.5C53 72.6716 52.3284 72 51.5 72C50.6716 72 50 72.6716 50 73.5C50 74.3284 50.6716 75 51.5 75C52.3284 75 53 74.3284 53 73.5Z" fill="#C4C4C4"/>
<path d="M51.5 66C52.3284 66 53 66.6716 53 67.5C53 68.3284 52.3284 69 51.5 69C50.6716 69 50 68.3284 50 67.5C50 66.6716 50.6716 66 51.5 66Z" fill="#C4C4C4"/>
<path d="M53 61.5C53 60.6716 52.3284 60 51.5 60C50.6716 60 50 60.6716 50 61.5C50 62.3284 50.6716 63 51.5 63C52.3284 63 53 62.3284 53 61.5Z" fill="#C4C4C4"/>
<path d="M51.5 54C52.3284 54 53 54.6716 53 55.5C53 56.3284 52.3284 57 51.5 57C50.6716 57 50 56.3284 50 55.5C50 54.6716 50.6716 54 51.5 54Z" fill="#C4C4C4"/>
<path d="M53 49.5C53 48.6716 52.3284 48 51.5 48C50.6716 48 50 48.6716 50 49.5C50 50.3284 50.6716 51 51.5 51C52.3284 51 53 50.3284 53 49.5Z" fill="#C4C4C4"/>
<path d="M56.5 90C57.3284 90 58 90.6716 58 91.5C58 92.3284 57.3284 93 56.5 93C55.6716 93 55 92.3284 55 91.5C55 90.6716 55.6716 90 56.5 90Z" fill="#C4C4C4"/>
<path d="M58 85.5C58 84.6716 57.3284 84 56.5 84C55.6716 84 55 84.6716 55 85.5C55 86.3284 55.6716 87 56.5 87C57.3284 87 58 86.3284 58 85.5Z" fill="#C4C4C4"/>
<path d="M56.5 78C57.3284 78 58 78.6716 58 79.5C58 80.3284 57.3284 81 56.5 81C55.6716 81 55 80.3284 55 79.5C55 78.6716 55.6716 78 56.5 78Z" fill="#C4C4C4"/>
<path d="M58 73.5C58 72.6716 57.3284 72 56.5 72C55.6716 72 55 72.6716 55 73.5C55 74.3284 55.6716 75 56.5 75C57.3284 75 58 74.3284 58 73.5Z" fill="#C4C4C4"/>
<path d="M56.5 66C57.3284 66 58 66.6716 58 67.5C58 68.3284 57.3284 69 56.5 69C55.6716 69 55 68.3284 55 67.5C55 66.6716 55.6716 66 56.5 66Z" fill="#C4C4C4"/>
<path d="M58 61.5C58 60.6716 57.3284 60 56.5 60C55.6716 60 55 60.6716 55 61.5C55 62.3284 55.6716 63 56.5 63C57.3284 63 58 62.3284 58 61.5Z" fill="#C4C4C4"/>
<path d="M56.5 54C57.3284 54 58 54.6716 58 55.5C58 56.3284 57.3284 57 56.5 57C55.6716 57 55 56.3284 55 55.5C55 54.6716 55.6716 54 56.5 54Z" fill="#C4C4C4"/>
<path d="M58 49.5C58 48.6716 57.3284 48 56.5 48C55.6716 48 55 48.6716 55 49.5C55 50.3284 55.6716 51 56.5 51C57.3284 51 58 50.3284 58 49.5Z" fill="#C4C4C4"/>
<path d="M61.5 90C62.3284 90 63 90.6716 63 91.5C63 92.3284 62.3284 93 61.5 93C60.6716 93 60 92.3284 60 91.5C60 90.6716 60.6716 90 61.5 90Z" fill="#C4C4C4"/>
<path d="M63 85.5C63 84.6716 62.3284 84 61.5 84C60.6716 84 60 84.6716 60 85.5C60 86.3284 60.6716 87 61.5 87C62.3284 87 63 86.3284 63 85.5Z" fill="#C4C4C4"/>
<path d="M61.5 78C62.3284 78 63 78.6716 63 79.5C63 80.3284 62.3284 81 61.5 81C60.6716 81 60 80.3284 60 79.5C60 78.6716 60.6716 78 61.5 78Z" fill="#C4C4C4"/>
<path d="M63 73.5C63 72.6716 62.3284 72 61.5 72C60.6716 72 60 72.6716 60 73.5C60 74.3284 60.6716 75 61.5 75C62.3284 75 63 74.3284 63 73.5Z" fill="#C4C4C4"/>
<path d="M61.5 66C62.3284 66 63 66.6716 63 67.5C63 68.3284 62.3284 69 61.5 69C60.6716 69 60 68.3284 60 67.5C60 66.6716 60.6716 66 61.5 66Z" fill="#C4C4C4"/>
<path d="M63 61.5C63 60.6716 62.3284 60 61.5 60C60.6716 60 60 60.6716 60 61.5C60 62.3284 60.6716 63 61.5 63C62.3284 63 63 62.3284 63 61.5Z" fill="#C4C4C4"/>
<path d="M61.5 54C62.3284 54 63 54.6716 63 55.5C63 56.3284 62.3284 57 61.5 57C60.6716 57 60 56.3284 60 55.5C60 54.6716 60.6716 54 61.5 54Z" fill="#C4C4C4"/>
<path d="M63 49.5C63 48.6716 62.3284 48 61.5 48C60.6716 48 60 48.6716 60 49.5C60 50.3284 60.6716 51 61.5 51C62.3284 51 63 50.3284 63 49.5Z" fill="#C4C4C4"/>
<path d="M66.5 90C67.3284 90 68 90.6716 68 91.5C68 92.3284 67.3284 93 66.5 93C65.6716 93 65 92.3284 65 91.5C65 90.6716 65.6716 90 66.5 90Z" fill="#C4C4C4"/>
<path d="M68 85.5C68 84.6716 67.3284 84 66.5 84C65.6716 84 65 84.6716 65 85.5C65 86.3284 65.6716 87 66.5 87C67.3284 87 68 86.3284 68 85.5Z" fill="#C4C4C4"/>
<path d="M66.5 78C67.3284 78 68 78.6716 68 79.5C68 80.3284 67.3284 81 66.5 81C65.6716 81 65 80.3284 65 79.5C65 78.6716 65.6716 78 66.5 78Z" fill="#C4C4C4"/>
<path d="M68 73.5C68 72.6716 67.3284 72 66.5 72C65.6716 72 65 72.6716 65 73.5C65 74.3284 65.6716 75 66.5 75C67.3284 75 68 74.3284 68 73.5Z" fill="#C4C4C4"/>
<path d="M66.5 66C67.3284 66 68 66.6716 68 67.5C68 68.3284 67.3284 69 66.5 69C65.6716 69 65 68.3284 65 67.5C65 66.6716 65.6716 66 66.5 66Z" fill="#C4C4C4"/>
<path d="M68 61.5C68 60.6716 67.3284 60 66.5 60C65.6716 60 65 60.6716 65 61.5C65 62.3284 65.6716 63 66.5 63C67.3284 63 68 62.3284 68 61.5Z" fill="#C4C4C4"/>
<path d="M66.5 54C67.3284 54 68 54.6716 68 55.5C68 56.3284 67.3284 57 66.5 57C65.6716 57 65 56.3284 65 55.5C65 54.6716 65.6716 54 66.5 54Z" fill="#C4C4C4"/>
<path d="M68 49.5C68 48.6716 67.3284 48 66.5 48C65.6716 48 65 48.6716 65 49.5C65 50.3284 65.6716 51 66.5 51C67.3284 51 68 50.3284 68 49.5Z" fill="#C4C4C4"/>
<path d="M71.5 90C72.3284 90 73 90.6716 73 91.5C73 92.3284 72.3284 93 71.5 93C70.6716 93 70 92.3284 70 91.5C70 90.6716 70.6716 90 71.5 90Z" fill="#C4C4C4"/>
<path d="M73 85.5C73 84.6716 72.3284 84 71.5 84C70.6716 84 70 84.6716 70 85.5C70 86.3284 70.6716 87 71.5 87C72.3284 87 73 86.3284 73 85.5Z" fill="#C4C4C4"/>
<path d="M71.5 78C72.3284 78 73 78.6716 73 79.5C73 80.3284 72.3284 81 71.5 81C70.6716 81 70 80.3284 70 79.5C70 78.6716 70.6716 78 71.5 78Z" fill="#C4C4C4"/>
<path d="M73 73.5C73 72.6716 72.3284 72 71.5 72C70.6716 72 70 72.6716 70 73.5C70 74.3284 70.6716 75 71.5 75C72.3284 75 73 74.3284 73 73.5Z" fill="#C4C4C4"/>
<path d="M71.5 66C72.3284 66 73 66.6716 73 67.5C73 68.3284 72.3284 69 71.5 69C70.6716 69 70 68.3284 70 67.5C70 66.6716 70.6716 66 71.5 66Z" fill="#C4C4C4"/>
<path d="M73 61.5C73 60.6716 72.3284 60 71.5 60C70.6716 60 70 60.6716 70 61.5C70 62.3284 70.6716 63 71.5 63C72.3284 63 73 62.3284 73 61.5Z" fill="#C4C4C4"/>
<path d="M71.5 54C72.3284 54 73 54.6716 73 55.5C73 56.3284 72.3284 57 71.5 57C70.6716 57 70 56.3284 70 55.5C70 54.6716 70.6716 54 71.5 54Z" fill="#C4C4C4"/>
<path d="M73 49.5C73 48.6716 72.3284 48 71.5 48C70.6716 48 70 48.6716 70 49.5C70 50.3284 70.6716 51 71.5 51C72.3284 51 73 50.3284 73 49.5Z" fill="#C4C4C4"/>
<path d="M76.5 90C77.3284 90 78 90.6716 78 91.5C78 92.3284 77.3284 93 76.5 93C75.6716 93 75 92.3284 75 91.5C75 90.6716 75.6716 90 76.5 90Z" fill="#C4C4C4"/>
<path d="M78 85.5C78 84.6716 77.3284 84 76.5 84C75.6716 84 75 84.6716 75 85.5C75 86.3284 75.6716 87 76.5 87C77.3284 87 78 86.3284 78 85.5Z" fill="#C4C4C4"/>
<path d="M76.5 78C77.3284 78 78 78.6716 78 79.5C78 80.3284 77.3284 81 76.5 81C75.6716 81 75 80.3284 75 79.5C75 78.6716 75.6716 78 76.5 78Z" fill="#C4C4C4"/>
<path d="M78 73.5C78 72.6716 77.3284 72 76.5 72C75.6716 72 75 72.6716 75 73.5C75 74.3284 75.6716 75 76.5 75C77.3284 75 78 74.3284 78 73.5Z" fill="#C4C4C4"/>
<path d="M76.5 66C77.3284 66 78 66.6716 78 67.5C78 68.3284 77.3284 69 76.5 69C75.6716 69 75 68.3284 75 67.5C75 66.6716 75.6716 66 76.5 66Z" fill="#C4C4C4"/>
<path d="M78 61.5C78 60.6716 77.3284 60 76.5 60C75.6716 60 75 60.6716 75 61.5C75 62.3284 75.6716 63 76.5 63C77.3284 63 78 62.3284 78 61.5Z" fill="#C4C4C4"/>
<path d="M76.5 54C77.3284 54 78 54.6716 78 55.5C78 56.3284 77.3284 57 76.5 57C75.6716 57 75 56.3284 75 55.5C75 54.6716 75.6716 54 76.5 54Z" fill="#C4C4C4"/>
<path d="M78 49.5C78 48.6716 77.3284 48 76.5 48C75.6716 48 75 48.6716 75 49.5C75 50.3284 75.6716 51 76.5 51C77.3284 51 78 50.3284 78 49.5Z" fill="#C4C4C4"/>
<path d="M81.5 90C82.3284 90 83 90.6716 83 91.5C83 92.3284 82.3284 93 81.5 93C80.6716 93 80 92.3284 80 91.5C80 90.6716 80.6716 90 81.5 90Z" fill="#C4C4C4"/>
<path d="M83 85.5C83 84.6716 82.3284 84 81.5 84C80.6716 84 80 84.6716 80 85.5C80 86.3284 80.6716 87 81.5 87C82.3284 87 83 86.3284 83 85.5Z" fill="#C4C4C4"/>
<path d="M81.5 78C82.3284 78 83 78.6716 83 79.5C83 80.3284 82.3284 81 81.5 81C80.6716 81 80 80.3284 80 79.5C80 78.6716 80.6716 78 81.5 78Z" fill="#C4C4C4"/>
<path d="M83 73.5C83 72.6716 82.3284 72 81.5 72C80.6716 72 80 72.6716 80 73.5C80 74.3284 80.6716 75 81.5 75C82.3284 75 83 74.3284 83 73.5Z" fill="#C4C4C4"/>
<path d="M81.5 66C82.3284 66 83 66.6716 83 67.5C83 68.3284 82.3284 69 81.5 69C80.6716 69 80 68.3284 80 67.5C80 66.6716 80.6716 66 81.5 66Z" fill="#C4C4C4"/>
<path d="M83 61.5C83 60.6716 82.3284 60 81.5 60C80.6716 60 80 60.6716 80 61.5C80 62.3284 80.6716 63 81.5 63C82.3284 63 83 62.3284 83 61.5Z" fill="#C4C4C4"/>
<path d="M81.5 54C82.3284 54 83 54.6716 83 55.5C83 56.3284 82.3284 57 81.5 57C80.6716 57 80 56.3284 80 55.5C80 54.6716 80.6716 54 81.5 54Z" fill="#C4C4C4"/>
<path d="M83 49.5C83 48.6716 82.3284 48 81.5 48C80.6716 48 80 48.6716 80 49.5C80 50.3284 80.6716 51 81.5 51C82.3284 51 83 50.3284 83 49.5Z" fill="#C4C4C4"/>
<path d="M86.5 90C87.3284 90 88 90.6716 88 91.5C88 92.3284 87.3284 93 86.5 93C85.6716 93 85 92.3284 85 91.5C85 90.6716 85.6716 90 86.5 90Z" fill="#C4C4C4"/>
<path d="M88 85.5C88 84.6716 87.3284 84 86.5 84C85.6716 84 85 84.6716 85 85.5C85 86.3284 85.6716 87 86.5 87C87.3284 87 88 86.3284 88 85.5Z" fill="#C4C4C4"/>
<path d="M86.5 78C87.3284 78 88 78.6716 88 79.5C88 80.3284 87.3284 81 86.5 81C85.6716 81 85 80.3284 85 79.5C85 78.6716 85.6716 78 86.5 78Z" fill="#C4C4C4"/>
<path d="M88 73.5C88 72.6716 87.3284 72 86.5 72C85.6716 72 85 72.6716 85 73.5C85 74.3284 85.6716 75 86.5 75C87.3284 75 88 74.3284 88 73.5Z" fill="#C4C4C4"/>
<path d="M86.5 66C87.3284 66 88 66.6716 88 67.5C88 68.3284 87.3284 69 86.5 69C85.6716 69 85 68.3284 85 67.5C85 66.6716 85.6716 66 86.5 66Z" fill="#C4C4C4"/>
<path d="M88 61.5C88 60.6716 87.3284 60 86.5 60C85.6716 60 85 60.6716 85 61.5C85 62.3284 85.6716 63 86.5 63C87.3284 63 88 62.3284 88 61.5Z" fill="#C4C4C4"/>
<path d="M86.5 54C87.3284 54 88 54.6716 88 55.5C88 56.3284 87.3284 57 86.5 57C85.6716 57 85 56.3284 85 55.5C85 54.6716 85.6716 54 86.5 54Z" fill="#C4C4C4"/>
<path d="M88 49.5C88 48.6716 87.3284 48 86.5 48C85.6716 48 85 48.6716 85 49.5C85 50.3284 85.6716 51 86.5 51C87.3284 51 88 50.3284 88 49.5Z" fill="#C4C4C4"/>
<path d="M91.5 90C92.3284 90 93 90.6716 93 91.5C93 92.3284 92.3284 93 91.5 93C90.6716 93 90 92.3284 90 91.5C90 90.6716 90.6716 90 91.5 90Z" fill="#C4C4C4"/>
<path d="M93 85.5C93 84.6716 92.3284 84 91.5 84C90.6716 84 90 84.6716 90 85.5C90 86.3284 90.6716 87 91.5 87C92.3284 87 93 86.3284 93 85.5Z" fill="#C4C4C4"/>
<path d="M91.5 78C92.3284 78 93 78.6716 93 79.5C93 80.3284 92.3284 81 91.5 81C90.6716 81 90 80.3284 90 79.5C90 78.6716 90.6716 78 91.5 78Z" fill="#C4C4C4"/>
<path d="M93 73.5C93 72.6716 92.3284 72 91.5 72C90.6716 72 90 72.6716 90 73.5C90 74.3284 90.6716 75 91.5 75C92.3284 75 93 74.3284 93 73.5Z" fill="#C4C4C4"/>
<path d="M91.5 66C92.3284 66 93 66.6716 93 67.5C93 68.3284 92.3284 69 91.5 69C90.6716 69 90 68.3284 90 67.5C90 66.6716 90.6716 66 91.5 66Z" fill="#C4C4C4"/>
<path d="M93 61.5C93 60.6716 92.3284 60 91.5 60C90.6716 60 90 60.6716 90 61.5C90 62.3284 90.6716 63 91.5 63C92.3284 63 93 62.3284 93 61.5Z" fill="#C4C4C4"/>
<path d="M91.5 54C92.3284 54 93 54.6716 93 55.5C93 56.3284 92.3284 57 91.5 57C90.6716 57 90 56.3284 90 55.5C90 54.6716 90.6716 54 91.5 54Z" fill="#C4C4C4"/>
<path d="M93 49.5C93 48.6716 92.3284 48 91.5 48C90.6716 48 90 48.6716 90 49.5C90 50.3284 90.6716 51 91.5 51C92.3284 51 93 50.3284 93 49.5Z" fill="#C4C4C4"/>
<path d="M96.5 90C97.3284 90 98 90.6716 98 91.5C98 92.3284 97.3284 93 96.5 93C95.6716 93 95 92.3284 95 91.5C95 90.6716 95.6716 90 96.5 90Z" fill="#C4C4C4"/>
<path d="M98 85.5C98 84.6716 97.3284 84 96.5 84C95.6716 84 95 84.6716 95 85.5C95 86.3284 95.6716 87 96.5 87C97.3284 87 98 86.3284 98 85.5Z" fill="#C4C4C4"/>
<path d="M96.5 78C97.3284 78 98 78.6716 98 79.5C98 80.3284 97.3284 81 96.5 81C95.6716 81 95 80.3284 95 79.5C95 78.6716 95.6716 78 96.5 78Z" fill="#C4C4C4"/>
<path d="M98 73.5C98 72.6716 97.3284 72 96.5 72C95.6716 72 95 72.6716 95 73.5C95 74.3284 95.6716 75 96.5 75C97.3284 75 98 74.3284 98 73.5Z" fill="#C4C4C4"/>
<path d="M96.5 66C97.3284 66 98 66.6716 98 67.5C98 68.3284 97.3284 69 96.5 69C95.6716 69 95 68.3284 95 67.5C95 66.6716 95.6716 66 96.5 66Z" fill="#C4C4C4"/>
<path d="M98 61.5C98 60.6716 97.3284 60 96.5 60C95.6716 60 95 60.6716 95 61.5C95 62.3284 95.6716 63 96.5 63C97.3284 63 98 62.3284 98 61.5Z" fill="#C4C4C4"/>
<path d="M96.5 54C97.3284 54 98 54.6716 98 55.5C98 56.3284 97.3284 57 96.5 57C95.6716 57 95 56.3284 95 55.5C95 54.6716 95.6716 54 96.5 54Z" fill="#C4C4C4"/>
<path d="M98 49.5C98 48.6716 97.3284 48 96.5 48C95.6716 48 95 48.6716 95 49.5C95 50.3284 95.6716 51 96.5 51C97.3284 51 98 50.3284 98 49.5Z" fill="#C4C4C4"/>
<path d="M101.5 90C102.328 90 103 90.6716 103 91.5C103 92.3284 102.328 93 101.5 93C100.672 93 100 92.3284 100 91.5C100 90.6716 100.672 90 101.5 90Z" fill="#C4C4C4"/>
<path d="M103 85.5C103 84.6716 102.328 84 101.5 84C100.672 84 100 84.6716 100 85.5C100 86.3284 100.672 87 101.5 87C102.328 87 103 86.3284 103 85.5Z" fill="#C4C4C4"/>
<path d="M101.5 78C102.328 78 103 78.6716 103 79.5C103 80.3284 102.328 81 101.5 81C100.672 81 100 80.3284 100 79.5C100 78.6716 100.672 78 101.5 78Z" fill="#C4C4C4"/>
<path d="M103 73.5C103 72.6716 102.328 72 101.5 72C100.672 72 100 72.6716 100 73.5C100 74.3284 100.672 75 101.5 75C102.328 75 103 74.3284 103 73.5Z" fill="#C4C4C4"/>
<path d="M101.5 66C102.328 66 103 66.6716 103 67.5C103 68.3284 102.328 69 101.5 69C100.672 69 100 68.3284 100 67.5C100 66.6716 100.672 66 101.5 66Z" fill="#C4C4C4"/>
<path d="M103 61.5C103 60.6716 102.328 60 101.5 60C100.672 60 100 60.6716 100 61.5C100 62.3284 100.672 63 101.5 63C102.328 63 103 62.3284 103 61.5Z" fill="#C4C4C4"/>
<path d="M101.5 54C102.328 54 103 54.6716 103 55.5C103 56.3284 102.328 57 101.5 57C100.672 57 100 56.3284 100 55.5C100 54.6716 100.672 54 101.5 54Z" fill="#C4C4C4"/>
<path d="M103 49.5C103 48.6716 102.328 48 101.5 48C100.672 48 100 48.6716 100 49.5C100 50.3284 100.672 51 101.5 51C102.328 51 103 50.3284 103 49.5Z" fill="#C4C4C4"/>
<path d="M106.5 90C107.328 90 108 90.6716 108 91.5C108 92.3284 107.328 93 106.5 93C105.672 93 105 92.3284 105 91.5C105 90.6716 105.672 90 106.5 90Z" fill="#C4C4C4"/>
<path d="M108 85.5C108 84.6716 107.328 84 106.5 84C105.672 84 105 84.6716 105 85.5C105 86.3284 105.672 87 106.5 87C107.328 87 108 86.3284 108 85.5Z" fill="#C4C4C4"/>
<path d="M106.5 78C107.328 78 108 78.6716 108 79.5C108 80.3284 107.328 81 106.5 81C105.672 81 105 80.3284 105 79.5C105 78.6716 105.672 78 106.5 78Z" fill="#C4C4C4"/>
<path d="M108 73.5C108 72.6716 107.328 72 106.5 72C105.672 72 105 72.6716 105 73.5C105 74.3284 105.672 75 106.5 75C107.328 75 108 74.3284 108 73.5Z" fill="#C4C4C4"/>
<path d="M106.5 66C107.328 66 108 66.6716 108 67.5C108 68.3284 107.328 69 106.5 69C105.672 69 105 68.3284 105 67.5C105 66.6716 105.672 66 106.5 66Z" fill="#C4C4C4"/>
<path d="M108 61.5C108 60.6716 107.328 60 106.5 60C105.672 60 105 60.6716 105 61.5C105 62.3284 105.672 63 106.5 63C107.328 63 108 62.3284 108 61.5Z" fill="#C4C4C4"/>
<path d="M106.5 54C107.328 54 108 54.6716 108 55.5C108 56.3284 107.328 57 106.5 57C105.672 57 105 56.3284 105 55.5C105 54.6716 105.672 54 106.5 54Z" fill="#C4C4C4"/>
<path d="M108 49.5C108 48.6716 107.328 48 106.5 48C105.672 48 105 48.6716 105 49.5C105 50.3284 105.672 51 106.5 51C107.328 51 108 50.3284 108 49.5Z" fill="#C4C4C4"/>
</svg>
