<svg width="100" height="27" viewBox="0 0 100 27" fill="none" xmlns="http://www.w3.org/2000/svg">
<path d="M44.7782 15.642V11.526H40.6062V13.024H43.1122V14.858C42.8136 15.082 42.4589 15.264 42.0482 15.404C41.6469 15.5347 41.2129 15.6 40.7462 15.6C40.2422 15.6 39.7849 15.5113 39.3742 15.334C38.9729 15.1567 38.6229 14.914 38.3242 14.606C38.0349 14.2887 37.8109 13.9153 37.6522 13.486C37.4936 13.0567 37.4142 12.59 37.4142 12.086C37.4142 11.61 37.4936 11.162 37.6522 10.742C37.8202 10.322 38.0442 9.95333 38.3242 9.636C38.6136 9.31867 38.9496 9.07133 39.3322 8.894C39.7242 8.70733 40.1442 8.614 40.5922 8.614C40.9002 8.614 41.1802 8.642 41.4322 8.698C41.6936 8.74467 41.9316 8.81467 42.1462 8.908C42.3609 8.992 42.5662 9.09933 42.7622 9.23C42.9582 9.36067 43.1496 9.50533 43.3362 9.664L44.4282 8.362C44.1762 8.14733 43.9149 7.96067 43.6442 7.802C43.3829 7.634 43.1029 7.494 42.8042 7.382C42.5056 7.27 42.1789 7.186 41.8242 7.13C41.4789 7.06467 41.0916 7.032 40.6622 7.032C39.9249 7.032 39.2436 7.16733 38.6182 7.438C38.0022 7.70867 37.4702 8.07733 37.0222 8.544C36.5742 9.00133 36.2242 9.538 35.9722 10.154C35.7296 10.77 35.6082 11.4233 35.6082 12.114C35.6082 12.8327 35.7296 13.5 35.9722 14.116C36.2149 14.732 36.5556 15.2687 36.9942 15.726C37.4422 16.174 37.9789 16.5287 38.6042 16.79C39.2296 17.042 39.9249 17.168 40.6902 17.168C41.1196 17.168 41.5302 17.126 41.9222 17.042C42.3142 16.9673 42.6782 16.86 43.0142 16.72C43.3596 16.58 43.6769 16.4167 43.9662 16.23C44.2649 16.0433 44.5356 15.8473 44.7782 15.642ZM54.2867 7.2H47.0207V17H54.3567V15.46H48.7427V12.828H53.6567V11.288H48.7427V8.74H54.2867V7.2ZM60.5436 8.796H63.6516V7.2H55.6996V8.796H58.8076V17H60.5436V8.796Z" fill="#55A922"/>
<rect width="100" height="27" rx="4" fill="#38B72D" fill-opacity="0.17"/>
</svg>

