<svg width="20" height="20" viewBox="0 0 20 20" fill="none" xmlns="http://www.w3.org/2000/svg">
<circle cx="10" cy="10" r="10" fill="white"/>
<path d="M11.57 4.95V5.415L11.42 11.565H9.05L8.9 5.415V4.95H11.57ZM10.265 12.42C10.655 12.42 10.98 12.55 11.24 12.81C11.5 13.07 11.63 13.385 11.63 13.755C11.63 14.135 11.5 14.45 11.24 14.7C10.99 14.95 10.665 15.075 10.265 15.075C9.865 15.075 9.535 14.95 9.275 14.7C9.015 14.45 8.885 14.135 8.885 13.755C8.885 13.385 9.015 13.07 9.275 12.81C9.535 12.55 9.865 12.42 10.265 12.42Z" fill="black"/>
</svg>
