<svg width="32" height="10" viewBox="0 0 32 10" fill="none" xmlns="http://www.w3.org/2000/svg">
<rect width="32" height="10" rx="2" fill="#0028BF"/>
<path d="M11.8569 2.98V7H11.0409L9.00695 4.672V7H8.01695V2.98H8.83895L10.8729 5.38V2.98H11.8569ZM15.57 3.988V7H14.61V6.712C14.37 6.964 14.062 7.09 13.686 7.09C13.334 7.09 13.05 6.976 12.834 6.748C12.622 6.516 12.516 6.212 12.516 5.836V3.988H13.47V5.632C13.47 5.808 13.518 5.952 13.614 6.064C13.71 6.172 13.834 6.226 13.986 6.226C14.182 6.226 14.334 6.158 14.442 6.022C14.554 5.882 14.61 5.67 14.61 5.386V3.988H15.57ZM19.2189 5.494V5.74H17.0109C17.0509 5.92 17.1289 6.062 17.2449 6.166C17.3609 6.27 17.4989 6.322 17.6589 6.322C17.9589 6.322 18.1729 6.206 18.3009 5.974L19.1529 6.148C19.0249 6.46 18.8309 6.696 18.5709 6.856C18.3149 7.012 18.0109 7.09 17.6589 7.09C17.2149 7.09 16.8389 6.942 16.5309 6.646C16.2229 6.346 16.0689 5.962 16.0689 5.494C16.0689 5.03 16.2229 4.648 16.5309 4.348C16.8389 4.048 17.2169 3.898 17.6649 3.898C18.1009 3.898 18.4669 4.044 18.7629 4.336C19.0589 4.628 19.2109 5.014 19.2189 5.494ZM17.6649 4.678C17.5249 4.678 17.3949 4.72 17.2749 4.804C17.1549 4.888 17.0729 5.004 17.0289 5.152H18.2709C18.2269 4.996 18.1509 4.878 18.0429 4.798C17.9349 4.718 17.8089 4.678 17.6649 4.678ZM22.7806 3.982L21.5326 7H20.5546L19.3066 3.982H20.3206L21.0466 5.842L21.7666 3.982H22.7806ZM24.5338 3.91C24.9938 3.91 25.3838 4.058 25.7038 4.354C26.0238 4.65 26.1838 5.03 26.1838 5.494C26.1838 5.962 26.0238 6.344 25.7038 6.64C25.3838 6.936 24.9938 7.084 24.5338 7.084C24.0658 7.084 23.6698 6.936 23.3458 6.64C23.0258 6.344 22.8658 5.962 22.8658 5.494C22.8658 5.03 23.0258 4.65 23.3458 4.354C23.6698 4.058 24.0658 3.91 24.5338 3.91ZM24.5338 6.274C24.7298 6.274 24.8998 6.202 25.0438 6.058C25.1878 5.91 25.2598 5.722 25.2598 5.494C25.2598 5.266 25.1858 5.08 25.0378 4.936C24.8938 4.788 24.7258 4.714 24.5338 4.714C24.3338 4.714 24.1598 4.788 24.0118 4.936C23.8638 5.08 23.7898 5.266 23.7898 5.494C23.7898 5.722 23.8618 5.91 24.0058 6.058C24.1538 6.202 24.3298 6.274 24.5338 6.274Z" fill="white"/>
</svg>
