<svg width="15" height="15" viewBox="0 0 15 15" fill="none" xmlns="http://www.w3.org/2000/svg">
<circle cx="7.5" cy="7.5" r="7.5" fill="#406AFF"/>
<path d="M10.8736 5.55806L10.2594 4.94388C10.1752 4.8596 10.0727 4.81744 9.95234 4.81744C9.83184 4.81744 9.72942 4.8596 9.6452 4.94388L6.68258 7.91098L5.35483 6.5787C5.27052 6.49439 5.16816 6.45228 5.04777 6.45228C4.9273 6.45228 4.82494 6.49439 4.74063 6.5787L4.12645 7.1929C4.04214 7.27719 4 7.37959 4 7.50004C4 7.6204 4.04214 7.72288 4.12645 7.80716L5.76126 9.44194L6.37549 10.0561C6.45975 10.1405 6.56214 10.1826 6.68258 10.1826C6.80297 10.1826 6.90536 10.1404 6.98967 10.0561L7.60388 9.44194L10.8736 6.17229C10.9578 6.08798 11 5.98561 11 5.86515C11.0001 5.74476 10.9578 5.64237 10.8736 5.55806Z" fill="white"/>
</svg>
